<?xml version="1.0" encoding="UTF-8"?>
<!DOCTYPE svg PUBLIC "-//W3C//DTD SVG 1.1//EN" "http://www.w3.org/Graphics/SVG/1.1/DTD/svg11.dtd">
<!-- Creator: CorelDRAW 2020 (64 Bit) -->
<svg xmlns="http://www.w3.org/2000/svg" xml:space="preserve" width="37.9556mm" height="12.1326mm" version="1.1" style="shape-rendering:geometricPrecision; text-rendering:geometricPrecision; image-rendering:optimizeQuality; fill-rule:evenodd; clip-rule:evenodd"
viewBox="0 0 757.3 242.07"
 xmlns:xlink="http://www.w3.org/1999/xlink"
 xmlns:xodm="http://www.corel.com/coreldraw/odm/2003">
 <defs>
  <style type="text/css">
   <![CDATA[
    .fil1 {fill:#00E92E;fill-rule:nonzero}
    .fil0 {fill:white;fill-rule:nonzero}
    .fil2 {fill:url(#id0)}
    .fil4 {fill:url(#id1)}
    .fil3 {fill:url(#id2)}
   ]]>
  </style>
  <linearGradient id="id0" gradientUnits="userSpaceOnUse" x1="379.34" y1="93.52" x2="483.12" y2="36.34">
   <stop offset="0" style="stop-opacity:1; stop-color:aqua"/>
   <stop offset="0.160784" style="stop-opacity:1; stop-color:aqua"/>
   <stop offset="0.482353" style="stop-opacity:1; stop-color:#3A96E5"/>
   <stop offset="0.768627" style="stop-opacity:1; stop-color:#752DCB"/>
   <stop offset="0.776471" style="stop-opacity:1; stop-color:#752DCB"/>
   <stop offset="1" style="stop-opacity:1; stop-color:#752DCB"/>
  </linearGradient>
  <linearGradient id="id1" gradientUnits="userSpaceOnUse" x1="523.2" y1="27.14" x2="544.12" y2="5.09">
   <stop offset="0" style="stop-opacity:1; stop-color:#752DCB"/>
   <stop offset="0.129412" style="stop-opacity:1; stop-color:#752DCB"/>
   <stop offset="0.521569" style="stop-opacity:1; stop-color:#7B2DCB"/>
   <stop offset="0.878431" style="stop-opacity:1; stop-color:#822DCB"/>
   <stop offset="0.882353" style="stop-opacity:1; stop-color:#822DCB"/>
   <stop offset="1" style="stop-opacity:1; stop-color:#822DCB"/>
  </linearGradient>
  <linearGradient id="id2" gradientUnits="userSpaceOnUse" xlink:href="#id0" x1="379.27" y1="171.13" x2="532.6" y2="79.16">
  </linearGradient>
 </defs>
 <g id="Camada_x0020_1">
  <metadata id="CorelCorpID_0Corel-Layer"/>
  <path class="fil0" d="M15.95 195.47l9.52 0 0 -43.95 31.02 0c6.03,0 11.58,-1.22 16.61,-3.68 5.06,-2.47 9.36,-5.71 12.92,-9.8 3.59,-4.06 6.33,-8.71 8.33,-13.92 1.97,-5.24 2.93,-10.61 2.93,-16.17 0,-5.28 -1.06,-10.55 -3.12,-15.79 -2.09,-5.21 -4.99,-9.89 -8.68,-14.01 -3.72,-4.12 -8.11,-7.46 -13.2,-9.99 -5.12,-2.53 -10.67,-3.78 -16.73,-3.78l-55.56 0 0 115.11c0,8.83 7.15,15.98 15.95,15.98l0 0zm9.52 -108.77l28.43 0c2.22,0 4.4,0.5 6.55,1.4 2.15,0.94 4.03,2.31 5.65,4.15 1.59,1.84 2.87,4.09 3.87,6.74 0.97,2.65 1.47,5.62 1.47,8.96 0,6.52 -1.56,11.67 -4.71,15.51 -3.12,3.81 -7.02,5.71 -11.7,5.71l-29.56 0 0 -42.48z"/>
  <path class="fil0" d="M209.92 89.49c-2.15,-5.68 -5.3,-10.69 -9.42,-14.96 -4.12,-4.3 -9.1,-7.75 -14.96,-10.28 -5.89,-2.56 -12.51,-3.86 -19.96,-3.86 -7.42,0 -14.13,1.29 -20.11,3.86 -5.98,2.53 -11.07,6.01 -15.22,10.37 -4.21,4.33 -7.39,9.39 -9.6,15.13 -2.21,5.74 -3.3,11.87 -3.3,18.37 0,6.27 1.12,12.25 3.39,17.96 2.27,5.68 5.51,10.66 9.69,14.96 4.18,4.3 9.22,7.69 15.14,10.19 5.95,2.5 12.54,3.77 19.87,3.77 10.22,0 18.99,-2.24 26.38,-6.71 7.36,-4.48 12.72,-10.22 16.11,-17.17l-20.05 -5.59c-1.5,3.77 -4.33,6.74 -8.42,8.98 -4.12,2.27 -8.51,3.42 -13.16,3.42 -3,0 -5.92,-0.53 -8.72,-1.59 -2.77,-1.03 -5.27,-2.53 -7.48,-4.54 -2.21,-1.97 -4,-4.33 -5.42,-7.12 -1.38,-2.8 -3.24,-7.89 -3.24,-16.99 0,-9.69 1.29,-14.19 2.65,-16.96 1.32,-2.8 3.03,-5.18 5.12,-7.15 2.09,-1.97 4.51,-3.5 7.24,-4.59 2.71,-1.12 5.65,-1.68 8.8,-1.68 6.36,0 11.81,2.06 16.28,6.18 4.45,4.12 6.98,9.63 7.57,16.46l-23.88 0c-8.3,0 -15.05,6.74 -15.05,15.08l62.42 0c0.24,-0.94 0.38,-2 0.44,-3.39 0.06,-1.41 0.09,-2.86 0.09,-4.36 0,-6.18 -1.06,-12.1 -3.21,-17.79l0 0zm75.64 -28.74l-2.86 0c-2.44,0 -4.98,0.5 -7.57,1.5 -2.62,0.97 -5.21,2.38 -7.77,4.24 -2.53,1.85 -4.92,4.03 -7.12,6.54 -2.21,2.5 -4.12,5.3 -5.77,8.45l0 -4.45c0,-8.33 -6.71,-15.05 -15.05,-15.05l-6.36 0 0 91.25 8.27 0c8.33,0 15.08,-6.74 15.08,-15.05l0 -40.16c2.44,-5.21 6.45,-9.16 12.01,-11.75 2.47,-1.18 5.09,-2.09 7.86,-2.77 6.6,-1.59 11.1,-7.69 11.1,-14.49l0 -8.1c-0.56,-0.12 -1.18,-0.18 -1.83,-0.18l0 0zm58.62 -36.39c-9.42,0 -16.84,3.3 -22.29,9.92 -5.48,6.62 -8.19,15.6 -8.19,27l0 5.56 -3.24 0c-8.3,0 -15.05,6.74 -15.05,15.05l0 2.59 18.28 0 0 68.75 8.27 0c8.3,0 15.05,-6.74 15.05,-15.05l0 -53.56 7.24 0c8.33,0 15.05,-6.74 15.05,-15.07l0 -2.71 -22.29 0 0 -6.45c0,-10.89 4.06,-16.37 12.19,-16.37 7.04,1.83 14.25,-2.36 16.11,-9.39l1.32 -4.89c-7.57,-3.59 -15.05,-5.39 -22.47,-5.39l0 0z"/>
  <path class="fil0" d="M592.01 59.03l-2.86 0c-2.44,0 -4.98,0.5 -7.57,1.5 -2.62,0.97 -5.21,2.38 -7.77,4.24 -2.53,1.85 -4.92,4.03 -7.12,6.54 -2.21,2.5 -4.12,5.3 -5.77,8.45l0 -4.45c0,-8.33 -6.71,-15.05 -15.05,-15.05l-6.36 0 0 91.25 8.27 0c8.33,0 15.08,-6.74 15.08,-15.05l0 -40.16c2.44,-5.21 6.45,-9.16 12.01,-11.75 2.47,-1.18 5.09,-2.09 7.86,-2.77 6.6,-1.59 11.1,-7.69 11.1,-14.49l0 -8.1c-0.56,-0.12 -1.18,-0.18 -1.83,-0.18l0 0zm133.91 -1.21c-22.91,0 -30.18,13.25 -33.83,20.05 -3.39,-9.78 -10.89,-20.05 -27.65,-20.05 -20.73,0 -27.74,12.13 -31.09,18.05l0 -2.12c0,-8.33 -6.74,-15.08 -15.08,-15.08l-8.27 0 0 92.84 8.27 0c8.33,0 15.08,-6.74 15.08,-15.05l0 -38.25c0.79,-2.8 2.09,-5.33 3.83,-7.66 1.74,-2.32 3.65,-4.33 5.74,-6.01 2.09,-1.71 4.3,-3 6.62,-3.92 2.3,-0.94 4.54,-1.41 6.6,-1.41 4.89,0 8.66,1.71 11.34,5.15 2.68,3.42 4,8.72 4,15.93l0 51.21 8.27 0c8.33,0 15.08,-6.74 15.08,-15.05l0 -38.25c0.79,-2.8 2.09,-5.33 3.83,-7.66 1.74,-2.32 3.65,-4.33 5.74,-6.01 2.09,-1.71 4.3,-3 6.62,-3.92 2.3,-0.94 4.54,-1.41 6.63,-1.41 4.86,0 8.63,1.71 11.31,5.15 2.68,3.42 4,8.72 4,15.93l0 51.21 8.27 0c8.33,0 15.08,-6.74 15.08,-15.05l0 -41.9c0,-4.54 -0.71,-36.75 -30.39,-36.75l0 0z"/>
  <path class="fil0" d="M684.08 242.07c-41.05,0.39 -66.89,-29.52 -73.6,-51.71 -7.09,-17.56 18.97,-25.28 24.53,-9.26 10.16,24.89 28.56,32.99 46,34.35 18.21,2.51 42.74,-10.23 49.83,-32.41 3.63,-15.96 29.53,-14.48 25.72,6.72 -0.03,0.15 -0.06,0.29 -0.11,0.43 -7.18,22.16 -31.28,51.49 -72.38,51.88z"/>
  <path class="fil1" d="M757.3 185.38c0,7.35 -5.92,13.31 -13.23,13.31 -7.3,0 -13.22,-5.96 -13.22,-13.31 0,-7.35 5.92,-13.31 13.22,-13.31 7.3,0 13.23,5.96 13.23,13.31z"/>
  <path class="fil2" d="M416.04 41.44c-8.38,3.87 -14.17,8.72 -16.86,11.02l0 0c-4.12,3.52 -9.6,9.74 -14.09,18.42l0 0c-2.09,4.05 -4.46,12.3 -4.52,15.46l0 0c-0.07,3.29 -0.85,17.56 7.11,24.64l0 0c9.25,8.23 24.24,1 31.51,-3.67l0 0c3.22,-2.06 5.4,-3.28 8.18,-5.16l0 0c5.51,-3.74 9.21,-7.01 10.21,-7.87l0 0c4.61,-3.96 18.13,-14.69 53.17,-41.58l0 0c0.09,-0.07 0.19,-0.14 0.28,-0.21l0 0c0.28,-0.23 0.45,-0.36 0.55,-0.44l0 0c0.02,-0.02 0.11,-0.08 0.22,-0.17l0 0c0.13,-0.1 0.19,-0.15 0.2,-0.16l0 0c0.1,-0.2 -13.56,-11.42 -32.1,-15.32l0 0c-4.85,-1.02 -9.52,-1.43 -13.88,-1.43 -15.34,0 -26.96,5.07 -29.97,6.46l0 0z"/>
  <path class="fil3" d="M514.96 37.45c-5,5.67 -129.87,128.29 -135.67,134.3l0 0c25.38,-15.43 39.5,-24.47 47.87,-30.02l0 0c0.6,-0.4 1.56,-1.04 2.99,-1.97l0 0c12.51,-8.16 19.09,-13.81 29.82,-17.63l0 0c0.08,-0.03 0.16,-0.07 0.24,-0.1l0 0c23.09,-7.49 33.47,8.69 32.26,19.83l0 0c-2.36,21.74 -22.36,32.12 -20.74,31.5l0 0c6.52,-2.52 25.83,-11.26 37.93,-34l0 0c0,0 13.91,-23.35 4.79,-53.89l0 0c-3.33,-11.14 -9.75,-19.9 -11.57,-22.31l0 0c-0.22,-0.29 -0.13,-0.87 0.23,-1.76l0 0c1.64,-4.1 13.9,-21.74 12.05,-23.81l0 0c0,0 -0.06,-0.17 -0.14,-0.17l0 0c-0.02,0 -0.04,0.01 -0.06,0.03l0 0z"/>
  <path class="fil4" d="M529.88 0.24c-9.04,1.49 -15.32,9.62 -14.63,18.56l0 0c1.49,0.16 2.7,0.4 3.73,0.61l0 0c1.55,0.32 3.16,-0.03 4.44,-0.96l0 0c8.22,-6.02 12.54,-8.29 18.29,-8.9l0 0c0.15,-0.02 0.29,0.09 0.31,0.25l0 0c0.19,1.47 -2.1,8.18 -10.26,17.05l0 0c-1.13,1.23 -1.62,2.89 -1.37,4.54l0 0c0.17,1.1 0.25,2.29 0.28,3.48l0 0c1.6,0.19 3.26,0.16 4.93,-0.12l0 0c9.55,-1.57 16.02,-10.56 14.45,-20.09l0 0c-1.42,-8.56 -8.85,-14.64 -17.28,-14.64l0 0c-0.95,0 -1.91,0.08 -2.87,0.24l0 0z"/>
 </g>
</svg>
