<svg xmlns="http://www.w3.org/2000/svg" width="82" height="82" viewBox="0 0 760.12 760.12" xmlns:xlink="http://www.w3.org/1999/xlink" shape-rendering="geometricPrecision" text-rendering="geometricPrecision" image-rendering="optimizeQuality" fill-rule="evenodd" clip-rule="evenodd"><defs><linearGradient id="a" gradientUnits="userSpaceOnUse" x1="619.08" y1="571.4" x2="672.26" y2="571.4"><stop offset="0" stop-color="#6256a2"/><stop offset="1" stop-color="#64c9d9"/></linearGradient><linearGradient id="v" gradientUnits="userSpaceOnUse" xlink:href="#a" x1="41.53" y1="367.62" x2="387.04" y2="367.62"/><linearGradient id="n" gradientUnits="userSpaceOnUse" xlink:href="#a" x1="91.33" y1="571.76" x2="131.97" y2="571.76"/><linearGradient id="d" gradientUnits="userSpaceOnUse" xlink:href="#a" x1="254.29" y1="522.2" x2="305.42" y2="522.2"/><linearGradient id="p" gradientUnits="userSpaceOnUse" xlink:href="#a" x1="232.01" y1="607.05" x2="247.55" y2="607.05"/><linearGradient id="t" gradientUnits="userSpaceOnUse" xlink:href="#a" x1="279.85" y1="166.33" x2="295.39" y2="166.33"/><linearGradient id="r" gradientUnits="userSpaceOnUse" xlink:href="#a" x1="600.03" y1="364.33" x2="615.56" y2="364.33"/><linearGradient id="g" gradientUnits="userSpaceOnUse" xlink:href="#a" x1="429.53" y1="225.34" x2="498.86" y2="225.34"/><linearGradient id="i" gradientUnits="userSpaceOnUse" xlink:href="#a" x1="76.45" y1="184.74" x2="129.63" y2="184.74"/><linearGradient id="l" gradientUnits="userSpaceOnUse" xlink:href="#a" x1="587.48" y1="166.7" x2="628.11" y2="166.7"/><linearGradient id="x" gradientUnits="userSpaceOnUse" xlink:href="#a" x1="340.08" y1="455.05" x2="717.25" y2="455.05"/><linearGradient id="F" gradientUnits="userSpaceOnUse" xlink:href="#a" x1="309.84" y1="329.9" x2="388" y2="329.9"/><linearGradient id="z" gradientUnits="userSpaceOnUse" xlink:href="#a" x1="536.16" y1="275.43" x2="679.39" y2="275.43"/><linearGradient id="e" gradientUnits="userSpaceOnUse" xlink:href="#a" x1="679.47" y1="337.37" x2="718.6" y2="337.37"/><linearGradient id="D" gradientUnits="userSpaceOnUse" xlink:href="#a" x1="355.16" y1="360.84" x2="412.56" y2="360.84"/><linearGradient id="B" gradientUnits="userSpaceOnUse" xlink:href="#a" x1="142.09" y1="382.69" x2="620.12" y2="382.69"/><linearGradient id="b" gradientUnits="userSpaceOnUse" x1="34.43" y1="522.2" x2="718.27" y2="522.2"><stop offset="0" stop-color="#6256a2"/><stop offset=".18" stop-color="#6256a2"/><stop offset=".89" stop-color="#64c9d9"/><stop offset="1" stop-color="#64c9d9"/></linearGradient><linearGradient id="E" gradientUnits="userSpaceOnUse" xlink:href="#b" x1="40.24" y1="360.84" x2="711.69" y2="360.84"/><linearGradient id="k" gradientUnits="userSpaceOnUse" xlink:href="#b" x1="34.41" y1="571.4" x2="718.28" y2="571.4"/><linearGradient id="C" gradientUnits="userSpaceOnUse" xlink:href="#b" x1="36.5" y1="382.69" x2="716.67" y2="382.69"/><linearGradient id="h" gradientUnits="userSpaceOnUse" xlink:href="#b" x1="34.42" y1="225.34" x2="718.28" y2="225.34"/><linearGradient id="f" gradientUnits="userSpaceOnUse" xlink:href="#b" x1="34.43" y1="337.37" x2="718.27" y2="337.37"/><linearGradient id="w" gradientUnits="userSpaceOnUse" xlink:href="#b" x1="34.43" y1="367.62" x2="718.28" y2="367.62"/><linearGradient id="y" gradientUnits="userSpaceOnUse" xlink:href="#b" x1="34.75" y1="455.05" x2="718.28" y2="455.05"/><linearGradient id="u" gradientUnits="userSpaceOnUse" xlink:href="#b" x1="34.41" y1="166.33" x2="718.3" y2="166.33"/><linearGradient id="j" gradientUnits="userSpaceOnUse" xlink:href="#b" x1="34.42" y1="184.74" x2="718.27" y2="184.74"/><linearGradient id="o" gradientUnits="userSpaceOnUse" xlink:href="#b" x1="37.07" y1="571.76" x2="697.47" y2="571.76"/><linearGradient id="G" gradientUnits="userSpaceOnUse" xlink:href="#b" x1="40.73" y1="329.9" x2="711.49" y2="329.9"/><linearGradient id="A" gradientUnits="userSpaceOnUse" xlink:href="#b" x1="41.03" y1="275.43" x2="716.99" y2="275.43"/><linearGradient id="c" gradientUnits="userSpaceOnUse" xlink:href="#a" x1="679.42" y1="337.37" x2="718.6" y2="337.37"/><linearGradient id="s" gradientUnits="userSpaceOnUse" xlink:href="#b" x1="34.39" y1="364.33" x2="718.28" y2="364.33"/><linearGradient id="q" gradientUnits="userSpaceOnUse" xlink:href="#b" x1="34.42" y1="607.05" x2="718.3" y2="607.05"/><linearGradient id="m" gradientUnits="userSpaceOnUse" xlink:href="#b" x1="54.05" y1="166.7" x2="714.49" y2="166.7"/></defs><path d="M500.57 0H259.55C116.2 0 0 116.21 0 259.55v241.02c0 143.35 116.21 259.55 259.55 259.55h241.02c143.35 0 259.55-116.21 259.55-259.55V259.55C760.12 116.2 643.91 0 500.57 0z" fill="#000036" fill-rule="nonzero"/><path d="M718.59 337.37c0-1.17-.12-2.31-.32-3.43v6.85c.2-1.11.32-2.26.32-3.43z" fill="url(#c)"/><path d="M279.85 532.47c-5.66 0-10.27-4.61-10.27-10.27 0-5.66 4.61-10.26 10.27-10.26 5.67 0 10.27 4.6 10.27 10.26 0 5.67-4.6 10.27-10.27 10.27zm0-35.83c-14.09 0-25.57 11.47-25.57 25.56 0 14.1 11.47 25.57 25.57 25.57s25.57-11.47 25.57-25.57c0-14.09-11.47-25.56-25.57-25.56z" fill="url(#d)"/><path d="M279.85 532.47c-5.66 0-10.27-4.61-10.27-10.27 0-5.66 4.61-10.26 10.27-10.26 5.67 0 10.27 4.6 10.27 10.26 0 5.67-4.6 10.27-10.27 10.27zm0-35.83c-14.09 0-25.57 11.47-25.57 25.56 0 14.1 11.47 25.57 25.57 25.57s25.57-11.47 25.57-25.57c0-14.09-11.47-25.56-25.57-25.56z" fill="url(#b)"/><path d="M699.03 341.64c-2.35 0-4.27-1.91-4.27-4.27 0-2.34 1.91-4.26 4.27-4.26a4.27 4.27 0 014.26 4.26c0 2.35-1.91 4.27-4.26 4.27zm0-23.82c-10.79 0-19.56 8.77-19.56 19.56s8.78 19.56 19.56 19.56c9.62 0 17.61-6.98 19.24-16.14v-6.85c-1.63-9.15-9.62-16.13-19.24-16.13z" fill="url(#e)"/><path d="M699.03 341.64c-2.35 0-4.27-1.91-4.27-4.27 0-2.34 1.91-4.26 4.27-4.26a4.27 4.27 0 014.26 4.26c0 2.35-1.91 4.27-4.26 4.27zm0-23.82c-10.79 0-19.56 8.77-19.56 19.56s8.78 19.56 19.56 19.56c9.62 0 17.61-6.98 19.24-16.14v-6.85c-1.63-9.15-9.62-16.13-19.24-16.13z" fill="url(#f)"/><path d="M464.19 205.98c10.68 0 19.36 8.69 19.36 19.36 0 10.68-8.69 19.36-19.36 19.36-10.68 0-19.36-8.69-19.36-19.36 0-10.68 8.69-19.36 19.36-19.36zm0 54.02c19.12 0 34.66-15.55 34.66-34.66 0-19.12-15.55-34.66-34.66-34.66-19.11 0-34.66 15.55-34.66 34.66 0 19.12 15.55 34.66 34.66 34.66z" fill="url(#g)"/><path d="M464.19 205.98c10.68 0 19.36 8.69 19.36 19.36 0 10.68-8.69 19.36-19.36 19.36-10.68 0-19.36-8.69-19.36-19.36 0-10.68 8.69-19.36 19.36-19.36zm0 54.02c19.12 0 34.66-15.55 34.66-34.66 0-19.12-15.55-34.66-34.66-34.66-19.11 0-34.66 15.55-34.66 34.66 0 19.12 15.55 34.66 34.66 34.66z" fill="url(#h)"/><path d="M84.11 192.39H95.4v11.29c0 4.23 3.42 7.65 7.65 7.65s7.65-3.42 7.65-7.65v-11.29h11.29c4.23 0 7.65-3.42 7.65-7.65a7.65 7.65 0 00-7.65-7.65H110.7V165.8c0-4.23-3.42-7.65-7.65-7.65s-7.65 3.42-7.65 7.65v11.29H84.11c-4.23 0-7.65 3.42-7.65 7.65s3.42 7.65 7.65 7.65z" fill="url(#i)"/><path d="M84.11 192.39H95.4v11.29c0 4.23 3.42 7.65 7.65 7.65s7.65-3.42 7.65-7.65v-11.29h11.29c4.23 0 7.65-3.42 7.65-7.65a7.65 7.65 0 00-7.65-7.65H110.7V165.8c0-4.23-3.42-7.65-7.65-7.65s-7.65 3.42-7.65 7.65v11.29H84.11c-4.23 0-7.65 3.42-7.65 7.65s3.42 7.65 7.65 7.65z" fill="url(#j)"/><path d="M664.6 563.75h-11.28v-11.29a7.65 7.65 0 00-7.65-7.65c-4.23 0-7.65 3.42-7.65 7.65v11.29h-11.29c-4.23 0-7.65 3.42-7.65 7.65s3.42 7.65 7.65 7.65h11.29v11.29a7.65 7.65 0 1015.3 0v-11.29h11.28c4.23 0 7.65-3.42 7.65-7.65a7.65 7.65 0 00-7.65-7.65z" fill="url(#a)"/><path d="M664.6 563.75h-11.28v-11.29a7.65 7.65 0 00-7.65-7.65c-4.23 0-7.65 3.42-7.65 7.65v11.29h-11.29c-4.23 0-7.65 3.42-7.65 7.65s3.42 7.65 7.65 7.65h11.29v11.29a7.65 7.65 0 1015.3 0v-11.29h11.28c4.23 0 7.65-3.42 7.65-7.65a7.65 7.65 0 00-7.65-7.65z" fill="url(#k)"/><path d="M588.99 185.14a7.65 7.65 0 0010.82 0l7.98-7.98 7.98 7.98a7.65 7.65 0 0010.82 0 7.647 7.647 0 000-10.82l-7.98-7.98 7.98-7.98a7.647 7.647 0 000-10.82 7.647 7.647 0 00-10.82 0l-7.98 7.98-7.98-7.98a7.647 7.647 0 00-10.82 0 7.647 7.647 0 000 10.82l7.98 7.98-7.98 7.98a7.647 7.647 0 000 10.82z" fill="url(#l)"/><path d="M588.99 185.14a7.65 7.65 0 0010.82 0l7.98-7.98 7.98 7.98a7.65 7.65 0 0010.82 0 7.647 7.647 0 000-10.82l-7.98-7.98 7.98-7.98a7.647 7.647 0 000-10.82 7.647 7.647 0 00-10.82 0l-7.98 7.98-7.98-7.98a7.647 7.647 0 00-10.82 0 7.647 7.647 0 000 10.82l7.98 7.98-7.98 7.98a7.647 7.647 0 000 10.82z" fill="url(#m)"/><path d="M130.45 552.6a7.647 7.647 0 00-10.82 0l-7.98 7.98-7.98-7.98a7.647 7.647 0 00-10.82 0 7.647 7.647 0 000 10.82l7.98 7.98-7.98 7.98a7.647 7.647 0 000 10.82 7.59 7.59 0 005.41 2.24c1.96 0 3.92-.75 5.41-2.24l7.98-7.98 7.98 7.98a7.59 7.59 0 005.41 2.24c1.96 0 3.92-.75 5.41-2.24a7.647 7.647 0 000-10.82l-7.98-7.98 7.98-7.98a7.647 7.647 0 000-10.82z" fill="url(#n)"/><path d="M130.45 552.6a7.647 7.647 0 00-10.82 0l-7.98 7.98-7.98-7.98a7.647 7.647 0 00-10.82 0 7.647 7.647 0 000 10.82l7.98 7.98-7.98 7.98a7.647 7.647 0 000 10.82 7.59 7.59 0 005.41 2.24c1.96 0 3.92-.75 5.41-2.24l7.98-7.98 7.98 7.98a7.59 7.59 0 005.41 2.24c1.96 0 3.92-.75 5.41-2.24a7.647 7.647 0 000-10.82l-7.98-7.98 7.98-7.98a7.647 7.647 0 000-10.82z" fill="url(#o)"/><path d="M239.78 599.28c-4.29 0-7.77 3.48-7.77 7.77 0 4.29 3.48 7.77 7.77 7.77 4.29 0 7.77-3.48 7.77-7.77 0-4.29-3.48-7.77-7.77-7.77z" fill="url(#p)"/><path d="M239.78 599.28c-4.29 0-7.77 3.48-7.77 7.77 0 4.29 3.48 7.77 7.77 7.77 4.29 0 7.77-3.48 7.77-7.77 0-4.29-3.48-7.77-7.77-7.77z" fill="url(#q)"/><path d="M600.02 364.33c0 4.29 3.48 7.77 7.77 7.77 4.29 0 7.77-3.48 7.77-7.77 0-4.29-3.48-7.77-7.77-7.77-4.29 0-7.77 3.48-7.77 7.77z" fill="url(#r)"/><path d="M600.02 364.33c0 4.29 3.48 7.77 7.77 7.77 4.29 0 7.77-3.48 7.77-7.77 0-4.29-3.48-7.77-7.77-7.77-4.29 0-7.77 3.48-7.77 7.77z" fill="url(#s)"/><path d="M287.62 174.11c4.29 0 7.77-3.48 7.77-7.77 0-4.29-3.48-7.77-7.77-7.77-4.29 0-7.77 3.48-7.77 7.77 0 4.29 3.48 7.77 7.77 7.77z" fill="url(#t)"/><path d="M287.62 174.11c4.29 0 7.77-3.48 7.77-7.77 0-4.29-3.48-7.77-7.77-7.77-4.29 0-7.77 3.48-7.77 7.77 0 4.29 3.48 7.77 7.77 7.77z" fill="url(#u)"/><path d="M217.76 504.68C118.5 478.12 56.83 429.49 56.83 377.76c0-81.02 144.7-146.93 322.56-146.93 4.23 0 7.65-3.42 7.65-7.65s-3.42-7.65-7.65-7.65c-189.45 0-337.86 71.26-337.86 162.23 0 59.87 64.4 112.84 172.28 141.7.66.18 1.33.26 1.98.26 3.38 0 6.47-2.26 7.38-5.67a7.626 7.626 0 00-5.41-9.36z" fill="url(#v)"/><path d="M217.76 504.68C118.5 478.12 56.83 429.49 56.83 377.76c0-81.02 144.7-146.93 322.56-146.93 4.23 0 7.65-3.42 7.65-7.65s-3.42-7.65-7.65-7.65c-189.45 0-337.86 71.26-337.86 162.23 0 59.87 64.4 112.84 172.28 141.7.66.18 1.33.26 1.98.26 3.38 0 6.47-2.26 7.38-5.67a7.626 7.626 0 00-5.41-9.36z" fill="url(#w)"/><path d="M709.6 370.11c-4.23 0-7.65 3.42-7.65 7.65 0 81.02-144.7 146.93-322.56 146.93-10.47 0-21.07-.23-31.5-.69-3.94-.16-7.79 3.08-7.98 7.3-.19 4.22 3.09 7.79 7.31 7.98 10.65.47 21.48.71 32.18.71 189.46 0 337.86-71.26 337.86-162.23a7.65 7.65 0 00-7.65-7.65z" fill="url(#x)"/><path d="M709.6 370.11c-4.23 0-7.65 3.42-7.65 7.65 0 81.02-144.7 146.93-322.56 146.93-10.47 0-21.07-.23-31.5-.69-3.94-.16-7.79 3.08-7.98 7.3-.19 4.22 3.09 7.79 7.31 7.98 10.65.47 21.48.71 32.18.71 189.46 0 337.86-71.26 337.86-162.23a7.65 7.65 0 00-7.65-7.65z" fill="url(#y)"/><path d="M541.02 250.84c54.22 14.52 97.96 35.75 126.45 61.44a7.672 7.672 0 005.12 1.97c2.09 0 4.18-.85 5.68-2.53a7.642 7.642 0 00-.56-10.8c-30.28-27.29-76.18-49.7-132.74-64.84a7.614 7.614 0 00-9.36 5.41c-1.09 4.09 1.33 8.28 5.41 9.36z" fill="url(#z)"/><path d="M541.02 250.84c54.22 14.52 97.96 35.75 126.45 61.44a7.672 7.672 0 005.12 1.97c2.09 0 4.18-.85 5.68-2.53a7.642 7.642 0 00-.56-10.8c-30.28-27.29-76.18-49.7-132.74-64.84a7.614 7.614 0 00-9.36 5.41c-1.09 4.09 1.33 8.28 5.41 9.36z" fill="url(#A)"/><path d="M206.56 299.89c-44.09 23.13-67.49 52.76-65.9 83.45 1.59 30.68 27.93 57.74 74.18 76.18 48.42 19.31 108.98 28.69 170.94 28.69 83.36 0 169.22-16.97 231.31-49.55a7.65 7.65 0 003.23-10.33 7.675 7.675 0 00-10.33-3.22c-104.82 54.99-279.54 64.04-389.48 20.21-39.79-15.87-63.32-38.75-64.57-62.77-1.25-24.02 19.79-49.2 57.72-69.11 66.48-34.85 177.27-40.6 246.97-12.8 24.42 9.74 38.85 23.49 39.59 37.75.74 14.25-12.19 29.43-35.47 41.65-41.91 22-111.79 25.61-155.76 8.08-3.93-1.58-8.38.35-9.94 4.27a7.66 7.66 0 004.27 9.94c47.58 18.97 123.19 15.05 168.53-8.74 29.22-15.34 44.73-35.21 43.65-55.99-1.08-20.78-18.55-38.94-49.2-51.17-73.32-29.25-189.83-23.2-259.75 13.46z" fill="url(#B)"/><path d="M206.56 299.89c-44.09 23.13-67.49 52.76-65.9 83.45 1.59 30.68 27.93 57.74 74.18 76.18 48.42 19.31 108.98 28.69 170.94 28.69 83.36 0 169.22-16.97 231.31-49.55a7.65 7.65 0 003.23-10.33 7.675 7.675 0 00-10.33-3.22c-104.82 54.99-279.54 64.04-389.48 20.21-39.79-15.87-63.32-38.75-64.57-62.77-1.25-24.02 19.79-49.2 57.72-69.11 66.48-34.85 177.27-40.6 246.97-12.8 24.42 9.74 38.85 23.49 39.59 37.75.74 14.25-12.19 29.43-35.47 41.65-41.91 22-111.79 25.61-155.76 8.08-3.93-1.58-8.38.35-9.94 4.27a7.66 7.66 0 004.27 9.94c47.58 18.97 123.19 15.05 168.53-8.74 29.22-15.34 44.73-35.21 43.65-55.99-1.08-20.78-18.55-38.94-49.2-51.17-73.32-29.25-189.83-23.2-259.75 13.46z" fill="url(#C)"/><path d="M355.16 364.34c0 4.23 3.42 7.65 7.65 7.65 18.37 0 35.34-3.22 46.58-8.84 3.78-1.89 5.31-6.49 3.42-10.27-1.88-3.77-6.48-5.3-10.27-3.42-9.05 4.52-23.9 7.22-39.74 7.22-4.23 0-7.65 3.42-7.65 7.65z" fill="url(#D)"/><path d="M355.16 364.34c0 4.23 3.42 7.65 7.65 7.65 18.37 0 35.34-3.22 46.58-8.84 3.78-1.89 5.31-6.49 3.42-10.27-1.88-3.77-6.48-5.3-10.27-3.42-9.05 4.52-23.9 7.22-39.74 7.22-4.23 0-7.65 3.42-7.65 7.65z" fill="url(#E)"/><path d="M381.82 318.55c-6.06-.8-12.46-1.2-19-1.2-20.73 0-39.6 4.12-50.47 11.02-3.57 2.26-4.62 6.99-2.36 10.56a7.64 7.64 0 006.46 3.55c1.4 0 2.82-.38 4.09-1.19 8.27-5.25 24.87-8.64 42.28-8.64 5.88 0 11.6.36 17.01 1.07 4.16.53 8.03-2.4 8.58-6.59.55-4.18-2.4-8.03-6.59-8.58z" fill="url(#F)"/><path d="M381.82 318.55c-6.06-.8-12.46-1.2-19-1.2-20.73 0-39.6 4.12-50.47 11.02-3.57 2.26-4.62 6.99-2.36 10.56a7.64 7.64 0 006.46 3.55c1.4 0 2.82-.38 4.09-1.19 8.27-5.25 24.87-8.64 42.28-8.64 5.88 0 11.6.36 17.01 1.07 4.16.53 8.03-2.4 8.58-6.59.55-4.18-2.4-8.03-6.59-8.58z" fill="url(#G)"/></svg>