<svg xmlns="http://www.w3.org/2000/svg" width="82" height="82" viewBox="0 0 68.55 68.55" xmlns:xlink="http://www.w3.org/1999/xlink" shape-rendering="geometricPrecision" text-rendering="geometricPrecision" image-rendering="optimizeQuality" fill-rule="evenodd" clip-rule="evenodd"><defs><linearGradient id="a" gradientUnits="userSpaceOnUse" x1="13.81" y1="21.51" x2="16.3" y2="21.51"><stop offset="0" stop-color="#6256a2"/><stop offset="1" stop-color="#61c7cd"/></linearGradient><linearGradient id="s" gradientUnits="userSpaceOnUse" xlink:href="#a" x1="33.54" y1="44.71" x2="38.47" y2="44.71"/><linearGradient id="q" gradientUnits="userSpaceOnUse" xlink:href="#a" x1="41.28" y1="47.36" x2="56.65" y2="47.36"/><linearGradient id="m" gradientUnits="userSpaceOnUse" xlink:href="#a" x1="18.35" y1="34.62" x2="36.48" y2="34.62"/><linearGradient id="o" gradientUnits="userSpaceOnUse" xlink:href="#a" x1="39.61" y1="40.17" x2="52.72" y2="40.17"/><linearGradient id="w" gradientUnits="userSpaceOnUse" xlink:href="#a" x1="36.66" y1="16.38" x2="38.76" y2="16.38"/><linearGradient id="C" gradientUnits="userSpaceOnUse" xlink:href="#a" x1="42.79" y1="18.22" x2="52.64" y2="18.22"/><linearGradient id="i" gradientUnits="userSpaceOnUse" xlink:href="#a" x1="23.92" y1="20.17" x2="30.9" y2="20.17"/><linearGradient id="y" gradientUnits="userSpaceOnUse" xlink:href="#a" x1="51.01" y1="38.34" x2="53.49" y2="38.34"/><linearGradient id="k" gradientUnits="userSpaceOnUse" xlink:href="#a" x1="23.92" y1="29.64" x2="30.9" y2="29.64"/><linearGradient id="A" gradientUnits="userSpaceOnUse" xlink:href="#a" x1="13.63" y1="42.39" x2="16.12" y2="42.39"/><linearGradient id="u" gradientUnits="userSpaceOnUse" xlink:href="#a" x1="11.97" y1="47.87" x2="21.16" y2="47.87"/><linearGradient id="b" gradientUnits="userSpaceOnUse" x1="-8.03" y1="21.51" x2="81.83" y2="21.51"><stop offset="0" stop-color="#6256a2"/><stop offset=".271" stop-color="#6256a2"/><stop offset=".651" stop-color="#64c9d9"/><stop offset="1" stop-color="#64c9d9"/></linearGradient><linearGradient id="t" gradientUnits="userSpaceOnUse" xlink:href="#b" x1="-8.65" y1="44.71" x2="83.98" y2="44.71"/><linearGradient id="x" gradientUnits="userSpaceOnUse" xlink:href="#b" x1="-6.97" y1="16.38" x2="82.33" y2="16.38"/><linearGradient id="D" gradientUnits="userSpaceOnUse" xlink:href="#b" x1="-8.01" y1="18.22" x2="83.67" y2="18.22"/><linearGradient id="c" gradientUnits="userSpaceOnUse" xlink:href="#a" x1="18.35" y1="54.71" x2="36.48" y2="54.71"/><linearGradient id="d" gradientUnits="userSpaceOnUse" xlink:href="#a" x1="18.35" y1="54.71" x2="36.48" y2="54.71"/><linearGradient id="f" gradientUnits="userSpaceOnUse" xlink:href="#a" x1="45.26" y1="49.45" x2="56.64" y2="49.45"/><linearGradient id="n" gradientUnits="userSpaceOnUse" xlink:href="#b" x1="-8.85" y1="34.62" x2="84.21" y2="34.62"/><linearGradient id="v" gradientUnits="userSpaceOnUse" xlink:href="#b" x1="-8.52" y1="47.87" x2="83.37" y2="47.87"/><linearGradient id="j" gradientUnits="userSpaceOnUse" xlink:href="#b" x1="-8.85" y1="20.17" x2="84.21" y2="20.17"/><linearGradient id="z" gradientUnits="userSpaceOnUse" xlink:href="#b" x1="-6.74" y1="38.34" x2="83.11" y2="38.34"/><linearGradient id="e" gradientUnits="userSpaceOnUse" xlink:href="#a" x1="39.61" y1="54.71" x2="52.72" y2="54.71"/><linearGradient id="r" gradientUnits="userSpaceOnUse" xlink:href="#b" x1="-8.7" y1="47.36" x2="84.15" y2="47.36"/><linearGradient id="g" gradientUnits="userSpaceOnUse" xlink:href="#b" x1="-5.8" y1="19.51" x2="81.87" y2="19.51"/><linearGradient id="p" gradientUnits="userSpaceOnUse" xlink:href="#b" x1="-8.85" y1="40.17" x2="84.21" y2="40.17"/><linearGradient id="l" gradientUnits="userSpaceOnUse" xlink:href="#b" x1="-8.85" y1="29.64" x2="84.21" y2="29.64"/><linearGradient id="h" gradientUnits="userSpaceOnUse" xlink:href="#b" x1="-5.8" y1="16.57" x2="82.56" y2="16.57"/><linearGradient id="B" gradientUnits="userSpaceOnUse" xlink:href="#b" x1="-8.03" y1="42.39" x2="81.82" y2="42.39"/></defs><path d="M45.14 0H23.4C10.47 0-.01 10.48-.01 23.41v21.74c0 12.93 10.48 23.41 23.41 23.41h21.74c12.93 0 23.41-10.48 23.41-23.41V23.41C68.55 10.48 58.07 0 45.14 0z" fill="#000036" fill-rule="nonzero"/><path d="M19.86 54.74h6.66c.1 0 .18-.03.26-.08h-7.36c.14.05.28.08.44.08z" fill="url(#c)"/><path d="M28.22 54.74h6.66c.15 0 .3-.03.44-.08h-7.36c.07.05.16.08.26.08z" fill="url(#d)"/><path d="M40.08 54.74c.1 0 .18-.03.26-.08h-.52c.07.05.16.08.26.08z" fill="url(#e)"/><path d="M56.62 49.32v.27c.03-.09.03-.18 0-.27z" fill="url(#f)"/><path d="M43.69 19.34c-.03.08-.04.16-.02.2.02.05.07.1.15.15-.02-.06-.05-.12-.07-.18-.02-.06-.04-.12-.05-.17z" fill="url(#g)"/><path d="M51.61 16.39c.02.06.05.12.08.18l.06.18c.03-.09.04-.16.02-.21a.331.331 0 00-.16-.15z" fill="url(#h)"/><path d="M27.41 18.03c1.69 0 2.55.59 2.55 1.75 0 1.39-1.15 2.52-2.55 2.52-1.41 0-2.55-1.13-2.55-2.52 0-1.16.86-1.75 2.55-1.75zm0 5.21c1.92 0 3.49-1.55 3.49-3.46 0-1.71-1.27-2.69-3.49-2.69s-3.49.98-3.49 2.69c0 1.91 1.57 3.46 3.49 3.46z" fill="url(#i)"/><path d="M27.41 18.03c1.69 0 2.55.59 2.55 1.75 0 1.39-1.15 2.52-2.55 2.52-1.41 0-2.55-1.13-2.55-2.52 0-1.16.86-1.75 2.55-1.75zm0 5.21c1.92 0 3.49-1.55 3.49-3.46 0-1.71-1.27-2.69-3.49-2.69s-3.49.98-3.49 2.69c0 1.91 1.57 3.46 3.49 3.46z" fill="url(#j)"/><path d="M29.97 31.04c0 .16-.13.28-.28.28h-4.54a.28.28 0 01-.28-.28v-2.81c0-.16.13-.28.28-.28h4.54c.16 0 .28.13.28.28v2.81zm.94 0v-2.81c0-.67-.55-1.22-1.22-1.22h-4.54c-.67 0-1.22.55-1.22 1.22v2.81c0 .67.55 1.22 1.22 1.22h4.54c.67 0 1.22-.55 1.22-1.22z" fill="url(#k)"/><path d="M29.97 31.04c0 .16-.13.28-.28.28h-4.54a.28.28 0 01-.28-.28v-2.81c0-.16.13-.28.28-.28h4.54c.16 0 .28.13.28.28v2.81zm.94 0v-2.81c0-.67-.55-1.22-1.22-1.22h-4.54c-.67 0-1.22.55-1.22 1.22v2.81c0 .67.55 1.22 1.22 1.22h4.54c.67 0 1.22-.55 1.22-1.22z" fill="url(#l)"/><path d="M34.88 53.81h-6.19v-2.36h.9a.47.47 0 100-.94h-.9v-6.48c0-.72-.59-1.31-1.32-1.31-.73 0-1.32.59-1.32 1.31v6.48h-.9a.47.47 0 100 .94h.9v2.36h-6.19c-.19 0-.35-.15-.35-.34 0-1.11.92-2.02 2.05-2.02.79 0 1.52.31 2.07.87.09.09.21.14.34.14.12 0 .24-.04.33-.13.19-.18.19-.48.01-.66-.45-.46-1-.8-1.6-.98V30.24a.47.47 0 10-.94 0v7.28H19.3v-8c0-2.74 1.7-5.25 4.25-6.3a5.247 5.247 0 003.88 1.72c1.54 0 2.92-.67 3.88-1.72 1.49.62 2.69 1.72 3.43 3.09h-1.08a.47.47 0 00-.47.47v1.77c0 .26.21.47.47.47h1.88c.01.17.02.34.02.51v8h-2.47V30.2a.47.47 0 10-.94 0v20.48c-.63.18-1.21.52-1.69 1-.18.19-.18.48.01.66.09.09.21.13.33.13.12 0 .24-.05.34-.14.55-.56 1.28-.87 2.07-.87 1.13 0 2.05.91 2.05 2.02 0 .19-.16.34-.35.34zM20.63 39.84h-.22c-.62 0-1.13-.51-1.13-1.13v-.27h2.47v.27c0 .62-.51 1.13-1.13 1.13zm.27-20.27c0-.47.39-.85.86-.85h.53a5.058 5.058 0 00.66 3.73c-.76.34-1.46.8-2.06 1.35v-4.22zm6.51-4.05c2.37 0 4.29 1.9 4.29 4.24 0 2.34-1.92 4.24-4.29 4.24-2.36 0-4.29-1.9-4.29-4.24 0-2.34 1.92-4.24 4.29-4.24zm5.23 4.24c0-.35-.04-.7-.11-1.04h.44c.48 0 .86.38.86.85v4.15c-.58-.51-1.24-.95-1.97-1.27.48-.78.77-1.7.77-2.69zm2.5 7.49c.1.27.18.55.24.83h-1.27v-.83h1.03zm.4 11.47c0 .62-.51 1.13-1.13 1.13h-.22c-.62 0-1.13-.51-1.13-1.13v-.27h2.47v.27zm.63 14.76c0-1.63-1.34-2.96-2.98-2.96-.04 0-.08 0-.12.01V40.45c.32.21.71.34 1.13.34h.22c1.14 0 2.06-.93 2.06-2.07v-9.2c0-1.78-.63-3.47-1.7-4.82v-5.13c0-.99-.81-1.79-1.8-1.79h-.73a5.23 5.23 0 00-4.83-3.2c-2.18 0-4.04 1.33-4.83 3.2h-.45v-1.93a.47.47 0 10-.94 0v2.03c-.72.24-1.24.9-1.24 1.69v5.17c0 .02.01.04.01.06a7.706 7.706 0 00-1.63 4.71v9.2c0 1.14.93 2.07 2.07 2.07h.22c.42 0 .8-.13 1.13-.34v10.08c-.07 0-.13-.01-.2-.01-1.65 0-2.99 1.33-2.99 2.96 0 .55.36 1.02.85 1.2h7.36c.13-.08.21-.23.21-.39V44.04c0-.2.17-.37.38-.37s.38.17.38.37v10.24c0 .16.08.31.21.39h7.36c.5-.18.85-.65.85-1.2z" fill="url(#m)"/><path d="M34.88 53.81h-6.19v-2.36h.9a.47.47 0 100-.94h-.9v-6.48c0-.72-.59-1.31-1.32-1.31-.73 0-1.32.59-1.32 1.31v6.48h-.9a.47.47 0 100 .94h.9v2.36h-6.19c-.19 0-.35-.15-.35-.34 0-1.11.92-2.02 2.05-2.02.79 0 1.52.31 2.07.87.09.09.21.14.34.14.12 0 .24-.04.33-.13.19-.18.19-.48.01-.66-.45-.46-1-.8-1.6-.98V30.24a.47.47 0 10-.94 0v7.28H19.3v-8c0-2.74 1.7-5.25 4.25-6.3a5.247 5.247 0 003.88 1.72c1.54 0 2.92-.67 3.88-1.72 1.49.62 2.69 1.72 3.43 3.09h-1.08a.47.47 0 00-.47.47v1.77c0 .26.21.47.47.47h1.88c.01.17.02.34.02.51v8h-2.47V30.2a.47.47 0 10-.94 0v20.48c-.63.18-1.21.52-1.69 1-.18.19-.18.48.01.66.09.09.21.13.33.13.12 0 .24-.05.34-.14.55-.56 1.28-.87 2.07-.87 1.13 0 2.05.91 2.05 2.02 0 .19-.16.34-.35.34zM20.63 39.84h-.22c-.62 0-1.13-.51-1.13-1.13v-.27h2.47v.27c0 .62-.51 1.13-1.13 1.13zm.27-20.27c0-.47.39-.85.86-.85h.53a5.058 5.058 0 00.66 3.73c-.76.34-1.46.8-2.06 1.35v-4.22zm6.51-4.05c2.37 0 4.29 1.9 4.29 4.24 0 2.34-1.92 4.24-4.29 4.24-2.36 0-4.29-1.9-4.29-4.24 0-2.34 1.92-4.24 4.29-4.24zm5.23 4.24c0-.35-.04-.7-.11-1.04h.44c.48 0 .86.38.86.85v4.15c-.58-.51-1.24-.95-1.97-1.27.48-.78.77-1.7.77-2.69zm2.5 7.49c.1.27.18.55.24.83h-1.27v-.83h1.03zm.4 11.47c0 .62-.51 1.13-1.13 1.13h-.22c-.62 0-1.13-.51-1.13-1.13v-.27h2.47v.27zm.63 14.76c0-1.63-1.34-2.96-2.98-2.96-.04 0-.08 0-.12.01V40.45c.32.21.71.34 1.13.34h.22c1.14 0 2.06-.93 2.06-2.07v-9.2c0-1.78-.63-3.47-1.7-4.82v-5.13c0-.99-.81-1.79-1.8-1.79h-.73a5.23 5.23 0 00-4.83-3.2c-2.18 0-4.04 1.33-4.83 3.2h-.45v-1.93a.47.47 0 10-.94 0v2.03c-.72.24-1.24.9-1.24 1.69v5.17c0 .02.01.04.01.06a7.706 7.706 0 00-1.63 4.71v9.2c0 1.14.93 2.07 2.07 2.07h.22c.42 0 .8-.13 1.13-.34v10.08c-.07 0-.13-.01-.2-.01-1.65 0-2.99 1.33-2.99 2.96 0 .55.36 1.02.85 1.2h7.36c.13-.08.21-.23.21-.39V44.04c0-.2.17-.37.38-.37s.38.17.38.37v10.24c0 .16.08.31.21.39h7.36c.5-.18.85-.65.85-1.2z" fill="url(#n)"/><path d="M40.55 26.88c1.93.52 3.85.16 5.7-.18 1.91-.35 3.73-.68 5.53-.12v6.49c-1.93-.51-3.85-.16-5.7.18-1.91.35-3.72.69-5.53.12v-6.49zm0 27.4V34.34c.7.19 1.41.26 2.1.26 1.22 0 2.42-.22 3.6-.44 2.02-.37 3.93-.72 5.84-.02a.475.475 0 00.63-.44v-7.46c0-.2-.12-.37-.31-.44-2.15-.79-4.27-.4-6.33-.02-2.02.37-3.93.72-5.84.02-.05-.02-.1-.02-.15-.03h-.04c-.05 0-.11.01-.16.03-.01 0-.01.01-.02.01-.02.01-.05.02-.07.04-.02.01-.03.03-.05.04-.01.01-.02.01-.02.02a.38.38 0 00-.09.13c0 .01-.01.02-.01.03-.02.05-.03.11-.03.16v28.03c0 .16.08.31.21.39h.52c.13-.08.21-.23.21-.39z" fill="url(#o)"/><path d="M40.55 26.88c1.93.52 3.85.16 5.7-.18 1.91-.35 3.73-.68 5.53-.12v6.49c-1.93-.51-3.85-.16-5.7.18-1.91.35-3.72.69-5.53.12v-6.49zm0 27.4V34.34c.7.19 1.41.26 2.1.26 1.22 0 2.42-.22 3.6-.44 2.02-.37 3.93-.72 5.84-.02a.475.475 0 00.63-.44v-7.46c0-.2-.12-.37-.31-.44-2.15-.79-4.27-.4-6.33-.02-2.02.37-3.93.72-5.84.02-.05-.02-.1-.02-.15-.03h-.04c-.05 0-.11.01-.16.03-.01 0-.01.01-.02.01-.02.01-.05.02-.07.04-.02.01-.03.03-.05.04-.01.01-.02.01-.02.02a.38.38 0 00-.09.13c0 .01-.01.02-.01.03-.02.05-.03.11-.03.16v28.03c0 .16.08.31.21.39h.52c.13-.08.21-.23.21-.39z" fill="url(#p)"/><path d="M56.36 49.02c-4.81-2.06-9.71-3.49-14.58-4.24a.46.46 0 00-.53.39c-.04.26.14.49.39.53 4.79.74 9.62 2.14 14.35 4.17.06.03.12.04.18.04.18 0 .35-.11.43-.28.01-.02.01-.03.02-.05v-.27a.483.483 0 00-.26-.3z" fill="url(#q)"/><path d="M56.36 49.02c-4.81-2.06-9.71-3.49-14.58-4.24a.46.46 0 00-.53.39c-.04.26.14.49.39.53 4.79.74 9.62 2.14 14.35 4.17.06.03.12.04.18.04.18 0 .35-.11.43-.28.01-.02.01-.03.02-.05v-.27a.483.483 0 00-.26-.3z" fill="url(#r)"/><path d="M38.06 44.34c-1.35-.11-2.71-.18-4.06-.19-.26 0-.47.21-.47.46 0 .26.21.47.46.47 1.32.01 2.66.08 3.99.19h.04c.24 0 .45-.18.47-.43a.477.477 0 00-.43-.51z" fill="url(#s)"/><path d="M38.06 44.34c-1.35-.11-2.71-.18-4.06-.19-.26 0-.47.21-.47.46 0 .26.21.47.46.47 1.32.01 2.66.08 3.99.19h.04c.24 0 .45-.18.47-.43a.477.477 0 00-.43-.51z" fill="url(#t)"/><path d="M11.97 49.69a.461.461 0 00.64.16c.03-.02 3.06-1.79 8.24-3.16.25-.07.4-.32.33-.57a.463.463 0 00-.57-.33c-5.32 1.41-8.35 3.18-8.48 3.26a.46.46 0 00-.16.64z" fill="url(#u)"/><path d="M11.97 49.69a.461.461 0 00.64.16c.03-.02 3.06-1.79 8.24-3.16.25-.07.4-.32.33-.57a.463.463 0 00-.57-.33c-5.32 1.41-8.35 3.18-8.48 3.26a.46.46 0 00-.16.64z" fill="url(#v)"/><path d="M38.67 15.4a.47.47 0 00-.66 0l-.29.29-.29-.29a.47.47 0 00-.66 0 .47.47 0 000 .66l.29.29-.29.29a.47.47 0 00.33.8c.12 0 .24-.05.33-.14l.29-.29.29.29c.09.09.21.14.33.14a.47.47 0 00.33-.8l-.29-.29.29-.29a.47.47 0 000-.66z" fill="url(#w)"/><path d="M38.67 15.4a.47.47 0 00-.66 0l-.29.29-.29-.29a.47.47 0 00-.66 0 .47.47 0 000 .66l.29.29-.29.29a.47.47 0 00.33.8c.12 0 .24-.05.33-.14l.29-.29.29.29c.09.09.21.14.33.14a.47.47 0 00.33-.8l-.29-.29.29-.29a.47.47 0 000-.66z" fill="url(#x)"/><path d="M13.9 22.64c.09.09.21.14.33.14.12 0 .24-.05.33-.14l.49-.49.49.49c.09.09.21.14.33.14a.47.47 0 00.33-.8l-.49-.49.49-.49a.47.47 0 000-.66.47.47 0 00-.66 0l-.49.49-.49-.49a.47.47 0 00-.66 0 .47.47 0 000 .66l.49.49-.49.49a.47.47 0 000 .66z" fill="url(#a)"/><path d="M13.9 22.64c.09.09.21.14.33.14.12 0 .24-.05.33-.14l.49-.49.49.49c.09.09.21.14.33.14a.47.47 0 00.33-.8l-.49-.49.49-.49a.47.47 0 000-.66.47.47 0 00-.66 0l-.49.49-.49-.49a.47.47 0 00-.66 0 .47.47 0 000 .66l.49.49-.49.49a.47.47 0 000 .66z" fill="url(#b)"/><path d="M51.1 39.47c.09.09.21.14.33.14.12 0 .24-.05.33-.14l.49-.49.49.49c.09.09.21.14.33.14a.47.47 0 00.33-.8l-.49-.49.49-.49a.47.47 0 000-.66.47.47 0 00-.66 0l-.49.49-.49-.49a.47.47 0 00-.66 0 .47.47 0 000 .66l.49.49-.49.49a.47.47 0 000 .66z" fill="url(#y)"/><path d="M51.1 39.47c.09.09.21.14.33.14.12 0 .24-.05.33-.14l.49-.49.49.49c.09.09.21.14.33.14a.47.47 0 00.33-.8l-.49-.49.49-.49a.47.47 0 000-.66.47.47 0 00-.66 0l-.49.49-.49-.49a.47.47 0 00-.66 0 .47.47 0 000 .66l.49.49-.49.49a.47.47 0 000 .66z" fill="url(#z)"/><path d="M13.72 43.52c.09.09.21.14.33.14.12 0 .24-.05.33-.14l.49-.49.49.49c.09.09.21.14.33.14a.47.47 0 00.33-.8l-.49-.49.49-.49a.47.47 0 000-.66.47.47 0 00-.66 0l-.49.49-.49-.49a.47.47 0 00-.66 0 .47.47 0 000 .66l.49.49-.49.49a.47.47 0 000 .66z" fill="url(#A)"/><path d="M13.72 43.52c.09.09.21.14.33.14.12 0 .24-.05.33-.14l.49-.49.49.49c.09.09.21.14.33.14a.47.47 0 00.33-.8l-.49-.49.49-.49a.47.47 0 000-.66.47.47 0 00-.66 0l-.49.49-.49-.49a.47.47 0 00-.66 0 .47.47 0 000 .66l.49.49-.49.49a.47.47 0 000 .66z" fill="url(#B)"/><path d="M51.75 16.76l-.06-.18c-.02-.06-.05-.12-.08-.18.09.05.14.11.16.15.02.05.01.12-.02.21zm-3.6 2.45c-1.14.42-2.26.66-3.17.68a3.48 3.48 0 01-.36-.69 3.3 3.3 0 011.95-4.24c.38-.14.76-.21 1.14-.21a3.298 3.298 0 013.28 2.92c-.7.58-1.7 1.13-2.84 1.55zm2.57.21c-.37.8-1.03 1.41-1.85 1.72a3.242 3.242 0 01-3.02-.39c.82-.1 1.72-.33 2.64-.67.91-.34 1.75-.75 2.43-1.21-.05.18-.11.37-.19.54zm-7.05.12c-.02-.05 0-.12.02-.2.02.06.03.12.05.17.02.06.05.12.07.18-.08-.05-.14-.1-.15-.15zm7.26-4.26c-1.12-1.3-2.98-1.85-4.68-1.21-1.7.63-2.75 2.25-2.76 3.96-.83.83-.84 1.46-.7 1.84.15.39.57.85 1.72.93.39.46.88.83 1.44 1.09a4.187 4.187 0 003.24.12 4.219 4.219 0 002.38-2.2c.26-.56.38-1.16.38-1.76.82-.81.84-1.44.7-1.83-.14-.39-.57-.85-1.72-.93z" fill="url(#C)"/><path d="M51.75 16.76l-.06-.18c-.02-.06-.05-.12-.08-.18.09.05.14.11.16.15.02.05.01.12-.02.21zm-3.6 2.45c-1.14.42-2.26.66-3.17.68a3.48 3.48 0 01-.36-.69 3.3 3.3 0 011.95-4.24c.38-.14.76-.21 1.14-.21a3.298 3.298 0 013.28 2.92c-.7.58-1.7 1.13-2.84 1.55zm2.57.21c-.37.8-1.03 1.41-1.85 1.72a3.242 3.242 0 01-3.02-.39c.82-.1 1.72-.33 2.64-.67.91-.34 1.75-.75 2.43-1.21-.05.18-.11.37-.19.54zm-7.05.12c-.02-.05 0-.12.02-.2.02.06.03.12.05.17.02.06.05.12.07.18-.08-.05-.14-.1-.15-.15zm7.26-4.26c-1.12-1.3-2.98-1.85-4.68-1.21-1.7.63-2.75 2.25-2.76 3.96-.83.83-.84 1.46-.7 1.84.15.39.57.85 1.72.93.39.46.88.83 1.44 1.09a4.187 4.187 0 003.24.12 4.219 4.219 0 002.38-2.2c.26-.56.38-1.16.38-1.76.82-.81.84-1.44.7-1.83-.14-.39-.57-.85-1.72-.93z" fill="url(#D)"/></svg>