<svg xmlns="http://www.w3.org/2000/svg" width="82" height="82" viewBox="0 0 68.55 68.55" xmlns:xlink="http://www.w3.org/1999/xlink" shape-rendering="geometricPrecision" text-rendering="geometricPrecision" image-rendering="optimizeQuality" fill-rule="evenodd" clip-rule="evenodd"><defs><linearGradient id="a" gradientUnits="userSpaceOnUse" x1="8.38" y1="10.49" x2="11.89" y2="10.49"><stop offset="0" stop-color="#6256a2"/><stop offset="1" stop-color="#61c7cd"/></linearGradient><linearGradient id="l" gradientUnits="userSpaceOnUse" xlink:href="#a" x1="60.29" y1="23.97" x2="61.63" y2="23.97"/><linearGradient id="f" gradientUnits="userSpaceOnUse" xlink:href="#a" x1="33.12" y1="6.68" x2="34.44" y2="6.68"/><linearGradient id="h" gradientUnits="userSpaceOnUse" xlink:href="#a" x1="21.67" y1="61.86" x2="23.01" y2="61.86"/><linearGradient id="j" gradientUnits="userSpaceOnUse" xlink:href="#a" x1="6.92" y1="21.43" x2="8.26" y2="21.43"/><linearGradient id="c" gradientUnits="userSpaceOnUse" xlink:href="#a" x1="54.51" y1="58.11" x2="58.02" y2="58.11"/><linearGradient id="u" gradientUnits="userSpaceOnUse" xlink:href="#a" x1="32.16" y1="42.47" x2="47.13" y2="42.47"/><linearGradient id="n" gradientUnits="userSpaceOnUse" xlink:href="#a" x1="26.89" y1="42.83" x2="55.64" y2="42.83"/><linearGradient id="b" gradientUnits="userSpaceOnUse" x1="7.84" y1="42.83" x2="60.14" y2="42.83"><stop offset="0" stop-color="#6256a2"/><stop offset=".18" stop-color="#6256a2"/><stop offset=".839" stop-color="#64c9d9"/><stop offset="1" stop-color="#64c9d9"/></linearGradient><linearGradient id="v" gradientUnits="userSpaceOnUse" xlink:href="#b" x1="7.52" y1="42.47" x2="61.27" y2="42.47"/><linearGradient id="s" gradientUnits="userSpaceOnUse" xlink:href="#a" x1="10.59" y1="53.02" x2="33.21" y2="53.02"/><linearGradient id="q" gradientUnits="userSpaceOnUse" xlink:href="#a" x1="47.28" y1="22.59" x2="56.94" y2="22.59"/><linearGradient id="p" gradientUnits="userSpaceOnUse" xlink:href="#b" x1="9.2" y1="33.49" x2="61.09" y2="33.49"/><linearGradient id="o" gradientUnits="userSpaceOnUse" xlink:href="#a" x1="12.78" y1="33.49" x2="52.71" y2="33.49"/><linearGradient id="r" gradientUnits="userSpaceOnUse" xlink:href="#b" x1="9.03" y1="22.59" x2="60.98" y2="22.59"/><linearGradient id="g" gradientUnits="userSpaceOnUse" xlink:href="#b" x1="7.28" y1="6.68" x2="61.2" y2="6.68"/><linearGradient id="t" gradientUnits="userSpaceOnUse" xlink:href="#b" x1="7.34" y1="53.02" x2="60.96" y2="53.02"/><linearGradient id="m" gradientUnits="userSpaceOnUse" xlink:href="#b" x1="6.85" y1="23.97" x2="61.64" y2="23.97"/><linearGradient id="d" gradientUnits="userSpaceOnUse" xlink:href="#b" x1="8.55" y1="58.11" x2="61.46" y2="58.11"/><linearGradient id="i" gradientUnits="userSpaceOnUse" xlink:href="#b" x1="6.87" y1="61.86" x2="61.64" y2="61.86"/><linearGradient id="k" gradientUnits="userSpaceOnUse" xlink:href="#b" x1="6.86" y1="21.43" x2="61.64" y2="21.43"/><linearGradient id="e" gradientUnits="userSpaceOnUse" xlink:href="#b" x1="6.98" y1="10.49" x2="59.88" y2="10.49"/></defs><path d="M45.14 0H23.4C10.47 0-.01 10.48-.01 23.41v21.74c0 12.93 10.48 23.41 23.41 23.41h21.74c12.93 0 23.41-10.48 23.41-23.41V23.41C68.55 10.48 58.07 0 45.14 0z" fill="#000036" fill-rule="nonzero"/><path d="M57.89 56.45a.652.652 0 00-.93 0l-.69.69-.69-.69a.652.652 0 00-.93 0c-.26.26-.26.68 0 .93l.69.69-.69.69c-.26.26-.26.68 0 .93.13.13.3.19.47.19.17 0 .34-.06.47-.19l.69-.69.69.69c.13.13.3.19.47.19.17 0 .34-.06.47-.19.26-.26.26-.68 0-.93l-.69-.69.69-.69c.26-.26.26-.68 0-.93z" fill="url(#c)"/><path d="M57.89 56.45a.652.652 0 00-.93 0l-.69.69-.69-.69a.652.652 0 00-.93 0c-.26.26-.26.68 0 .93l.69.69-.69.69c-.26.26-.26.68 0 .93.13.13.3.19.47.19.17 0 .34-.06.47-.19l.69-.69.69.69c.13.13.3.19.47.19.17 0 .34-.06.47-.19.26-.26.26-.68 0-.93l-.69-.69.69-.69c.26-.26.26-.68 0-.93z" fill="url(#d)"/><path d="M11.29 12.27c.17 0 .34-.06.47-.19.26-.26.26-.68 0-.93l-.69-.69.69-.69c.26-.26.26-.68 0-.93a.652.652 0 00-.93 0l-.69.69-.69-.69a.652.652 0 00-.93 0c-.26.26-.26.68 0 .93l.69.69-.69.69c-.26.26-.26.68 0 .93.13.13.3.19.47.19.17 0 .34-.06.47-.19l.69-.69.69.69c.13.13.3.19.47.19z" fill="url(#a)"/><path d="M11.29 12.27c.17 0 .34-.06.47-.19.26-.26.26-.68 0-.93l-.69-.69.69-.69c.26-.26.26-.68 0-.93a.652.652 0 00-.93 0l-.69.69-.69-.69a.652.652 0 00-.93 0c-.26.26-.26.68 0 .93l.69.69-.69.69c-.26.26-.26.68 0 .93.13.13.3.19.47.19.17 0 .34-.06.47-.19l.69-.69.69.69c.13.13.3.19.47.19z" fill="url(#e)"/><path d="M33.74 7.36h-.03c-.03 0-.05-.01-.08-.01-.01 0-.03-.01-.04-.01h-.01c-.02-.01-.05-.02-.07-.03-.01 0-.02-.01-.03-.01-.01 0-.02-.01-.02-.01-.03-.02-.05-.03-.08-.05a.8.8 0 01-.13-.13c-.02-.02-.03-.05-.05-.08 0-.01-.01-.01-.01-.02-.01-.03-.03-.06-.04-.09 0-.02-.01-.03-.01-.05v-.01c-.01-.02-.01-.04-.01-.07v-.17c0-.02.01-.05.01-.07 0-.01.01-.02.01-.04V6.5c.01-.02.02-.05.03-.07 0-.01.01-.02.01-.03 0-.01.01-.02.01-.02.02-.03.03-.05.05-.08.03-.04.07-.08.12-.12l.01-.01c.01-.01.02-.02.04-.03a.31.31 0 01.13-.06c.01 0 .03-.01.04-.01l.15-.03h.08c.1.01.19.03.27.08h.01c.01 0 .01.01.02.01.03.02.05.03.08.05l.01.01c.03.02.05.05.08.08.02.03.05.06.06.09 0 .01.01.01.01.02v.01c.02.04.04.08.05.12v.01c.02.06.02.12.02.18 0 .12-.03.24-.09.34-.02.03-.03.05-.05.07a.637.637 0 01-.28.2c-.01 0-.02.01-.03.01h-.01c-.04.01-.08.02-.12.02h-.11z" fill="url(#f)"/><path d="M33.74 7.36h-.03c-.03 0-.05-.01-.08-.01-.01 0-.03-.01-.04-.01h-.01c-.02-.01-.05-.02-.07-.03-.01 0-.02-.01-.03-.01-.01 0-.02-.01-.02-.01-.03-.02-.05-.03-.08-.05a.8.8 0 01-.13-.13c-.02-.02-.03-.05-.05-.08 0-.01-.01-.01-.01-.02-.01-.03-.03-.06-.04-.09 0-.02-.01-.03-.01-.05v-.01c-.01-.02-.01-.04-.01-.07v-.17c0-.02.01-.05.01-.07 0-.01.01-.02.01-.04V6.5c.01-.02.02-.05.03-.07 0-.01.01-.02.01-.03 0-.01.01-.02.01-.02.02-.03.03-.05.05-.08.03-.04.07-.08.12-.12l.01-.01c.01-.01.02-.02.04-.03a.31.31 0 01.13-.06c.01 0 .03-.01.04-.01l.15-.03h.08c.1.01.19.03.27.08h.01c.01 0 .01.01.02.01.03.02.05.03.08.05l.01.01c.03.02.05.05.08.08.02.03.05.06.06.09 0 .01.01.01.01.02v.01c.02.04.04.08.05.12v.01c.02.06.02.12.02.18 0 .12-.03.24-.09.34-.02.03-.03.05-.05.07a.637.637 0 01-.28.2c-.01 0-.02.01-.03.01h-.01c-.04.01-.08.02-.12.02h-.11z" fill="url(#g)"/><path d="M22.34 61.19a.67.67 0 100 1.34.67.67 0 000-1.34z" fill="url(#h)"/><path d="M22.34 61.19a.67.67 0 100 1.34.67.67 0 000-1.34z" fill="url(#i)"/><path d="M7.59 20.76a.67.67 0 100 1.34.67.67 0 000-1.34z" fill="url(#j)"/><path d="M7.59 20.76a.67.67 0 100 1.34.67.67 0 000-1.34z" fill="url(#k)"/><path d="M60.96 23.3a.67.67 0 100 1.34.67.67 0 000-1.34z" fill="url(#l)"/><path d="M60.96 23.3a.67.67 0 100 1.34.67.67 0 000-1.34z" fill="url(#m)"/><path d="M56.14 28.49a.663.663 0 00-.81-.47c-.35.09-.56.46-.47.81 2 7.51-.16 15.59-5.65 21.08a21.842 21.842 0 01-21.55 5.52c-.35-.1-.72.1-.82.45-.1.35.1.72.45.82a23.185 23.185 0 0022.85-5.86c5.82-5.82 8.12-14.39 6-22.35z" fill="url(#n)"/><path d="M56.14 28.49a.663.663 0 00-.81-.47c-.35.09-.56.46-.47.81 2 7.51-.16 15.59-5.65 21.08a21.842 21.842 0 01-21.55 5.52c-.35-.1-.72.1-.82.45-.1.35.1.72.45.82a23.185 23.185 0 0022.85-5.86c5.82-5.82 8.12-14.39 6-22.35z" fill="url(#b)"/><path d="M17.41 50.84c.92.93 1.93 1.78 2.99 2.53a.664.664 0 00.92-.16c.21-.3.14-.71-.16-.92-1-.71-1.95-1.51-2.82-2.38-8.51-8.51-8.51-22.36 0-30.87 8.51-8.51 22.36-8.51 30.87 0 .87.87 1.68 1.82 2.38 2.82.21.3.62.37.92.16.3-.21.37-.62.16-.92-.75-1.06-1.6-2.07-2.53-2.99-9.02-9.02-23.71-9.02-32.73 0-9.03 9.02-9.03 23.71 0 32.73z" fill="url(#o)"/><path d="M17.41 50.84c.92.93 1.93 1.78 2.99 2.53a.664.664 0 00.92-.16c.21-.3.14-.71-.16-.92-1-.71-1.95-1.51-2.82-2.38-8.51-8.51-8.51-22.36 0-30.87 8.51-8.51 22.36-8.51 30.87 0 .87.87 1.68 1.82 2.38 2.82.21.3.62.37.92.16.3-.21.37-.62.16-.92-.75-1.06-1.6-2.07-2.53-2.99-9.02-9.02-23.71-9.02-32.73 0-9.03 9.02-9.03 23.71 0 32.73z" fill="url(#p)"/><path d="M48.09 13.18c3.38-1.27 5.9-1.31 7.1-.11 1.3 1.3 1.15 4.11-.43 7.91-1.45 3.49-3.99 7.59-7.35 11.86-.23.29-.18.7.11.93a.668.668 0 00.93-.11c3.44-4.36 6.04-8.57 7.54-12.17 1.82-4.39 1.87-7.62.14-9.35-1.61-1.61-4.55-1.67-8.5-.19-.34.13-.51.51-.38.85.13.34.51.51.85.39z" fill="url(#q)"/><path d="M48.09 13.18c3.38-1.27 5.9-1.31 7.1-.11 1.3 1.3 1.15 4.11-.43 7.91-1.45 3.49-3.99 7.59-7.35 11.86-.23.29-.18.7.11.93a.668.668 0 00.93-.11c3.44-4.36 6.04-8.57 7.54-12.17 1.82-4.39 1.87-7.62.14-9.35-1.61-1.61-4.55-1.67-8.5-.19-.34.13-.51.51-.38.85.13.34.51.51.85.39z" fill="url(#r)"/><path d="M33.15 48.14a.657.657 0 00-.93-.11c-4.3 3.4-8.43 5.97-11.95 7.42-3.8 1.57-6.61 1.73-7.91.43-1.2-1.2-1.16-3.72.11-7.1a.663.663 0 00-.39-.85.663.663 0 00-.85.39c-1.48 3.95-1.41 6.89.19 8.5.84.84 2.04 1.26 3.55 1.26 1.6 0 3.54-.47 5.8-1.4 3.63-1.5 7.86-4.13 12.26-7.61.29-.23.33-.64.11-.93z" fill="url(#s)"/><path d="M33.15 48.14a.657.657 0 00-.93-.11c-4.3 3.4-8.43 5.97-11.95 7.42-3.8 1.57-6.61 1.73-7.91.43-1.2-1.2-1.16-3.72.11-7.1a.663.663 0 00-.39-.85.663.663 0 00-.85.39c-1.48 3.95-1.41 6.89.19 8.5.84.84 2.04 1.26 3.55 1.26 1.6 0 3.54-.47 5.8-1.4 3.63-1.5 7.86-4.13 12.26-7.61.29-.23.33-.64.11-.93z" fill="url(#t)"/><path d="M41.29 42.69c-.42.46-.63 1.05-.6 1.67l.16 3.55c0 .03-.01.06-.03.08l-.43.55c-.03.05-.1.06-.15.04l-1.95-1.9 1.39-1.9c.55-.75.49-1.79-.16-2.47-.64-.68-1.68-.8-2.46-.29l-1.98 1.29-1.79-2.05c-.02-.05 0-.11.04-.15l.57-.4c.02-.02.05-.02.08-.02l3.54.36c.62.06 1.22-.12 1.7-.51l4.18-3.4c.25-.21.54-.36.85-.45l1.41-.41c.09-.02.15.01.18.05s.07.1.04.18l-.49 1.39c-.11.31-.27.58-.49.82l-3.62 3.99zm-4.74 4.12c-.18-.08-.49-.41-.77-.7l-.26-.28c-.3-.31-.63-.67-.69-.79l2.95-1.92c.1-.07.22-.1.34-.1.16 0 .32.07.44.19.2.21.22.54.05.78l-2.06 2.81zm9.33-7.22c.34-.37.59-.8.76-1.27l.49-1.39c.19-.53.06-1.12-.33-1.53-.39-.41-.97-.57-1.51-.41l-1.41.42c-.48.14-.92.37-1.31.69l-4.18 3.4a.99.99 0 01-.74.22l-3.53-.36c-.35-.03-.69.06-.98.26l-.57.4c-.64.45-.81 1.32-.37 1.97l1.79 2.05c-.35.3-.52.76-.43 1.22.11.54.53.97 1.01 1.48l.26.27c.47.5.89.94 1.42 1.08.11.03.21.04.32.04.34 0 .68-.15.92-.4l1.88 1.83.07.06a1.448 1.448 0 001.99-.27l.43-.55c.22-.27.33-.61.31-.96l-.16-3.55c-.01-.26.08-.53.26-.72l3.62-3.99z" fill="url(#u)"/><path d="M41.29 42.69c-.42.46-.63 1.05-.6 1.67l.16 3.55c0 .03-.01.06-.03.08l-.43.55c-.03.05-.1.06-.15.04l-1.95-1.9 1.39-1.9c.55-.75.49-1.79-.16-2.47-.64-.68-1.68-.8-2.46-.29l-1.98 1.29-1.79-2.05c-.02-.05 0-.11.04-.15l.57-.4c.02-.02.05-.02.08-.02l3.54.36c.62.06 1.22-.12 1.7-.51l4.18-3.4c.25-.21.54-.36.85-.45l1.41-.41c.09-.02.15.01.18.05s.07.1.04.18l-.49 1.39c-.11.31-.27.58-.49.82l-3.62 3.99zm-4.74 4.12c-.18-.08-.49-.41-.77-.7l-.26-.28c-.3-.31-.63-.67-.69-.79l2.95-1.92c.1-.07.22-.1.34-.1.16 0 .32.07.44.19.2.21.22.54.05.78l-2.06 2.81zm9.33-7.22c.34-.37.59-.8.76-1.27l.49-1.39c.19-.53.06-1.12-.33-1.53-.39-.41-.97-.57-1.51-.41l-1.41.42c-.48.14-.92.37-1.31.69l-4.18 3.4a.99.99 0 01-.74.22l-3.53-.36c-.35-.03-.69.06-.98.26l-.57.4c-.64.45-.81 1.32-.37 1.97l1.79 2.05c-.35.3-.52.76-.43 1.22.11.54.53.97 1.01 1.48l.26.27c.47.5.89.94 1.42 1.08.11.03.21.04.32.04.34 0 .68-.15.92-.4l1.88 1.83.07.06a1.448 1.448 0 001.99-.27l.43-.55c.22-.27.33-.61.31-.96l-.16-3.55c-.01-.26.08-.53.26-.72l3.62-3.99z" fill="url(#v)"/></svg>