<?xml version="1.0" encoding="UTF-8"?>
<!DOCTYPE svg PUBLIC "-//W3C//DTD SVG 1.1//EN" "http://www.w3.org/Graphics/SVG/1.1/DTD/svg11.dtd">
<!-- Creator: CorelDRAW 2020 (64 Bit) -->
<svg xmlns="http://www.w3.org/2000/svg" xml:space="preserve" width="21.6958mm" height="21.6958mm" version="1.1" style="shape-rendering:geometricPrecision; text-rendering:geometricPrecision; image-rendering:optimizeQuality; fill-rule:evenodd; clip-rule:evenodd"
viewBox="0 0 417.63 417.63"
 xmlns:xlink="http://www.w3.org/1999/xlink"
 xmlns:xodm="http://www.corel.com/coreldraw/odm/2003">
 <defs>
  <style type="text/css">
   <![CDATA[
    .fil0 {fill:#000036;fill-rule:nonzero}
    .fil1 {fill:url(#id0)}
   ]]>
  </style>
  <linearGradient id="id0" gradientUnits="userSpaceOnUse" x1="28.83" y1="212.39" x2="390.25" y2="212.39">
   <stop offset="0" style="stop-opacity:1; stop-color:#6256A2"/>
   <stop offset="0.0117647" style="stop-opacity:1; stop-color:#6256A2"/>
   <stop offset="0.968627" style="stop-opacity:1; stop-color:#64C9D9"/>
   <stop offset="1" style="stop-opacity:1; stop-color:#64C9D9"/>
  </linearGradient>
 </defs>
 <g id="Camada_x0020_1">
  <metadata id="CorelCorpID_0Corel-Layer"/>
  <g id="_1730467840800">
   <path class="fil0" d="M275.03 0l-132.42 0c-78.76,0 -142.61,63.85 -142.61,142.61l0 132.42c0,78.76 63.85,142.61 142.61,142.61l132.42 0c78.76,0 142.61,-63.85 142.61,-142.61l0 -132.42c0,-78.76 -63.85,-142.61 -142.61,-142.61z"/>
   <path class="fil1" d="M351.27 197.15c-27.33,25.02 -69.14,51.33 -114.72,72.2 -85.11,38.97 -185.26,59.17 -203.25,19.87 -8.92,-19.49 6.22,-46.66 42.6,-76.9 0.18,7.34 1,14.71 2.44,22.05 -0.1,0.08 -0.22,0.1 -0.31,0.18 -10.48,9.61 -34.17,33.4 -27.95,46.99 3.31,7.22 15.05,10.94 32.82,10.94 6.94,0 14.85,-0.6 23.48,-1.75 0.01,0 0.02,0.01 0.03,0.01 0.14,0 0.27,-0.05 0.41,-0.07 32.41,-4.36 75.59,-16.81 122.07,-38.09 46.08,-21.1 83.52,-45.43 108.01,-66.98 0.04,-0.03 0.07,-0.07 0.11,-0.1 23.73,-20.91 35.29,-39.19 30.64,-49.36 -6.1,-13.33 -37.98,-11.4 -54.18,-9.5 -4.57,-5.83 -9.6,-11.25 -15.05,-16.21 46.65,-7.79 77.05,-1.49 85.99,18.03 10.23,22.34 -12.38,49.68 -33.13,68.68zm-91.08 123.82c-20.11,9.21 -41.88,12.64 -63.11,10.61l4.51 -2.06c2.44,-1.11 3.51,-3.99 2.39,-6.43 -1.11,-2.44 -3.99,-3.5 -6.43,-2.39l-16.54 7.57c-0.29,0.13 -0.49,0.36 -0.74,0.54 -5.24,-1.25 -10.4,-2.85 -15.47,-4.78l8.39 -3.84c2.44,-1.11 3.51,-3.99 2.39,-6.43 -1.11,-2.43 -3.99,-3.5 -6.43,-2.39l-15.62 7.15c-0.16,0.07 -0.26,0.21 -0.41,0.3 -3.72,-1.89 -7.39,-3.93 -10.94,-6.21 31.81,-7.42 66.19,-19.68 98.4,-34.42 33.42,-15.3 64.88,-33.53 90.36,-52.11 -5.85,41.47 -32.31,77.3 -70.77,94.91zm-176.5 -67.21c0.02,0.04 0.01,0.09 0.03,0.13 0.01,0.02 0.03,0.04 0.04,0.06 1.25,3.44 2.6,6.87 4.15,10.26 2.81,6.15 6.12,12.07 9.81,17.7 -23.31,2.27 -37,-0.4 -38.83,-4.41 -1.17,-2.55 2.99,-14.02 22,-32.33 0.82,2.87 1.78,5.73 2.8,8.58zm253.1 -81.3c-1.85,-6.47 -4.17,-12.83 -6.99,-18.99 -2.84,-6.21 -6.13,-12.13 -9.81,-17.75 26.17,-2.42 37.64,1.85 38.83,4.46 1.83,4.01 -5.09,16.11 -22.04,32.28zm-179.27 -75.74c61.82,-28.31 135.15,-1.04 163.46,60.79 3.29,7.19 5.85,14.69 7.71,22.3 -21.79,18.9 -55.8,41.95 -103.85,63.95 -48.04,22 -87.72,32.68 -116.26,36.83 -0.72,-1.01 -1.46,-2.01 -2.16,-3.05l21.89 -10.03c2.44,-1.12 3.51,-3.99 2.39,-6.43 -1.11,-2.44 -3.99,-3.51 -6.43,-2.39l-22.92 10.5c-1.65,-2.95 -3.22,-5.94 -4.63,-9.01 -0.88,-1.92 -1.7,-3.84 -2.47,-5.78l21.72 -9.94c2.44,-1.11 3.51,-3.99 2.39,-6.43 -1.11,-2.44 -3.99,-3.5 -6.43,-2.39l-20.89 9.57c-1.87,-6.04 -3.25,-12.14 -4.15,-18.26l26.97 -12.35c2.43,-1.11 3.5,-3.99 2.39,-6.43 -1.12,-2.44 -4,-3.5 -6.43,-2.39l-24.01 10.99c-0.37,-5.89 -0.32,-11.77 0.15,-17.59l26.78 -12.26c2.44,-1.12 3.51,-3.99 2.39,-6.43 -1.11,-2.43 -3.98,-3.5 -6.43,-2.39l-21.31 9.76c1.42,-8.14 3.66,-16.11 6.65,-23.79 0.09,-0.03 0.19,-0.02 0.29,-0.06l19.78 -9.05c2.44,-1.11 3.51,-3.99 2.39,-6.43 -1.11,-2.43 -3.99,-3.51 -6.43,-2.39l-9.87 4.52c12.27,-22.98 31.85,-42.27 57.31,-53.93zm235.71 27.71c-11.48,-25.07 -48.63,-32.88 -104.6,-22.08 -10.08,-7.53 -21.28,-13.67 -33.4,-18.18 -33.3,-12.39 -69.43,-11.07 -101.74,3.73 -44.48,20.36 -72.34,62.33 -76.93,107.81 -0.01,0.16 -0.05,0.32 -0.04,0.48 -0.12,1.21 -0.25,2.41 -0.34,3.62 -0.27,0.14 -0.56,0.21 -0.8,0.41 -44.86,35.59 -62.46,67.76 -50.89,93.03 8.74,19.08 30.89,26.98 60.03,26.97 13.6,0 28.73,-1.72 44.72,-4.83 23.44,17.49 51.41,26.48 79.62,26.48 18.79,0 37.68,-3.98 55.38,-12.09 44.35,-20.3 73.91,-63.08 77.32,-111.74 5.84,-4.59 11.3,-9.19 16.27,-13.74 33.18,-30.37 45.42,-57.99 35.41,-79.88z"/>
  </g>
 </g>
</svg>
