<?xml version="1.0" encoding="UTF-8"?>
<!DOCTYPE svg PUBLIC "-//W3C//DTD SVG 1.1//EN" "http://www.w3.org/Graphics/SVG/1.1/DTD/svg11.dtd">
<!-- Creator: CorelDRAW 2020 (64 Bit) -->
<svg xmlns="http://www.w3.org/2000/svg" xml:space="preserve" width="21.6958mm" height="21.6958mm" version="1.1" style="shape-rendering:geometricPrecision; text-rendering:geometricPrecision; image-rendering:optimizeQuality; fill-rule:evenodd; clip-rule:evenodd"
viewBox="0 0 760.12 760.12"
 xmlns:xlink="http://www.w3.org/1999/xlink"
 xmlns:xodm="http://www.corel.com/coreldraw/odm/2003">
 <defs>
  <style type="text/css">
   <![CDATA[
    .fil0 {fill:#000036;fill-rule:nonzero}
    .fil10 {fill:url(#id0)}
    .fil22 {fill:url(#id1)}
    .fil14 {fill:url(#id2)}
    .fil2 {fill:url(#id3)}
    .fil16 {fill:url(#id4)}
    .fil20 {fill:url(#id5)}
    .fil18 {fill:url(#id6)}
    .fil6 {fill:url(#id7)}
    .fil8 {fill:url(#id8)}
    .fil12 {fill:url(#id9)}
    .fil24 {fill:url(#id10)}
    .fil32 {fill:url(#id11)}
    .fil26 {fill:url(#id12)}
    .fil4 {fill:url(#id13)}
    .fil30 {fill:url(#id14)}
    .fil28 {fill:url(#id15)}
    .fil3 {fill:url(#id16)}
    .fil31 {fill:url(#id17)}
    .fil11 {fill:url(#id18)}
    .fil29 {fill:url(#id19)}
    .fil7 {fill:url(#id20)}
    .fil5 {fill:url(#id21)}
    .fil23 {fill:url(#id22)}
    .fil25 {fill:url(#id23)}
    .fil21 {fill:url(#id24)}
    .fil9 {fill:url(#id25)}
    .fil15 {fill:url(#id26)}
    .fil33 {fill:url(#id27)}
    .fil27 {fill:url(#id28)}
    .fil1 {fill:url(#id29)}
    .fil19 {fill:url(#id30)}
    .fil17 {fill:url(#id31)}
    .fil13 {fill:url(#id32)}
   ]]>
  </style>
  <linearGradient id="id0" gradientUnits="userSpaceOnUse" x1="619.08" y1="571.4" x2="672.26" y2="571.4">
   <stop offset="0" style="stop-opacity:1; stop-color:#6256A2"/>
   <stop offset="1" style="stop-opacity:1; stop-color:#64C9D9"/>
  </linearGradient>
  <linearGradient id="id1" gradientUnits="userSpaceOnUse" xlink:href="#id0" x1="41.53" y1="367.62" x2="387.04" y2="367.62">
  </linearGradient>
  <linearGradient id="id2" gradientUnits="userSpaceOnUse" xlink:href="#id0" x1="91.33" y1="571.76" x2="131.97" y2="571.76">
  </linearGradient>
  <linearGradient id="id3" gradientUnits="userSpaceOnUse" xlink:href="#id0" x1="254.29" y1="522.2" x2="305.42" y2="522.2">
  </linearGradient>
  <linearGradient id="id4" gradientUnits="userSpaceOnUse" xlink:href="#id0" x1="232.01" y1="607.05" x2="247.55" y2="607.05">
  </linearGradient>
  <linearGradient id="id5" gradientUnits="userSpaceOnUse" xlink:href="#id0" x1="279.85" y1="166.33" x2="295.39" y2="166.33">
  </linearGradient>
  <linearGradient id="id6" gradientUnits="userSpaceOnUse" xlink:href="#id0" x1="600.03" y1="364.33" x2="615.56" y2="364.33">
  </linearGradient>
  <linearGradient id="id7" gradientUnits="userSpaceOnUse" xlink:href="#id0" x1="429.53" y1="225.34" x2="498.86" y2="225.34">
  </linearGradient>
  <linearGradient id="id8" gradientUnits="userSpaceOnUse" xlink:href="#id0" x1="76.45" y1="184.74" x2="129.63" y2="184.74">
  </linearGradient>
  <linearGradient id="id9" gradientUnits="userSpaceOnUse" xlink:href="#id0" x1="587.48" y1="166.7" x2="628.11" y2="166.7">
  </linearGradient>
  <linearGradient id="id10" gradientUnits="userSpaceOnUse" xlink:href="#id0" x1="340.08" y1="455.05" x2="717.25" y2="455.05">
  </linearGradient>
  <linearGradient id="id11" gradientUnits="userSpaceOnUse" xlink:href="#id0" x1="309.84" y1="329.9" x2="388" y2="329.9">
  </linearGradient>
  <linearGradient id="id12" gradientUnits="userSpaceOnUse" xlink:href="#id0" x1="536.16" y1="275.43" x2="679.39" y2="275.43">
  </linearGradient>
  <linearGradient id="id13" gradientUnits="userSpaceOnUse" xlink:href="#id0" x1="679.47" y1="337.37" x2="718.6" y2="337.37">
  </linearGradient>
  <linearGradient id="id14" gradientUnits="userSpaceOnUse" xlink:href="#id0" x1="355.16" y1="360.84" x2="412.56" y2="360.84">
  </linearGradient>
  <linearGradient id="id15" gradientUnits="userSpaceOnUse" xlink:href="#id0" x1="142.09" y1="382.69" x2="620.12" y2="382.69">
  </linearGradient>
  <linearGradient id="id16" gradientUnits="userSpaceOnUse" x1="34.43" y1="522.2" x2="718.27" y2="522.2">
   <stop offset="0" style="stop-opacity:1; stop-color:#6256A2"/>
   <stop offset="0.180392" style="stop-opacity:1; stop-color:#6256A2"/>
   <stop offset="0.890196" style="stop-opacity:1; stop-color:#64C9D9"/>
   <stop offset="1" style="stop-opacity:1; stop-color:#64C9D9"/>
  </linearGradient>
  <linearGradient id="id17" gradientUnits="userSpaceOnUse" xlink:href="#id16" x1="40.24" y1="360.84" x2="711.69" y2="360.84">
  </linearGradient>
  <linearGradient id="id18" gradientUnits="userSpaceOnUse" xlink:href="#id16" x1="34.41" y1="571.4" x2="718.28" y2="571.4">
  </linearGradient>
  <linearGradient id="id19" gradientUnits="userSpaceOnUse" xlink:href="#id16" x1="36.5" y1="382.69" x2="716.67" y2="382.69">
  </linearGradient>
  <linearGradient id="id20" gradientUnits="userSpaceOnUse" xlink:href="#id16" x1="34.42" y1="225.34" x2="718.28" y2="225.34">
  </linearGradient>
  <linearGradient id="id21" gradientUnits="userSpaceOnUse" xlink:href="#id16" x1="34.43" y1="337.37" x2="718.27" y2="337.37">
  </linearGradient>
  <linearGradient id="id22" gradientUnits="userSpaceOnUse" xlink:href="#id16" x1="34.43" y1="367.62" x2="718.28" y2="367.62">
  </linearGradient>
  <linearGradient id="id23" gradientUnits="userSpaceOnUse" xlink:href="#id16" x1="34.75" y1="455.05" x2="718.28" y2="455.05">
  </linearGradient>
  <linearGradient id="id24" gradientUnits="userSpaceOnUse" xlink:href="#id16" x1="34.41" y1="166.33" x2="718.3" y2="166.33">
  </linearGradient>
  <linearGradient id="id25" gradientUnits="userSpaceOnUse" xlink:href="#id16" x1="34.42" y1="184.74" x2="718.27" y2="184.74">
  </linearGradient>
  <linearGradient id="id26" gradientUnits="userSpaceOnUse" xlink:href="#id16" x1="37.07" y1="571.76" x2="697.47" y2="571.76">
  </linearGradient>
  <linearGradient id="id27" gradientUnits="userSpaceOnUse" xlink:href="#id16" x1="40.73" y1="329.9" x2="711.49" y2="329.9">
  </linearGradient>
  <linearGradient id="id28" gradientUnits="userSpaceOnUse" xlink:href="#id16" x1="41.03" y1="275.43" x2="716.99" y2="275.43">
  </linearGradient>
  <linearGradient id="id29" gradientUnits="userSpaceOnUse" xlink:href="#id0" x1="679.42" y1="337.37" x2="718.6" y2="337.37">
  </linearGradient>
  <linearGradient id="id30" gradientUnits="userSpaceOnUse" xlink:href="#id16" x1="34.39" y1="364.33" x2="718.28" y2="364.33">
  </linearGradient>
  <linearGradient id="id31" gradientUnits="userSpaceOnUse" xlink:href="#id16" x1="34.42" y1="607.05" x2="718.3" y2="607.05">
  </linearGradient>
  <linearGradient id="id32" gradientUnits="userSpaceOnUse" xlink:href="#id16" x1="54.05" y1="166.7" x2="714.49" y2="166.7">
  </linearGradient>
 </defs>
 <g id="Camada_x0020_1">
  <metadata id="CorelCorpID_0Corel-Layer"/>
  <g id="_1730467306496">
   <path class="fil0" d="M500.57 0l-241.02 0c-143.35,0 -259.55,116.21 -259.55,259.55l0 241.02c0,143.35 116.21,259.55 259.55,259.55l241.02 0c143.35,0 259.55,-116.21 259.55,-259.55l0 -241.02c0,-143.35 -116.21,-259.55 -259.55,-259.55z"/>
   <path class="fil1" d="M718.59 337.37c0,-1.17 -0.12,-2.31 -0.32,-3.43l0 6.85c0.2,-1.11 0.32,-2.26 0.32,-3.43z"/>
   <path class="fil2" d="M279.85 532.47c-5.66,0 -10.27,-4.61 -10.27,-10.27 0,-5.66 4.61,-10.26 10.27,-10.26 5.67,0 10.27,4.6 10.27,10.26 0,5.67 -4.6,10.27 -10.27,10.27zm0 -35.83c-14.09,0 -25.57,11.47 -25.57,25.56 0,14.1 11.47,25.57 25.57,25.57 14.1,0 25.57,-11.47 25.57,-25.57 0,-14.09 -11.47,-25.56 -25.57,-25.56z"/>
   <path class="fil3" d="M279.85 532.47c-5.66,0 -10.27,-4.61 -10.27,-10.27 0,-5.66 4.61,-10.26 10.27,-10.26 5.67,0 10.27,4.6 10.27,10.26 0,5.67 -4.6,10.27 -10.27,10.27zm0 -35.83c-14.09,0 -25.57,11.47 -25.57,25.56 0,14.1 11.47,25.57 25.57,25.57 14.1,0 25.57,-11.47 25.57,-25.57 0,-14.09 -11.47,-25.56 -25.57,-25.56z"/>
   <path class="fil4" d="M699.03 341.64c-2.35,0 -4.27,-1.91 -4.27,-4.27 0,-2.34 1.91,-4.26 4.27,-4.26 2.35,0 4.26,1.92 4.26,4.26 0,2.35 -1.91,4.27 -4.26,4.27zm0 -23.82c-10.79,0 -19.56,8.77 -19.56,19.56 0,10.79 8.78,19.56 19.56,19.56 9.62,0 17.61,-6.98 19.24,-16.14l0 -6.85c-1.63,-9.15 -9.62,-16.13 -19.24,-16.13z"/>
   <path class="fil5" d="M699.03 341.64c-2.35,0 -4.27,-1.91 -4.27,-4.27 0,-2.34 1.91,-4.26 4.27,-4.26 2.35,0 4.26,1.92 4.26,4.26 0,2.35 -1.91,4.27 -4.26,4.27zm0 -23.82c-10.79,0 -19.56,8.77 -19.56,19.56 0,10.79 8.78,19.56 19.56,19.56 9.62,0 17.61,-6.98 19.24,-16.14l0 -6.85c-1.63,-9.15 -9.62,-16.13 -19.24,-16.13z"/>
   <path class="fil6" d="M464.19 205.98c10.68,0 19.36,8.69 19.36,19.36 0,10.68 -8.69,19.36 -19.36,19.36 -10.68,0 -19.36,-8.69 -19.36,-19.36 0,-10.68 8.69,-19.36 19.36,-19.36zm0 54.02c19.12,0 34.66,-15.55 34.66,-34.66 0,-19.12 -15.55,-34.66 -34.66,-34.66 -19.11,0 -34.66,15.55 -34.66,34.66 0,19.12 15.55,34.66 34.66,34.66z"/>
   <path class="fil7" d="M464.19 205.98c10.68,0 19.36,8.69 19.36,19.36 0,10.68 -8.69,19.36 -19.36,19.36 -10.68,0 -19.36,-8.69 -19.36,-19.36 0,-10.68 8.69,-19.36 19.36,-19.36zm0 54.02c19.12,0 34.66,-15.55 34.66,-34.66 0,-19.12 -15.55,-34.66 -34.66,-34.66 -19.11,0 -34.66,15.55 -34.66,34.66 0,19.12 15.55,34.66 34.66,34.66z"/>
   <path class="fil8" d="M84.11 192.39l11.29 0 0 11.29c0,4.23 3.42,7.65 7.65,7.65 4.23,0 7.65,-3.42 7.65,-7.65l0 -11.29 11.29 0c4.23,0 7.65,-3.42 7.65,-7.65 0,-4.23 -3.43,-7.65 -7.65,-7.65l-11.29 0 0 -11.29c0,-4.23 -3.42,-7.65 -7.65,-7.65 -4.23,0 -7.65,3.42 -7.65,7.65l0 11.29 -11.29 0c-4.23,0 -7.65,3.42 -7.65,7.65 0,4.23 3.42,7.65 7.65,7.65z"/>
   <path class="fil9" d="M84.11 192.39l11.29 0 0 11.29c0,4.23 3.42,7.65 7.65,7.65 4.23,0 7.65,-3.42 7.65,-7.65l0 -11.29 11.29 0c4.23,0 7.65,-3.42 7.65,-7.65 0,-4.23 -3.43,-7.65 -7.65,-7.65l-11.29 0 0 -11.29c0,-4.23 -3.42,-7.65 -7.65,-7.65 -4.23,0 -7.65,3.42 -7.65,7.65l0 11.29 -11.29 0c-4.23,0 -7.65,3.42 -7.65,7.65 0,4.23 3.42,7.65 7.65,7.65z"/>
   <path class="fil10" d="M664.6 563.75l-11.28 0 0 -11.29c0,-4.23 -3.43,-7.65 -7.65,-7.65 -4.23,0 -7.65,3.42 -7.65,7.65l0 11.29 -11.29 0c-4.23,0 -7.65,3.42 -7.65,7.65 0,4.23 3.42,7.65 7.65,7.65l11.29 0 0 11.29c0,4.23 3.43,7.65 7.65,7.65 4.22,0 7.65,-3.42 7.65,-7.65l0 -11.29 11.28 0c4.23,0 7.65,-3.42 7.65,-7.65 0,-4.23 -3.43,-7.65 -7.65,-7.65z"/>
   <path class="fil11" d="M664.6 563.75l-11.28 0 0 -11.29c0,-4.23 -3.43,-7.65 -7.65,-7.65 -4.23,0 -7.65,3.42 -7.65,7.65l0 11.29 -11.29 0c-4.23,0 -7.65,3.42 -7.65,7.65 0,4.23 3.42,7.65 7.65,7.65l11.29 0 0 11.29c0,4.23 3.43,7.65 7.65,7.65 4.22,0 7.65,-3.42 7.65,-7.65l0 -11.29 11.28 0c4.23,0 7.65,-3.42 7.65,-7.65 0,-4.23 -3.43,-7.65 -7.65,-7.65z"/>
   <path class="fil12" d="M588.99 185.14c1.5,1.49 3.45,2.24 5.41,2.24 1.96,0 3.91,-0.75 5.41,-2.24l7.98 -7.98 7.98 7.98c1.5,1.49 3.45,2.24 5.41,2.24 1.95,0 3.91,-0.75 5.41,-2.24 2.99,-2.99 2.99,-7.83 0,-10.82l-7.98 -7.98 7.98 -7.98c2.99,-2.99 2.99,-7.83 0,-10.82 -2.99,-2.99 -7.83,-2.99 -10.82,0l-7.98 7.98 -7.98 -7.98c-2.99,-2.99 -7.83,-2.99 -10.82,0 -2.99,2.99 -2.99,7.83 0,10.82l7.98 7.98 -7.98 7.98c-2.99,2.99 -2.99,7.83 0,10.82z"/>
   <path class="fil13" d="M588.99 185.14c1.5,1.49 3.45,2.24 5.41,2.24 1.96,0 3.91,-0.75 5.41,-2.24l7.98 -7.98 7.98 7.98c1.5,1.49 3.45,2.24 5.41,2.24 1.95,0 3.91,-0.75 5.41,-2.24 2.99,-2.99 2.99,-7.83 0,-10.82l-7.98 -7.98 7.98 -7.98c2.99,-2.99 2.99,-7.83 0,-10.82 -2.99,-2.99 -7.83,-2.99 -10.82,0l-7.98 7.98 -7.98 -7.98c-2.99,-2.99 -7.83,-2.99 -10.82,0 -2.99,2.99 -2.99,7.83 0,10.82l7.98 7.98 -7.98 7.98c-2.99,2.99 -2.99,7.83 0,10.82z"/>
   <path class="fil14" d="M130.45 552.6c-2.99,-2.99 -7.83,-2.99 -10.82,0l-7.98 7.98 -7.98 -7.98c-2.99,-2.99 -7.83,-2.99 -10.82,0 -2.99,2.99 -2.99,7.83 0,10.82l7.98 7.98 -7.98 7.98c-2.99,2.99 -2.99,7.83 0,10.82 1.49,1.5 3.45,2.24 5.41,2.24 1.96,0 3.92,-0.75 5.41,-2.24l7.98 -7.98 7.98 7.98c1.49,1.5 3.45,2.24 5.41,2.24 1.96,0 3.92,-0.75 5.41,-2.24 2.99,-2.99 2.99,-7.83 0,-10.82l-7.98 -7.98 7.98 -7.98c2.99,-2.99 2.99,-7.83 0,-10.82z"/>
   <path class="fil15" d="M130.45 552.6c-2.99,-2.99 -7.83,-2.99 -10.82,0l-7.98 7.98 -7.98 -7.98c-2.99,-2.99 -7.83,-2.99 -10.82,0 -2.99,2.99 -2.99,7.83 0,10.82l7.98 7.98 -7.98 7.98c-2.99,2.99 -2.99,7.83 0,10.82 1.49,1.5 3.45,2.24 5.41,2.24 1.96,0 3.92,-0.75 5.41,-2.24l7.98 -7.98 7.98 7.98c1.49,1.5 3.45,2.24 5.41,2.24 1.96,0 3.92,-0.75 5.41,-2.24 2.99,-2.99 2.99,-7.83 0,-10.82l-7.98 -7.98 7.98 -7.98c2.99,-2.99 2.99,-7.83 0,-10.82z"/>
   <path class="fil16" d="M239.78 599.28c-4.29,0 -7.77,3.48 -7.77,7.77 0,4.29 3.48,7.77 7.77,7.77 4.29,0 7.77,-3.48 7.77,-7.77 0,-4.29 -3.48,-7.77 -7.77,-7.77z"/>
   <path class="fil17" d="M239.78 599.28c-4.29,0 -7.77,3.48 -7.77,7.77 0,4.29 3.48,7.77 7.77,7.77 4.29,0 7.77,-3.48 7.77,-7.77 0,-4.29 -3.48,-7.77 -7.77,-7.77z"/>
   <path class="fil18" d="M600.02 364.33c0,4.29 3.48,7.77 7.77,7.77 4.29,0 7.77,-3.48 7.77,-7.77 0,-4.29 -3.48,-7.77 -7.77,-7.77 -4.29,0 -7.77,3.48 -7.77,7.77z"/>
   <path class="fil19" d="M600.02 364.33c0,4.29 3.48,7.77 7.77,7.77 4.29,0 7.77,-3.48 7.77,-7.77 0,-4.29 -3.48,-7.77 -7.77,-7.77 -4.29,0 -7.77,3.48 -7.77,7.77z"/>
   <path class="fil20" d="M287.62 174.11c4.29,0 7.77,-3.48 7.77,-7.77 0,-4.29 -3.48,-7.77 -7.77,-7.77 -4.29,0 -7.77,3.48 -7.77,7.77 0,4.29 3.48,7.77 7.77,7.77z"/>
   <path class="fil21" d="M287.62 174.11c4.29,0 7.77,-3.48 7.77,-7.77 0,-4.29 -3.48,-7.77 -7.77,-7.77 -4.29,0 -7.77,3.48 -7.77,7.77 0,4.29 3.48,7.77 7.77,7.77z"/>
   <path class="fil22" d="M217.76 504.68c-99.26,-26.56 -160.93,-75.19 -160.93,-126.92 0,-81.02 144.7,-146.93 322.56,-146.93 4.23,0 7.65,-3.42 7.65,-7.65 0,-4.23 -3.42,-7.65 -7.65,-7.65 -189.45,0 -337.86,71.26 -337.86,162.23 0,59.87 64.4,112.84 172.28,141.7 0.66,0.18 1.33,0.26 1.98,0.26 3.38,0 6.47,-2.26 7.38,-5.67 1.1,-4.09 -1.33,-8.28 -5.41,-9.36z"/>
   <path class="fil23" d="M217.76 504.68c-99.26,-26.56 -160.93,-75.19 -160.93,-126.92 0,-81.02 144.7,-146.93 322.56,-146.93 4.23,0 7.65,-3.42 7.65,-7.65 0,-4.23 -3.42,-7.65 -7.65,-7.65 -189.45,0 -337.86,71.26 -337.86,162.23 0,59.87 64.4,112.84 172.28,141.7 0.66,0.18 1.33,0.26 1.98,0.26 3.38,0 6.47,-2.26 7.38,-5.67 1.1,-4.09 -1.33,-8.28 -5.41,-9.36z"/>
   <path class="fil24" d="M709.6 370.11c-4.23,0 -7.65,3.42 -7.65,7.65 0,81.02 -144.7,146.93 -322.56,146.93 -10.47,0 -21.07,-0.23 -31.5,-0.69 -3.94,-0.16 -7.79,3.08 -7.98,7.3 -0.19,4.22 3.09,7.79 7.31,7.98 10.65,0.47 21.48,0.71 32.18,0.71 189.46,0 337.86,-71.26 337.86,-162.23 0,-4.23 -3.43,-7.65 -7.65,-7.65z"/>
   <path class="fil25" d="M709.6 370.11c-4.23,0 -7.65,3.42 -7.65,7.65 0,81.02 -144.7,146.93 -322.56,146.93 -10.47,0 -21.07,-0.23 -31.5,-0.69 -3.94,-0.16 -7.79,3.08 -7.98,7.3 -0.19,4.22 3.09,7.79 7.31,7.98 10.65,0.47 21.48,0.71 32.18,0.71 189.46,0 337.86,-71.26 337.86,-162.23 0,-4.23 -3.43,-7.65 -7.65,-7.65z"/>
   <path class="fil26" d="M541.02 250.84c54.22,14.52 97.96,35.75 126.45,61.44 1.46,1.31 3.3,1.97 5.12,1.97 2.09,0 4.18,-0.85 5.68,-2.53 2.83,-3.14 2.58,-7.97 -0.56,-10.8 -30.28,-27.29 -76.18,-49.7 -132.74,-64.84 -4.1,-1.11 -8.28,1.33 -9.36,5.41 -1.09,4.09 1.33,8.28 5.41,9.36z"/>
   <path class="fil27" d="M541.02 250.84c54.22,14.52 97.96,35.75 126.45,61.44 1.46,1.31 3.3,1.97 5.12,1.97 2.09,0 4.18,-0.85 5.68,-2.53 2.83,-3.14 2.58,-7.97 -0.56,-10.8 -30.28,-27.29 -76.18,-49.7 -132.74,-64.84 -4.1,-1.11 -8.28,1.33 -9.36,5.41 -1.09,4.09 1.33,8.28 5.41,9.36z"/>
   <path class="fil28" d="M206.56 299.89c-44.09,23.13 -67.49,52.76 -65.9,83.45 1.59,30.68 27.93,57.74 74.18,76.18 48.42,19.31 108.98,28.69 170.94,28.69 83.36,0 169.22,-16.97 231.31,-49.55 3.75,-1.96 5.19,-6.59 3.23,-10.33 -1.97,-3.73 -6.59,-5.17 -10.33,-3.22 -104.82,54.99 -279.54,64.04 -389.48,20.21 -39.79,-15.87 -63.32,-38.75 -64.57,-62.77 -1.25,-24.02 19.79,-49.2 57.72,-69.11 66.48,-34.85 177.27,-40.6 246.97,-12.8 24.42,9.74 38.85,23.49 39.59,37.75 0.74,14.25 -12.19,29.43 -35.47,41.65 -41.91,22 -111.79,25.61 -155.76,8.08 -3.93,-1.58 -8.38,0.35 -9.94,4.27 -1.56,3.92 0.35,8.37 4.27,9.94 47.58,18.97 123.19,15.05 168.53,-8.74 29.22,-15.34 44.73,-35.21 43.65,-55.99 -1.08,-20.78 -18.55,-38.94 -49.2,-51.17 -73.32,-29.25 -189.83,-23.2 -259.75,13.46z"/>
   <path class="fil29" d="M206.56 299.89c-44.09,23.13 -67.49,52.76 -65.9,83.45 1.59,30.68 27.93,57.74 74.18,76.18 48.42,19.31 108.98,28.69 170.94,28.69 83.36,0 169.22,-16.97 231.31,-49.55 3.75,-1.96 5.19,-6.59 3.23,-10.33 -1.97,-3.73 -6.59,-5.17 -10.33,-3.22 -104.82,54.99 -279.54,64.04 -389.48,20.21 -39.79,-15.87 -63.32,-38.75 -64.57,-62.77 -1.25,-24.02 19.79,-49.2 57.72,-69.11 66.48,-34.85 177.27,-40.6 246.97,-12.8 24.42,9.74 38.85,23.49 39.59,37.75 0.74,14.25 -12.19,29.43 -35.47,41.65 -41.91,22 -111.79,25.61 -155.76,8.08 -3.93,-1.58 -8.38,0.35 -9.94,4.27 -1.56,3.92 0.35,8.37 4.27,9.94 47.58,18.97 123.19,15.05 168.53,-8.74 29.22,-15.34 44.73,-35.21 43.65,-55.99 -1.08,-20.78 -18.55,-38.94 -49.2,-51.17 -73.32,-29.25 -189.83,-23.2 -259.75,13.46z"/>
   <path class="fil30" d="M355.16 364.34c0,4.23 3.42,7.65 7.65,7.65 18.37,0 35.34,-3.22 46.58,-8.84 3.78,-1.89 5.31,-6.49 3.42,-10.27 -1.88,-3.77 -6.48,-5.3 -10.27,-3.42 -9.05,4.52 -23.9,7.22 -39.74,7.22 -4.23,0 -7.65,3.42 -7.65,7.65z"/>
   <path class="fil31" d="M355.16 364.34c0,4.23 3.42,7.65 7.65,7.65 18.37,0 35.34,-3.22 46.58,-8.84 3.78,-1.89 5.31,-6.49 3.42,-10.27 -1.88,-3.77 -6.48,-5.3 -10.27,-3.42 -9.05,4.52 -23.9,7.22 -39.74,7.22 -4.23,0 -7.65,3.42 -7.65,7.65z"/>
   <path class="fil32" d="M381.82 318.55c-6.06,-0.8 -12.46,-1.2 -19,-1.2 -20.73,0 -39.6,4.12 -50.47,11.02 -3.57,2.26 -4.62,6.99 -2.36,10.56 1.45,2.29 3.93,3.55 6.46,3.55 1.4,0 2.82,-0.38 4.09,-1.19 8.27,-5.25 24.87,-8.64 42.28,-8.64 5.88,0 11.6,0.36 17.01,1.07 4.16,0.53 8.03,-2.4 8.58,-6.59 0.55,-4.18 -2.4,-8.03 -6.59,-8.58z"/>
   <path class="fil33" d="M381.82 318.55c-6.06,-0.8 -12.46,-1.2 -19,-1.2 -20.73,0 -39.6,4.12 -50.47,11.02 -3.57,2.26 -4.62,6.99 -2.36,10.56 1.45,2.29 3.93,3.55 6.46,3.55 1.4,0 2.82,-0.38 4.09,-1.19 8.27,-5.25 24.87,-8.64 42.28,-8.64 5.88,0 11.6,0.36 17.01,1.07 4.16,0.53 8.03,-2.4 8.58,-6.59 0.55,-4.18 -2.4,-8.03 -6.59,-8.58z"/>
  </g>
 </g>
</svg>
