<?xml version="1.0" encoding="UTF-8"?>
<!DOCTYPE svg PUBLIC "-//W3C//DTD SVG 1.1//EN" "http://www.w3.org/Graphics/SVG/1.1/DTD/svg11.dtd">
<!-- Creator: CorelDRAW 2020 (64 Bit) -->
<svg xmlns="http://www.w3.org/2000/svg" xml:space="preserve" width="21.6958mm" height="21.6958mm" version="1.1" style="shape-rendering:geometricPrecision; text-rendering:geometricPrecision; image-rendering:optimizeQuality; fill-rule:evenodd; clip-rule:evenodd"
viewBox="0 0 760.12 760.12"
 xmlns:xlink="http://www.w3.org/1999/xlink"
 xmlns:xodm="http://www.corel.com/coreldraw/odm/2003">
 <defs>
  <style type="text/css">
   <![CDATA[
    .fil0 {fill:#000036;fill-rule:nonzero}
    .fil1 {fill:url(#id0)}
   ]]>
  </style>
  <linearGradient id="id0" gradientUnits="userSpaceOnUse" x1="157.84" y1="380.06" x2="602.53" y2="380.06">
   <stop offset="0" style="stop-opacity:1; stop-color:#6256A2"/>
   <stop offset="1" style="stop-opacity:1; stop-color:#64C9D9"/>
  </linearGradient>
 </defs>
 <g id="Camada_x0020_1">
  <metadata id="CorelCorpID_0Corel-Layer"/>
  <g id="_1695993554432">
   <path class="fil0" d="M500.57 0l-241.02 0c-143.35,0 -259.55,116.21 -259.55,259.55l0 241.02c0,143.35 116.21,259.55 259.55,259.55l241.02 0c143.35,0 259.55,-116.21 259.55,-259.55l0 -241.02c0,-143.35 -116.21,-259.55 -259.55,-259.55z"/>
   <path class="fil1" d="M323.54 364.58l-23.55 -35.92 120.29 -78.89 15.5 23.61 8.07 12.3 -120.3 78.9zm-138.71 76.59l-10.38 -15.81 120.3 -78.89 10.37 15.81 -120.29 78.89zm357.83 -292.91l43.03 65.61 -120.3 78.9 -5.86 -8.94 -0.52 -0.79 -36.65 -55.88 120.3 -78.9zm11.07 466.8c0,-7.07 -5.4,-12.85 -12.28,-13.57l-130.32 -277.46 40.45 -26.54 5.87 8.94c1.02,1.57 2.63,2.66 4.46,3.04 0.48,0.1 0.96,0.14 1.44,0.14 1.37,0 2.71,-0.39 3.87,-1.16l132.12 -86.65c1.9,-1.25 3,-3.27 3.16,-5.38l0 -1.15c-0.09,-1.12 -0.45,-2.25 -1.12,-3.26l-50.79 -77.44c-1.03,-1.57 -2.64,-2.66 -4.47,-3.04 -0.12,-0.03 -0.25,-0.04 -0.39,-0.06l-2.07 0c-1.01,0.15 -1.98,0.5 -2.86,1.08l-132.12 86.65c-3.25,2.14 -4.17,6.52 -2.04,9.79l5.87 8.94 -126.2 82.77c-1.57,1.03 -2.66,2.63 -3.04,4.47 -0.39,1.84 -0.02,3.74 1.01,5.31l2.72 4.14 -126.21 82.77c-1.56,1.03 -2.66,2.64 -3.05,4.47 -0.37,1.84 -0.01,3.75 1.01,5.31l18.13 27.64c1.35,2.06 3.61,3.19 5.91,3.19 1.34,0 2.68,-0.37 3.88,-1.16l126.2 -82.77 2.72 4.14c1.03,1.57 2.63,2.66 4.46,3.04 0.49,0.1 0.96,0.14 1.44,0.14 1.36,0 2.7,-0.39 3.88,-1.16l66.68 -43.73 -124.45 264.95c-6.88,0.73 -12.29,6.5 -12.29,13.57 0,6.88 5.11,12.58 11.72,13.56l3.99 0c6.62,-0.97 11.73,-6.67 11.73,-13.56 0,-2.82 -0.87,-5.44 -2.34,-7.63l117.04 -249.16 0 245.09c-3.97,2.4 -6.66,6.73 -6.66,11.69 0,6.88 5.1,12.58 11.72,13.56l3.99 0c6.62,-0.97 11.72,-6.67 11.72,-13.56 0,-4.97 -2.67,-9.29 -6.64,-11.69l0 -245.09 117.02 249.16c-1.46,2.19 -2.32,4.81 -2.32,7.63 0,6.88 5.09,12.58 11.71,13.56l4 0c6.62,-0.97 11.71,-6.67 11.71,-13.56z"/>
  </g>
 </g>
</svg>
