<?xml version="1.0" encoding="UTF-8"?>
<!DOCTYPE svg PUBLIC "-//W3C//DTD SVG 1.1//EN" "http://www.w3.org/Graphics/SVG/1.1/DTD/svg11.dtd">
<!-- Creator: CorelDRAW 2020 (64 Bit) -->
<svg xmlns="http://www.w3.org/2000/svg" xml:space="preserve" width="21.6958mm" height="21.6958mm" version="1.1" style="shape-rendering:geometricPrecision; text-rendering:geometricPrecision; image-rendering:optimizeQuality; fill-rule:evenodd; clip-rule:evenodd"
viewBox="0 0 68.55 68.55"
 xmlns:xlink="http://www.w3.org/1999/xlink"
 xmlns:xodm="http://www.corel.com/coreldraw/odm/2003">
 <defs>
  <style type="text/css">
   <![CDATA[
    .fil0 {fill:#000036;fill-rule:nonzero}
    .fil23 {fill:url(#id0)}
    .fil17 {fill:url(#id1)}
    .fil15 {fill:url(#id2)}
    .fil11 {fill:url(#id3)}
    .fil13 {fill:url(#id4)}
    .fil21 {fill:url(#id5)}
    .fil29 {fill:url(#id6)}
    .fil7 {fill:url(#id7)}
    .fil25 {fill:url(#id8)}
    .fil9 {fill:url(#id9)}
    .fil27 {fill:url(#id10)}
    .fil19 {fill:url(#id11)}
    .fil24 {fill:url(#id12)}
    .fil18 {fill:url(#id13)}
    .fil22 {fill:url(#id14)}
    .fil30 {fill:url(#id15)}
    .fil1 {fill:url(#id16)}
    .fil2 {fill:url(#id17)}
    .fil4 {fill:url(#id18)}
    .fil12 {fill:url(#id19)}
    .fil20 {fill:url(#id20)}
    .fil8 {fill:url(#id21)}
    .fil26 {fill:url(#id22)}
    .fil3 {fill:url(#id23)}
    .fil16 {fill:url(#id24)}
    .fil5 {fill:url(#id25)}
    .fil14 {fill:url(#id26)}
    .fil10 {fill:url(#id27)}
    .fil6 {fill:url(#id28)}
    .fil28 {fill:url(#id29)}
   ]]>
  </style>
  <linearGradient id="id0" gradientUnits="userSpaceOnUse" x1="13.81" y1="21.51" x2="16.3" y2="21.51">
   <stop offset="0" style="stop-opacity:1; stop-color:#6256A2"/>
   <stop offset="1" style="stop-opacity:1; stop-color:#61C7CD"/>
  </linearGradient>
  <linearGradient id="id1" gradientUnits="userSpaceOnUse" xlink:href="#id0" x1="33.54" y1="44.71" x2="38.47" y2="44.71">
  </linearGradient>
  <linearGradient id="id2" gradientUnits="userSpaceOnUse" xlink:href="#id0" x1="41.28" y1="47.36" x2="56.65" y2="47.36">
  </linearGradient>
  <linearGradient id="id3" gradientUnits="userSpaceOnUse" xlink:href="#id0" x1="18.35" y1="34.62" x2="36.48" y2="34.62">
  </linearGradient>
  <linearGradient id="id4" gradientUnits="userSpaceOnUse" xlink:href="#id0" x1="39.61" y1="40.17" x2="52.72" y2="40.17">
  </linearGradient>
  <linearGradient id="id5" gradientUnits="userSpaceOnUse" xlink:href="#id0" x1="36.66" y1="16.38" x2="38.76" y2="16.38">
  </linearGradient>
  <linearGradient id="id6" gradientUnits="userSpaceOnUse" xlink:href="#id0" x1="42.79" y1="18.22" x2="52.64" y2="18.22">
  </linearGradient>
  <linearGradient id="id7" gradientUnits="userSpaceOnUse" xlink:href="#id0" x1="23.92" y1="20.17" x2="30.9" y2="20.17">
  </linearGradient>
  <linearGradient id="id8" gradientUnits="userSpaceOnUse" xlink:href="#id0" x1="51.01" y1="38.34" x2="53.49" y2="38.34">
  </linearGradient>
  <linearGradient id="id9" gradientUnits="userSpaceOnUse" xlink:href="#id0" x1="23.92" y1="29.64" x2="30.9" y2="29.64">
  </linearGradient>
  <linearGradient id="id10" gradientUnits="userSpaceOnUse" xlink:href="#id0" x1="13.63" y1="42.39" x2="16.12" y2="42.39">
  </linearGradient>
  <linearGradient id="id11" gradientUnits="userSpaceOnUse" xlink:href="#id0" x1="11.97" y1="47.87" x2="21.16" y2="47.87">
  </linearGradient>
  <linearGradient id="id12" gradientUnits="userSpaceOnUse" x1="-8.03" y1="21.51" x2="81.83" y2="21.51">
   <stop offset="0" style="stop-opacity:1; stop-color:#6256A2"/>
   <stop offset="0.270588" style="stop-opacity:1; stop-color:#6256A2"/>
   <stop offset="0.65098" style="stop-opacity:1; stop-color:#64C9D9"/>
   <stop offset="1" style="stop-opacity:1; stop-color:#64C9D9"/>
  </linearGradient>
  <linearGradient id="id13" gradientUnits="userSpaceOnUse" xlink:href="#id12" x1="-8.65" y1="44.71" x2="83.98" y2="44.71">
  </linearGradient>
  <linearGradient id="id14" gradientUnits="userSpaceOnUse" xlink:href="#id12" x1="-6.97" y1="16.38" x2="82.33" y2="16.38">
  </linearGradient>
  <linearGradient id="id15" gradientUnits="userSpaceOnUse" xlink:href="#id12" x1="-8.01" y1="18.22" x2="83.67" y2="18.22">
  </linearGradient>
  <linearGradient id="id16" gradientUnits="userSpaceOnUse" xlink:href="#id0" x1="18.35" y1="54.71" x2="36.48" y2="54.71">
  </linearGradient>
  <linearGradient id="id17" gradientUnits="userSpaceOnUse" xlink:href="#id0" x1="18.35" y1="54.71" x2="36.48" y2="54.71">
  </linearGradient>
  <linearGradient id="id18" gradientUnits="userSpaceOnUse" xlink:href="#id0" x1="45.26" y1="49.45" x2="56.64" y2="49.45">
  </linearGradient>
  <linearGradient id="id19" gradientUnits="userSpaceOnUse" xlink:href="#id12" x1="-8.85" y1="34.62" x2="84.21" y2="34.62">
  </linearGradient>
  <linearGradient id="id20" gradientUnits="userSpaceOnUse" xlink:href="#id12" x1="-8.52" y1="47.87" x2="83.37" y2="47.87">
  </linearGradient>
  <linearGradient id="id21" gradientUnits="userSpaceOnUse" xlink:href="#id12" x1="-8.85" y1="20.17" x2="84.21" y2="20.17">
  </linearGradient>
  <linearGradient id="id22" gradientUnits="userSpaceOnUse" xlink:href="#id12" x1="-6.74" y1="38.34" x2="83.11" y2="38.34">
  </linearGradient>
  <linearGradient id="id23" gradientUnits="userSpaceOnUse" xlink:href="#id0" x1="39.61" y1="54.71" x2="52.72" y2="54.71">
  </linearGradient>
  <linearGradient id="id24" gradientUnits="userSpaceOnUse" xlink:href="#id12" x1="-8.7" y1="47.36" x2="84.15" y2="47.36">
  </linearGradient>
  <linearGradient id="id25" gradientUnits="userSpaceOnUse" xlink:href="#id12" x1="-5.8" y1="19.51" x2="81.87" y2="19.51">
  </linearGradient>
  <linearGradient id="id26" gradientUnits="userSpaceOnUse" xlink:href="#id12" x1="-8.85" y1="40.17" x2="84.21" y2="40.17">
  </linearGradient>
  <linearGradient id="id27" gradientUnits="userSpaceOnUse" xlink:href="#id12" x1="-8.85" y1="29.64" x2="84.21" y2="29.64">
  </linearGradient>
  <linearGradient id="id28" gradientUnits="userSpaceOnUse" xlink:href="#id12" x1="-5.8" y1="16.57" x2="82.56" y2="16.57">
  </linearGradient>
  <linearGradient id="id29" gradientUnits="userSpaceOnUse" xlink:href="#id12" x1="-8.03" y1="42.39" x2="81.82" y2="42.39">
  </linearGradient>
 </defs>
 <g id="Camada_x0020_1">
  <metadata id="CorelCorpID_0Corel-Layer"/>
  <path class="fil0" d="M45.14 0l-21.74 0c-12.93,0 -23.41,10.48 -23.41,23.41l0 21.74c0,12.93 10.48,23.41 23.41,23.41l21.74 0c12.93,0 23.41,-10.48 23.41,-23.41l0 -21.74c0,-12.93 -10.48,-23.41 -23.41,-23.41z"/>
  <path class="fil1" d="M19.86 54.74l6.66 0c0.1,0 0.18,-0.03 0.26,-0.08l-7.36 0c0.14,0.05 0.28,0.08 0.44,0.08z"/>
  <path class="fil2" d="M28.22 54.74l6.66 0c0.15,0 0.3,-0.03 0.44,-0.08l-7.36 0c0.07,0.05 0.16,0.08 0.26,0.08z"/>
  <path class="fil3" d="M40.08 54.74c0.1,0 0.18,-0.03 0.26,-0.08l-0.52 0c0.07,0.05 0.16,0.08 0.26,0.08z"/>
  <path class="fil4" d="M56.62 49.32l0 0.27c0.03,-0.09 0.03,-0.18 0,-0.27z"/>
  <path class="fil5" d="M43.69 19.34c-0.03,0.08 -0.04,0.16 -0.02,0.2 0.02,0.05 0.07,0.1 0.15,0.15 -0.02,-0.06 -0.05,-0.12 -0.07,-0.18 -0.02,-0.06 -0.04,-0.12 -0.05,-0.17z"/>
  <path class="fil6" d="M51.61 16.39c0.02,0.06 0.05,0.12 0.08,0.18 0.02,0.06 0.04,0.12 0.06,0.18 0.03,-0.09 0.04,-0.16 0.02,-0.21 -0.02,-0.04 -0.06,-0.1 -0.16,-0.15z"/>
  <path class="fil7" d="M27.41 18.03c1.69,0 2.55,0.59 2.55,1.75 0,1.39 -1.15,2.52 -2.55,2.52 -1.41,0 -2.55,-1.13 -2.55,-2.52 0,-1.16 0.86,-1.75 2.55,-1.75zm0 5.21c1.92,0 3.49,-1.55 3.49,-3.46 0,-1.71 -1.27,-2.69 -3.49,-2.69 -2.22,0 -3.49,0.98 -3.49,2.69 0,1.91 1.57,3.46 3.49,3.46z"/>
  <path class="fil8" d="M27.41 18.03c1.69,0 2.55,0.59 2.55,1.75 0,1.39 -1.15,2.52 -2.55,2.52 -1.41,0 -2.55,-1.13 -2.55,-2.52 0,-1.16 0.86,-1.75 2.55,-1.75zm0 5.21c1.92,0 3.49,-1.55 3.49,-3.46 0,-1.71 -1.27,-2.69 -3.49,-2.69 -2.22,0 -3.49,0.98 -3.49,2.69 0,1.91 1.57,3.46 3.49,3.46z"/>
  <path class="fil9" d="M29.97 31.04c0,0.16 -0.13,0.28 -0.28,0.28l-4.54 0c-0.16,0 -0.28,-0.13 -0.28,-0.28l0 -2.81c0,-0.16 0.13,-0.28 0.28,-0.28l4.54 0c0.16,0 0.28,0.13 0.28,0.28l0 2.81zm0.94 0l0 -2.81c0,-0.67 -0.55,-1.22 -1.22,-1.22l-4.54 0c-0.67,0 -1.22,0.55 -1.22,1.22l0 2.81c0,0.67 0.55,1.22 1.22,1.22l4.54 0c0.67,0 1.22,-0.55 1.22,-1.22z"/>
  <path class="fil10" d="M29.97 31.04c0,0.16 -0.13,0.28 -0.28,0.28l-4.54 0c-0.16,0 -0.28,-0.13 -0.28,-0.28l0 -2.81c0,-0.16 0.13,-0.28 0.28,-0.28l4.54 0c0.16,0 0.28,0.13 0.28,0.28l0 2.81zm0.94 0l0 -2.81c0,-0.67 -0.55,-1.22 -1.22,-1.22l-4.54 0c-0.67,0 -1.22,0.55 -1.22,1.22l0 2.81c0,0.67 0.55,1.22 1.22,1.22l4.54 0c0.67,0 1.22,-0.55 1.22,-1.22z"/>
  <path class="fil11" d="M34.88 53.81l-6.19 0 0 -2.36 0.9 0c0.26,0 0.47,-0.21 0.47,-0.47 0,-0.26 -0.21,-0.47 -0.47,-0.47l-0.9 0 0 -6.48c0,-0.72 -0.59,-1.31 -1.32,-1.31 -0.73,0 -1.32,0.59 -1.32,1.31l0 6.48 -0.9 0c-0.26,0 -0.47,0.21 -0.47,0.47 0,0.26 0.21,0.47 0.47,0.47l0.9 0 0 2.36 -6.19 0c-0.19,0 -0.35,-0.15 -0.35,-0.34 0,-1.11 0.92,-2.02 2.05,-2.02 0.79,0 1.52,0.31 2.07,0.87 0.09,0.09 0.21,0.14 0.34,0.14 0.12,0 0.24,-0.04 0.33,-0.13 0.19,-0.18 0.19,-0.48 0.01,-0.66 -0.45,-0.46 -1,-0.8 -1.6,-0.98l0 -20.45c0,-0.26 -0.21,-0.47 -0.47,-0.47 -0.26,0 -0.47,0.21 -0.47,0.47l0 7.28 -2.47 0 0 -8c0,-2.74 1.7,-5.25 4.25,-6.3 0.96,1.05 2.34,1.72 3.88,1.72 1.54,0 2.92,-0.67 3.88,-1.72 1.49,0.62 2.69,1.72 3.43,3.09l-1.08 0c-0.26,0 -0.47,0.21 -0.47,0.47l0 1.77c0,0.26 0.21,0.47 0.47,0.47l1.88 0c0.01,0.17 0.02,0.34 0.02,0.51l0 8 -2.47 0 0 -7.33c0,-0.26 -0.21,-0.47 -0.47,-0.47 -0.26,0 -0.47,0.21 -0.47,0.47l0 7.75 0 0.78 0 11.95c-0.63,0.18 -1.21,0.52 -1.69,1 -0.18,0.19 -0.18,0.48 0.01,0.66 0.09,0.09 0.21,0.13 0.33,0.13 0.12,0 0.24,-0.05 0.34,-0.14 0.55,-0.56 1.28,-0.87 2.07,-0.87 1.13,0 2.05,0.91 2.05,2.02 0,0.19 -0.16,0.34 -0.35,0.34zm-14.25 -13.97l-0.22 0c-0.62,0 -1.13,-0.51 -1.13,-1.13l0 -0.27 2.47 0 0 0.27c0,0.62 -0.51,1.13 -1.13,1.13zm0.27 -20.27c0,-0.47 0.39,-0.85 0.86,-0.85l0.53 0c-0.07,0.33 -0.11,0.68 -0.11,1.04 0,0.99 0.28,1.9 0.77,2.69 -0.76,0.34 -1.46,0.8 -2.06,1.35l0 -4.22zm6.51 -4.05c2.37,0 4.29,1.9 4.29,4.24 0,2.34 -1.92,4.24 -4.29,4.24 -2.36,0 -4.29,-1.9 -4.29,-4.24 0,-2.34 1.92,-4.24 4.29,-4.24zm5.23 4.24c0,-0.35 -0.04,-0.7 -0.11,-1.04l0.44 0c0.48,0 0.86,0.38 0.86,0.85l0 4.15c-0.58,-0.51 -1.24,-0.95 -1.97,-1.27 0.48,-0.78 0.77,-1.7 0.77,-2.69zm2.5 7.49c0.1,0.27 0.18,0.55 0.24,0.83l-1.27 0 0 -0.83 1.03 0zm0.4 11.47c0,0.62 -0.51,1.13 -1.13,1.13l-0.22 0c-0.62,0 -1.13,-0.51 -1.13,-1.13l0 -0.27 2.47 0 0 0.27zm0.63 14.76c0,-1.63 -1.34,-2.96 -2.98,-2.96 -0.04,0 -0.08,0 -0.12,0.01l0 -10.08c0.32,0.21 0.71,0.34 1.13,0.34l0.22 0c1.14,0 2.06,-0.93 2.06,-2.07l0 -9.2c0,-1.78 -0.63,-3.47 -1.7,-4.82l0 -5.13c0,-0.99 -0.81,-1.79 -1.8,-1.79l-0.73 0c-0.79,-1.88 -2.65,-3.2 -4.83,-3.2 -2.18,0 -4.04,1.33 -4.83,3.2l-0.45 0 0 -1.93c0,-0.26 -0.21,-0.47 -0.47,-0.47 -0.26,0 -0.47,0.21 -0.47,0.47l0 2.03c-0.72,0.24 -1.24,0.9 -1.24,1.69l0 5.17c0,0.02 0.01,0.04 0.01,0.06 -1.03,1.33 -1.63,2.98 -1.63,4.71l0 9.2c0,1.14 0.93,2.07 2.07,2.07l0.22 0c0.42,0 0.8,-0.13 1.13,-0.34l0 10.08c-0.07,-0 -0.13,-0.01 -0.2,-0.01 -1.65,0 -2.99,1.33 -2.99,2.96 0,0.55 0.36,1.02 0.85,1.2l7.36 0c0.13,-0.08 0.21,-0.23 0.21,-0.39l0 -10.24c0,-0.2 0.17,-0.37 0.38,-0.37 0.21,0 0.38,0.17 0.38,0.37l0 6.94 0 0.39 0 2.91c0,0.16 0.08,0.31 0.21,0.39l7.36 0c0.5,-0.18 0.85,-0.65 0.85,-1.2z"/>
  <path class="fil12" d="M34.88 53.81l-6.19 0 0 -2.36 0.9 0c0.26,0 0.47,-0.21 0.47,-0.47 0,-0.26 -0.21,-0.47 -0.47,-0.47l-0.9 0 0 -6.48c0,-0.72 -0.59,-1.31 -1.32,-1.31 -0.73,0 -1.32,0.59 -1.32,1.31l0 6.48 -0.9 0c-0.26,0 -0.47,0.21 -0.47,0.47 0,0.26 0.21,0.47 0.47,0.47l0.9 0 0 2.36 -6.19 0c-0.19,0 -0.35,-0.15 -0.35,-0.34 0,-1.11 0.92,-2.02 2.05,-2.02 0.79,0 1.52,0.31 2.07,0.87 0.09,0.09 0.21,0.14 0.34,0.14 0.12,0 0.24,-0.04 0.33,-0.13 0.19,-0.18 0.19,-0.48 0.01,-0.66 -0.45,-0.46 -1,-0.8 -1.6,-0.98l0 -20.45c0,-0.26 -0.21,-0.47 -0.47,-0.47 -0.26,0 -0.47,0.21 -0.47,0.47l0 7.28 -2.47 0 0 -8c0,-2.74 1.7,-5.25 4.25,-6.3 0.96,1.05 2.34,1.72 3.88,1.72 1.54,0 2.92,-0.67 3.88,-1.72 1.49,0.62 2.69,1.72 3.43,3.09l-1.08 0c-0.26,0 -0.47,0.21 -0.47,0.47l0 1.77c0,0.26 0.21,0.47 0.47,0.47l1.88 0c0.01,0.17 0.02,0.34 0.02,0.51l0 8 -2.47 0 0 -7.33c0,-0.26 -0.21,-0.47 -0.47,-0.47 -0.26,0 -0.47,0.21 -0.47,0.47l0 7.75 0 0.78 0 11.95c-0.63,0.18 -1.21,0.52 -1.69,1 -0.18,0.19 -0.18,0.48 0.01,0.66 0.09,0.09 0.21,0.13 0.33,0.13 0.12,0 0.24,-0.05 0.34,-0.14 0.55,-0.56 1.28,-0.87 2.07,-0.87 1.13,0 2.05,0.91 2.05,2.02 0,0.19 -0.16,0.34 -0.35,0.34zm-14.25 -13.97l-0.22 0c-0.62,0 -1.13,-0.51 -1.13,-1.13l0 -0.27 2.47 0 0 0.27c0,0.62 -0.51,1.13 -1.13,1.13zm0.27 -20.27c0,-0.47 0.39,-0.85 0.86,-0.85l0.53 0c-0.07,0.33 -0.11,0.68 -0.11,1.04 0,0.99 0.28,1.9 0.77,2.69 -0.76,0.34 -1.46,0.8 -2.06,1.35l0 -4.22zm6.51 -4.05c2.37,0 4.29,1.9 4.29,4.24 0,2.34 -1.92,4.24 -4.29,4.24 -2.36,0 -4.29,-1.9 -4.29,-4.24 0,-2.34 1.92,-4.24 4.29,-4.24zm5.23 4.24c0,-0.35 -0.04,-0.7 -0.11,-1.04l0.44 0c0.48,0 0.86,0.38 0.86,0.85l0 4.15c-0.58,-0.51 -1.24,-0.95 -1.97,-1.27 0.48,-0.78 0.77,-1.7 0.77,-2.69zm2.5 7.49c0.1,0.27 0.18,0.55 0.24,0.83l-1.27 0 0 -0.83 1.03 0zm0.4 11.47c0,0.62 -0.51,1.13 -1.13,1.13l-0.22 0c-0.62,0 -1.13,-0.51 -1.13,-1.13l0 -0.27 2.47 0 0 0.27zm0.63 14.76c0,-1.63 -1.34,-2.96 -2.98,-2.96 -0.04,0 -0.08,0 -0.12,0.01l0 -10.08c0.32,0.21 0.71,0.34 1.13,0.34l0.22 0c1.14,0 2.06,-0.93 2.06,-2.07l0 -9.2c0,-1.78 -0.63,-3.47 -1.7,-4.82l0 -5.13c0,-0.99 -0.81,-1.79 -1.8,-1.79l-0.73 0c-0.79,-1.88 -2.65,-3.2 -4.83,-3.2 -2.18,0 -4.04,1.33 -4.83,3.2l-0.45 0 0 -1.93c0,-0.26 -0.21,-0.47 -0.47,-0.47 -0.26,0 -0.47,0.21 -0.47,0.47l0 2.03c-0.72,0.24 -1.24,0.9 -1.24,1.69l0 5.17c0,0.02 0.01,0.04 0.01,0.06 -1.03,1.33 -1.63,2.98 -1.63,4.71l0 9.2c0,1.14 0.93,2.07 2.07,2.07l0.22 0c0.42,0 0.8,-0.13 1.13,-0.34l0 10.08c-0.07,-0 -0.13,-0.01 -0.2,-0.01 -1.65,0 -2.99,1.33 -2.99,2.96 0,0.55 0.36,1.02 0.85,1.2l7.36 0c0.13,-0.08 0.21,-0.23 0.21,-0.39l0 -10.24c0,-0.2 0.17,-0.37 0.38,-0.37 0.21,0 0.38,0.17 0.38,0.37l0 6.94 0 0.39 0 2.91c0,0.16 0.08,0.31 0.21,0.39l7.36 0c0.5,-0.18 0.85,-0.65 0.85,-1.2z"/>
  <path class="fil13" d="M40.55 26.88c1.93,0.52 3.85,0.16 5.7,-0.18 1.91,-0.35 3.73,-0.68 5.53,-0.12l0 6.49c-1.93,-0.51 -3.85,-0.16 -5.7,0.18 -1.91,0.35 -3.72,0.69 -5.53,0.12l0 -6.49zm0 27.4l0 -19.94c0.7,0.19 1.41,0.26 2.1,0.26 1.22,0 2.42,-0.22 3.6,-0.44 2.02,-0.37 3.93,-0.72 5.84,-0.02 0.14,0.05 0.3,0.03 0.43,-0.06 0.13,-0.09 0.2,-0.23 0.2,-0.38l0 -7.46c0,-0.2 -0.12,-0.37 -0.31,-0.44 -2.15,-0.79 -4.27,-0.4 -6.33,-0.02 -2.02,0.37 -3.93,0.72 -5.84,0.02 -0.05,-0.02 -0.1,-0.02 -0.15,-0.03 -0.01,-0 -0.01,-0 -0.02,-0 -0.01,0 -0.01,0 -0.02,0 -0.05,0 -0.11,0.01 -0.16,0.03 -0.01,0 -0.01,0.01 -0.02,0.01 -0.02,0.01 -0.05,0.02 -0.07,0.04 -0.02,0.01 -0.03,0.03 -0.05,0.04 -0.01,0.01 -0.02,0.01 -0.02,0.02 -0.04,0.04 -0.07,0.08 -0.09,0.13 -0,0.01 -0.01,0.02 -0.01,0.03 -0.02,0.05 -0.03,0.11 -0.03,0.16l0 28.03c0,0.16 0.08,0.31 0.21,0.39l0.52 0c0.13,-0.08 0.21,-0.23 0.21,-0.39z"/>
  <path class="fil14" d="M40.55 26.88c1.93,0.52 3.85,0.16 5.7,-0.18 1.91,-0.35 3.73,-0.68 5.53,-0.12l0 6.49c-1.93,-0.51 -3.85,-0.16 -5.7,0.18 -1.91,0.35 -3.72,0.69 -5.53,0.12l0 -6.49zm0 27.4l0 -19.94c0.7,0.19 1.41,0.26 2.1,0.26 1.22,0 2.42,-0.22 3.6,-0.44 2.02,-0.37 3.93,-0.72 5.84,-0.02 0.14,0.05 0.3,0.03 0.43,-0.06 0.13,-0.09 0.2,-0.23 0.2,-0.38l0 -7.46c0,-0.2 -0.12,-0.37 -0.31,-0.44 -2.15,-0.79 -4.27,-0.4 -6.33,-0.02 -2.02,0.37 -3.93,0.72 -5.84,0.02 -0.05,-0.02 -0.1,-0.02 -0.15,-0.03 -0.01,-0 -0.01,-0 -0.02,-0 -0.01,0 -0.01,0 -0.02,0 -0.05,0 -0.11,0.01 -0.16,0.03 -0.01,0 -0.01,0.01 -0.02,0.01 -0.02,0.01 -0.05,0.02 -0.07,0.04 -0.02,0.01 -0.03,0.03 -0.05,0.04 -0.01,0.01 -0.02,0.01 -0.02,0.02 -0.04,0.04 -0.07,0.08 -0.09,0.13 -0,0.01 -0.01,0.02 -0.01,0.03 -0.02,0.05 -0.03,0.11 -0.03,0.16l0 28.03c0,0.16 0.08,0.31 0.21,0.39l0.52 0c0.13,-0.08 0.21,-0.23 0.21,-0.39z"/>
  <path class="fil15" d="M56.36 49.02c-4.81,-2.06 -9.71,-3.49 -14.58,-4.24 -0.26,-0.04 -0.5,0.14 -0.53,0.39 -0.04,0.26 0.14,0.49 0.39,0.53 4.79,0.74 9.62,2.14 14.35,4.17 0.06,0.03 0.12,0.04 0.18,0.04 0.18,0 0.35,-0.11 0.43,-0.28 0.01,-0.02 0.01,-0.03 0.02,-0.05l0 -0.27c-0.04,-0.13 -0.13,-0.24 -0.26,-0.3z"/>
  <path class="fil16" d="M56.36 49.02c-4.81,-2.06 -9.71,-3.49 -14.58,-4.24 -0.26,-0.04 -0.5,0.14 -0.53,0.39 -0.04,0.26 0.14,0.49 0.39,0.53 4.79,0.74 9.62,2.14 14.35,4.17 0.06,0.03 0.12,0.04 0.18,0.04 0.18,0 0.35,-0.11 0.43,-0.28 0.01,-0.02 0.01,-0.03 0.02,-0.05l0 -0.27c-0.04,-0.13 -0.13,-0.24 -0.26,-0.3z"/>
  <path class="fil17" d="M38.06 44.34c-1.35,-0.11 -2.71,-0.18 -4.06,-0.19 -0,0 -0,0 -0,0 -0.26,0 -0.47,0.21 -0.47,0.46 -0,0.26 0.21,0.47 0.46,0.47 1.32,0.01 2.66,0.08 3.99,0.19 0.01,0 0.03,0 0.04,0 0.24,0 0.45,-0.18 0.47,-0.43 0.02,-0.26 -0.17,-0.48 -0.43,-0.51z"/>
  <path class="fil18" d="M38.06 44.34c-1.35,-0.11 -2.71,-0.18 -4.06,-0.19 -0,0 -0,0 -0,0 -0.26,0 -0.47,0.21 -0.47,0.46 -0,0.26 0.21,0.47 0.46,0.47 1.32,0.01 2.66,0.08 3.99,0.19 0.01,0 0.03,0 0.04,0 0.24,0 0.45,-0.18 0.47,-0.43 0.02,-0.26 -0.17,-0.48 -0.43,-0.51z"/>
  <path class="fil19" d="M11.97 49.69c0.09,0.15 0.24,0.23 0.4,0.23 0.08,0 0.16,-0.02 0.24,-0.07 0.03,-0.02 3.06,-1.79 8.24,-3.16 0.25,-0.07 0.4,-0.32 0.33,-0.57 -0.07,-0.25 -0.32,-0.4 -0.57,-0.33 -5.32,1.41 -8.35,3.18 -8.48,3.26 -0.22,0.13 -0.3,0.42 -0.16,0.64z"/>
  <path class="fil20" d="M11.97 49.69c0.09,0.15 0.24,0.23 0.4,0.23 0.08,0 0.16,-0.02 0.24,-0.07 0.03,-0.02 3.06,-1.79 8.24,-3.16 0.25,-0.07 0.4,-0.32 0.33,-0.57 -0.07,-0.25 -0.32,-0.4 -0.57,-0.33 -5.32,1.41 -8.35,3.18 -8.48,3.26 -0.22,0.13 -0.3,0.42 -0.16,0.64z"/>
  <path class="fil21" d="M38.67 15.4c-0.18,-0.18 -0.48,-0.18 -0.66,0l-0.29 0.29 -0.29 -0.29c-0.18,-0.18 -0.48,-0.18 -0.66,0 -0.18,0.18 -0.18,0.48 0,0.66l0.29 0.29 -0.29 0.29c-0.18,0.18 -0.18,0.48 0,0.66 0.09,0.09 0.21,0.14 0.33,0.14 0.12,0 0.24,-0.05 0.33,-0.14l0.29 -0.29 0.29 0.29c0.09,0.09 0.21,0.14 0.33,0.14 0.12,0 0.24,-0.05 0.33,-0.14 0.18,-0.18 0.18,-0.48 0,-0.66l-0.29 -0.29 0.29 -0.29c0.18,-0.18 0.18,-0.48 0,-0.66z"/>
  <path class="fil22" d="M38.67 15.4c-0.18,-0.18 -0.48,-0.18 -0.66,0l-0.29 0.29 -0.29 -0.29c-0.18,-0.18 -0.48,-0.18 -0.66,0 -0.18,0.18 -0.18,0.48 0,0.66l0.29 0.29 -0.29 0.29c-0.18,0.18 -0.18,0.48 0,0.66 0.09,0.09 0.21,0.14 0.33,0.14 0.12,0 0.24,-0.05 0.33,-0.14l0.29 -0.29 0.29 0.29c0.09,0.09 0.21,0.14 0.33,0.14 0.12,0 0.24,-0.05 0.33,-0.14 0.18,-0.18 0.18,-0.48 0,-0.66l-0.29 -0.29 0.29 -0.29c0.18,-0.18 0.18,-0.48 0,-0.66z"/>
  <path class="fil23" d="M13.9 22.64c0.09,0.09 0.21,0.14 0.33,0.14 0.12,0 0.24,-0.05 0.33,-0.14l0.49 -0.49 0.49 0.49c0.09,0.09 0.21,0.14 0.33,0.14 0.12,0 0.24,-0.05 0.33,-0.14 0.18,-0.18 0.18,-0.48 0,-0.66l-0.49 -0.49 0.49 -0.49c0.18,-0.18 0.18,-0.48 0,-0.66 -0.18,-0.18 -0.48,-0.18 -0.66,0l-0.49 0.49 -0.49 -0.49c-0.18,-0.18 -0.48,-0.18 -0.66,0 -0.18,0.18 -0.18,0.48 0,0.66l0.49 0.49 -0.49 0.49c-0.18,0.18 -0.18,0.48 0,0.66z"/>
  <path class="fil24" d="M13.9 22.64c0.09,0.09 0.21,0.14 0.33,0.14 0.12,0 0.24,-0.05 0.33,-0.14l0.49 -0.49 0.49 0.49c0.09,0.09 0.21,0.14 0.33,0.14 0.12,0 0.24,-0.05 0.33,-0.14 0.18,-0.18 0.18,-0.48 0,-0.66l-0.49 -0.49 0.49 -0.49c0.18,-0.18 0.18,-0.48 0,-0.66 -0.18,-0.18 -0.48,-0.18 -0.66,0l-0.49 0.49 -0.49 -0.49c-0.18,-0.18 -0.48,-0.18 -0.66,0 -0.18,0.18 -0.18,0.48 0,0.66l0.49 0.49 -0.49 0.49c-0.18,0.18 -0.18,0.48 0,0.66z"/>
  <path class="fil25" d="M51.1 39.47c0.09,0.09 0.21,0.14 0.33,0.14 0.12,0 0.24,-0.05 0.33,-0.14l0.49 -0.49 0.49 0.49c0.09,0.09 0.21,0.14 0.33,0.14 0.12,0 0.24,-0.05 0.33,-0.14 0.18,-0.18 0.18,-0.48 0,-0.66l-0.49 -0.49 0.49 -0.49c0.18,-0.18 0.18,-0.48 0,-0.66 -0.18,-0.18 -0.48,-0.18 -0.66,0l-0.49 0.49 -0.49 -0.49c-0.18,-0.18 -0.48,-0.18 -0.66,0 -0.18,0.18 -0.18,0.48 0,0.66l0.49 0.49 -0.49 0.49c-0.18,0.18 -0.18,0.48 0,0.66z"/>
  <path class="fil26" d="M51.1 39.47c0.09,0.09 0.21,0.14 0.33,0.14 0.12,0 0.24,-0.05 0.33,-0.14l0.49 -0.49 0.49 0.49c0.09,0.09 0.21,0.14 0.33,0.14 0.12,0 0.24,-0.05 0.33,-0.14 0.18,-0.18 0.18,-0.48 0,-0.66l-0.49 -0.49 0.49 -0.49c0.18,-0.18 0.18,-0.48 0,-0.66 -0.18,-0.18 -0.48,-0.18 -0.66,0l-0.49 0.49 -0.49 -0.49c-0.18,-0.18 -0.48,-0.18 -0.66,0 -0.18,0.18 -0.18,0.48 0,0.66l0.49 0.49 -0.49 0.49c-0.18,0.18 -0.18,0.48 0,0.66z"/>
  <path class="fil27" d="M13.72 43.52c0.09,0.09 0.21,0.14 0.33,0.14 0.12,0 0.24,-0.05 0.33,-0.14l0.49 -0.49 0.49 0.49c0.09,0.09 0.21,0.14 0.33,0.14 0.12,0 0.24,-0.05 0.33,-0.14 0.18,-0.18 0.18,-0.48 0,-0.66l-0.49 -0.49 0.49 -0.49c0.18,-0.18 0.18,-0.48 0,-0.66 -0.18,-0.18 -0.48,-0.18 -0.66,0l-0.49 0.49 -0.49 -0.49c-0.18,-0.18 -0.48,-0.18 -0.66,0 -0.18,0.18 -0.18,0.48 0,0.66l0.49 0.49 -0.49 0.49c-0.18,0.18 -0.18,0.48 0,0.66z"/>
  <path class="fil28" d="M13.72 43.52c0.09,0.09 0.21,0.14 0.33,0.14 0.12,0 0.24,-0.05 0.33,-0.14l0.49 -0.49 0.49 0.49c0.09,0.09 0.21,0.14 0.33,0.14 0.12,0 0.24,-0.05 0.33,-0.14 0.18,-0.18 0.18,-0.48 0,-0.66l-0.49 -0.49 0.49 -0.49c0.18,-0.18 0.18,-0.48 0,-0.66 -0.18,-0.18 -0.48,-0.18 -0.66,0l-0.49 0.49 -0.49 -0.49c-0.18,-0.18 -0.48,-0.18 -0.66,0 -0.18,0.18 -0.18,0.48 0,0.66l0.49 0.49 -0.49 0.49c-0.18,0.18 -0.18,0.48 0,0.66z"/>
  <path class="fil29" d="M51.75 16.76c-0.02,-0.06 -0.04,-0.12 -0.06,-0.18 -0.02,-0.06 -0.05,-0.12 -0.08,-0.18 0.09,0.05 0.14,0.11 0.16,0.15 0.02,0.05 0.01,0.12 -0.02,0.21zm-3.6 2.45c-1.14,0.42 -2.26,0.66 -3.17,0.68 -0.14,-0.21 -0.27,-0.45 -0.36,-0.69 -0.63,-1.71 0.24,-3.61 1.95,-4.24 0.38,-0.14 0.76,-0.21 1.14,-0.21 1.34,0 2.61,0.82 3.1,2.16 0.09,0.25 0.15,0.5 0.18,0.76 -0.7,0.58 -1.7,1.13 -2.84,1.55zm2.57 0.21c-0.37,0.8 -1.03,1.41 -1.85,1.72 -0.83,0.31 -1.72,0.27 -2.52,-0.1 -0.18,-0.08 -0.34,-0.18 -0.5,-0.29 0.82,-0.1 1.72,-0.33 2.64,-0.67 0.91,-0.34 1.75,-0.75 2.43,-1.21 -0.05,0.18 -0.11,0.37 -0.19,0.54zm-7.05 0.12c-0.02,-0.05 -0,-0.12 0.02,-0.2 0.02,0.06 0.03,0.12 0.05,0.17 0.02,0.06 0.05,0.12 0.07,0.18 -0.08,-0.05 -0.14,-0.1 -0.15,-0.15zm7.26 -4.26c-1.12,-1.3 -2.98,-1.85 -4.68,-1.21 -1.7,0.63 -2.75,2.25 -2.76,3.96 -0.83,0.83 -0.84,1.46 -0.7,1.84 0.15,0.39 0.57,0.85 1.72,0.93 0.39,0.46 0.88,0.83 1.44,1.09 0.56,0.26 1.16,0.39 1.77,0.39 0.5,0 0.99,-0.09 1.47,-0.27 1.06,-0.39 1.91,-1.18 2.38,-2.2 0.26,-0.56 0.38,-1.16 0.38,-1.76 0.82,-0.81 0.84,-1.44 0.7,-1.83 -0.14,-0.39 -0.57,-0.85 -1.72,-0.93z"/>
  <path class="fil30" d="M51.75 16.76c-0.02,-0.06 -0.04,-0.12 -0.06,-0.18 -0.02,-0.06 -0.05,-0.12 -0.08,-0.18 0.09,0.05 0.14,0.11 0.16,0.15 0.02,0.05 0.01,0.12 -0.02,0.21zm-3.6 2.45c-1.14,0.42 -2.26,0.66 -3.17,0.68 -0.14,-0.21 -0.27,-0.45 -0.36,-0.69 -0.63,-1.71 0.24,-3.61 1.95,-4.24 0.38,-0.14 0.76,-0.21 1.14,-0.21 1.34,0 2.61,0.82 3.1,2.16 0.09,0.25 0.15,0.5 0.18,0.76 -0.7,0.58 -1.7,1.13 -2.84,1.55zm2.57 0.21c-0.37,0.8 -1.03,1.41 -1.85,1.72 -0.83,0.31 -1.72,0.27 -2.52,-0.1 -0.18,-0.08 -0.34,-0.18 -0.5,-0.29 0.82,-0.1 1.72,-0.33 2.64,-0.67 0.91,-0.34 1.75,-0.75 2.43,-1.21 -0.05,0.18 -0.11,0.37 -0.19,0.54zm-7.05 0.12c-0.02,-0.05 -0,-0.12 0.02,-0.2 0.02,0.06 0.03,0.12 0.05,0.17 0.02,0.06 0.05,0.12 0.07,0.18 -0.08,-0.05 -0.14,-0.1 -0.15,-0.15zm7.26 -4.26c-1.12,-1.3 -2.98,-1.85 -4.68,-1.21 -1.7,0.63 -2.75,2.25 -2.76,3.96 -0.83,0.83 -0.84,1.46 -0.7,1.84 0.15,0.39 0.57,0.85 1.72,0.93 0.39,0.46 0.88,0.83 1.44,1.09 0.56,0.26 1.16,0.39 1.77,0.39 0.5,0 0.99,-0.09 1.47,-0.27 1.06,-0.39 1.91,-1.18 2.38,-2.2 0.26,-0.56 0.38,-1.16 0.38,-1.76 0.82,-0.81 0.84,-1.44 0.7,-1.83 -0.14,-0.39 -0.57,-0.85 -1.72,-0.93z"/>
 </g>
</svg>
