<?xml version="1.0" encoding="UTF-8"?>
<!DOCTYPE svg PUBLIC "-//W3C//DTD SVG 1.1//EN" "http://www.w3.org/Graphics/SVG/1.1/DTD/svg11.dtd">
<!-- Creator: CorelDRAW 2020 (64 Bit) -->
<svg xmlns="http://www.w3.org/2000/svg" xml:space="preserve" width="21.6958mm" height="21.6958mm" version="1.1" style="shape-rendering:geometricPrecision; text-rendering:geometricPrecision; image-rendering:optimizeQuality; fill-rule:evenodd; clip-rule:evenodd"
viewBox="0 0 68.55 68.55"
 xmlns:xlink="http://www.w3.org/1999/xlink"
 xmlns:xodm="http://www.corel.com/coreldraw/odm/2003">
 <defs>
  <style type="text/css">
   <![CDATA[
    .fil0 {fill:#000036;fill-rule:nonzero}
    .fil3 {fill:url(#id0)}
    .fil11 {fill:url(#id1)}
    .fil5 {fill:url(#id2)}
    .fil7 {fill:url(#id3)}
    .fil9 {fill:url(#id4)}
    .fil1 {fill:url(#id5)}
    .fil21 {fill:url(#id6)}
    .fil13 {fill:url(#id7)}
    .fil14 {fill:url(#id8)}
    .fil22 {fill:url(#id9)}
    .fil19 {fill:url(#id10)}
    .fil17 {fill:url(#id11)}
    .fil16 {fill:url(#id12)}
    .fil15 {fill:url(#id13)}
    .fil18 {fill:url(#id14)}
    .fil6 {fill:url(#id15)}
    .fil20 {fill:url(#id16)}
    .fil12 {fill:url(#id17)}
    .fil2 {fill:url(#id18)}
    .fil8 {fill:url(#id19)}
    .fil10 {fill:url(#id20)}
    .fil4 {fill:url(#id21)}
   ]]>
  </style>
  <linearGradient id="id0" gradientUnits="userSpaceOnUse" x1="8.38" y1="10.49" x2="11.89" y2="10.49">
   <stop offset="0" style="stop-opacity:1; stop-color:#6256A2"/>
   <stop offset="1" style="stop-opacity:1; stop-color:#61C7CD"/>
  </linearGradient>
  <linearGradient id="id1" gradientUnits="userSpaceOnUse" xlink:href="#id0" x1="60.29" y1="23.97" x2="61.63" y2="23.97">
  </linearGradient>
  <linearGradient id="id2" gradientUnits="userSpaceOnUse" xlink:href="#id0" x1="33.12" y1="6.68" x2="34.44" y2="6.68">
  </linearGradient>
  <linearGradient id="id3" gradientUnits="userSpaceOnUse" xlink:href="#id0" x1="21.67" y1="61.86" x2="23.01" y2="61.86">
  </linearGradient>
  <linearGradient id="id4" gradientUnits="userSpaceOnUse" xlink:href="#id0" x1="6.92" y1="21.43" x2="8.26" y2="21.43">
  </linearGradient>
  <linearGradient id="id5" gradientUnits="userSpaceOnUse" xlink:href="#id0" x1="54.51" y1="58.11" x2="58.02" y2="58.11">
  </linearGradient>
  <linearGradient id="id6" gradientUnits="userSpaceOnUse" xlink:href="#id0" x1="32.16" y1="42.47" x2="47.13" y2="42.47">
  </linearGradient>
  <linearGradient id="id7" gradientUnits="userSpaceOnUse" xlink:href="#id0" x1="26.89" y1="42.83" x2="55.64" y2="42.83">
  </linearGradient>
  <linearGradient id="id8" gradientUnits="userSpaceOnUse" x1="7.84" y1="42.83" x2="60.14" y2="42.83">
   <stop offset="0" style="stop-opacity:1; stop-color:#6256A2"/>
   <stop offset="0.180392" style="stop-opacity:1; stop-color:#6256A2"/>
   <stop offset="0.839216" style="stop-opacity:1; stop-color:#64C9D9"/>
   <stop offset="1" style="stop-opacity:1; stop-color:#64C9D9"/>
  </linearGradient>
  <linearGradient id="id9" gradientUnits="userSpaceOnUse" xlink:href="#id8" x1="7.52" y1="42.47" x2="61.27" y2="42.47">
  </linearGradient>
  <linearGradient id="id10" gradientUnits="userSpaceOnUse" xlink:href="#id0" x1="10.59" y1="53.02" x2="33.21" y2="53.02">
  </linearGradient>
  <linearGradient id="id11" gradientUnits="userSpaceOnUse" xlink:href="#id0" x1="47.28" y1="22.59" x2="56.94" y2="22.59">
  </linearGradient>
  <linearGradient id="id12" gradientUnits="userSpaceOnUse" xlink:href="#id8" x1="9.2" y1="33.49" x2="61.09" y2="33.49">
  </linearGradient>
  <linearGradient id="id13" gradientUnits="userSpaceOnUse" xlink:href="#id0" x1="12.78" y1="33.49" x2="52.71" y2="33.49">
  </linearGradient>
  <linearGradient id="id14" gradientUnits="userSpaceOnUse" xlink:href="#id8" x1="9.03" y1="22.59" x2="60.98" y2="22.59">
  </linearGradient>
  <linearGradient id="id15" gradientUnits="userSpaceOnUse" xlink:href="#id8" x1="7.28" y1="6.68" x2="61.2" y2="6.68">
  </linearGradient>
  <linearGradient id="id16" gradientUnits="userSpaceOnUse" xlink:href="#id8" x1="7.34" y1="53.02" x2="60.96" y2="53.02">
  </linearGradient>
  <linearGradient id="id17" gradientUnits="userSpaceOnUse" xlink:href="#id8" x1="6.85" y1="23.97" x2="61.64" y2="23.97">
  </linearGradient>
  <linearGradient id="id18" gradientUnits="userSpaceOnUse" xlink:href="#id8" x1="8.55" y1="58.11" x2="61.46" y2="58.11">
  </linearGradient>
  <linearGradient id="id19" gradientUnits="userSpaceOnUse" xlink:href="#id8" x1="6.87" y1="61.86" x2="61.64" y2="61.86">
  </linearGradient>
  <linearGradient id="id20" gradientUnits="userSpaceOnUse" xlink:href="#id8" x1="6.86" y1="21.43" x2="61.64" y2="21.43">
  </linearGradient>
  <linearGradient id="id21" gradientUnits="userSpaceOnUse" xlink:href="#id8" x1="6.98" y1="10.49" x2="59.88" y2="10.49">
  </linearGradient>
 </defs>
 <g id="Camada_x0020_1">
  <metadata id="CorelCorpID_0Corel-Layer"/>
  <path class="fil0" d="M45.14 0l-21.74 0c-12.93,0 -23.41,10.48 -23.41,23.41l0 21.74c0,12.93 10.48,23.41 23.41,23.41l21.74 0c12.93,0 23.41,-10.48 23.41,-23.41l0 -21.74c0,-12.93 -10.48,-23.41 -23.41,-23.41z"/>
  <path class="fil1" d="M57.89 56.45c-0.26,-0.26 -0.68,-0.26 -0.93,0l-0.69 0.69 -0.69 -0.69c-0.26,-0.26 -0.67,-0.26 -0.93,0 -0.26,0.26 -0.26,0.68 0,0.93l0.69 0.69 -0.69 0.69c-0.26,0.26 -0.26,0.68 0,0.93 0.13,0.13 0.3,0.19 0.47,0.19 0.17,0 0.34,-0.06 0.47,-0.19l0.69 -0.69 0.69 0.69c0.13,0.13 0.3,0.19 0.47,0.19 0.17,0 0.34,-0.06 0.47,-0.19 0.26,-0.26 0.26,-0.68 0,-0.93l-0.69 -0.69 0.69 -0.69c0.26,-0.26 0.26,-0.68 0,-0.93z"/>
  <path class="fil2" d="M57.89 56.45c-0.26,-0.26 -0.68,-0.26 -0.93,0l-0.69 0.69 -0.69 -0.69c-0.26,-0.26 -0.67,-0.26 -0.93,0 -0.26,0.26 -0.26,0.68 0,0.93l0.69 0.69 -0.69 0.69c-0.26,0.26 -0.26,0.68 0,0.93 0.13,0.13 0.3,0.19 0.47,0.19 0.17,0 0.34,-0.06 0.47,-0.19l0.69 -0.69 0.69 0.69c0.13,0.13 0.3,0.19 0.47,0.19 0.17,0 0.34,-0.06 0.47,-0.19 0.26,-0.26 0.26,-0.68 0,-0.93l-0.69 -0.69 0.69 -0.69c0.26,-0.26 0.26,-0.68 0,-0.93z"/>
  <path class="fil3" d="M11.29 12.27c0.17,0 0.34,-0.06 0.47,-0.19 0.26,-0.26 0.26,-0.68 0,-0.93l-0.69 -0.69 0.69 -0.69c0.26,-0.26 0.26,-0.68 0,-0.93 -0.26,-0.26 -0.68,-0.26 -0.93,0l-0.69 0.69 -0.69 -0.69c-0.26,-0.26 -0.68,-0.26 -0.93,0 -0.26,0.26 -0.26,0.68 0,0.93l0.69 0.69 -0.69 0.69c-0.26,0.26 -0.26,0.68 0,0.93 0.13,0.13 0.3,0.19 0.47,0.19 0.17,0 0.34,-0.06 0.47,-0.19l0.69 -0.69 0.69 0.69c0.13,0.13 0.3,0.19 0.47,0.19z"/>
  <path class="fil4" d="M11.29 12.27c0.17,0 0.34,-0.06 0.47,-0.19 0.26,-0.26 0.26,-0.68 0,-0.93l-0.69 -0.69 0.69 -0.69c0.26,-0.26 0.26,-0.68 0,-0.93 -0.26,-0.26 -0.68,-0.26 -0.93,0l-0.69 0.69 -0.69 -0.69c-0.26,-0.26 -0.68,-0.26 -0.93,0 -0.26,0.26 -0.26,0.68 0,0.93l0.69 0.69 -0.69 0.69c-0.26,0.26 -0.26,0.68 0,0.93 0.13,0.13 0.3,0.19 0.47,0.19 0.17,0 0.34,-0.06 0.47,-0.19l0.69 -0.69 0.69 0.69c0.13,0.13 0.3,0.19 0.47,0.19z"/>
  <path class="fil5" d="M33.74 7.36l0 -0 -0.03 0c-0.03,-0 -0.05,-0.01 -0.08,-0.01l0 -0 -0 0c-0.01,-0 -0.03,-0.01 -0.04,-0.01l0 -0 -0.01 0c-0.02,-0.01 -0.05,-0.02 -0.07,-0.03l0 -0 -0 0c-0.01,-0 -0.02,-0.01 -0.03,-0.01l0 -0 -0 0c-0.01,-0 -0.02,-0.01 -0.02,-0.01l0 -0 -0 0c-0.03,-0.02 -0.05,-0.03 -0.08,-0.05l0 -0 -0 0c-0.05,-0.04 -0.09,-0.08 -0.13,-0.13l0 -0 -0 0c-0.02,-0.02 -0.03,-0.05 -0.05,-0.08l0 -0 -0 0c-0,-0.01 -0.01,-0.01 -0.01,-0.02l0 -0 -0 0c-0.01,-0.03 -0.03,-0.06 -0.04,-0.09l0 0c-0,-0.02 -0.01,-0.03 -0.01,-0.05l0 -0.01 -0 0c-0.01,-0.02 -0.01,-0.04 -0.01,-0.07l0 -0.03 -0 0c-0,-0.02 -0,-0.04 -0,-0.06 0,-0.02 0,-0.04 0,-0.06l0 0 0 -0.02c0,-0.02 0.01,-0.05 0.01,-0.07l0 0 0 -0c0,-0.01 0.01,-0.02 0.01,-0.04l0 0 0 -0.01c0.01,-0.02 0.02,-0.05 0.03,-0.07l0 0 0 -0c0,-0.01 0.01,-0.02 0.01,-0.03l0 0 0 -0c0,-0.01 0.01,-0.02 0.01,-0.02l0 0 0 -0c0.02,-0.03 0.03,-0.05 0.05,-0.08l0 0 0 -0c0.03,-0.04 0.07,-0.08 0.12,-0.12l0 0 0 -0 0.01 -0.01 0 0 0 -0c0.01,-0.01 0.02,-0.02 0.04,-0.03l0 0 0 -0c0.04,-0.03 0.08,-0.05 0.13,-0.06l0 0 0 -0c0.01,-0 0.03,-0.01 0.04,-0.01l0 0 0 -0c0.05,-0.01 0.1,-0.02 0.15,-0.03l0.08 0c0.1,0.01 0.19,0.03 0.27,0.08l0 0 0.01 0c0.01,0 0.01,0.01 0.02,0.01l0 0 0 0c0.03,0.02 0.05,0.03 0.08,0.05l0.01 0.01 0 0 0 0c0.03,0.02 0.05,0.05 0.08,0.08l0 0 0 0c0.02,0.03 0.05,0.06 0.06,0.09l0 0 0 0c0,0.01 0.01,0.01 0.01,0.02l0 0.01 0 0c0.02,0.04 0.04,0.08 0.05,0.12l0 0.01 0 0c0.02,0.06 0.02,0.12 0.02,0.18 0,0.12 -0.03,0.24 -0.09,0.34l-0 0 0 0c-0.02,0.03 -0.03,0.05 -0.05,0.07l-0 0 0 0c-0.03,0.04 -0.06,0.07 -0.1,0.1l-0 0 0 0c-0.05,0.04 -0.12,0.08 -0.18,0.1l-0 0 0 0c-0.01,0 -0.02,0.01 -0.03,0.01l-0.01 0 0 0c-0.04,0.01 -0.08,0.02 -0.12,0.02l-0.02 0 0 0c-0.02,0 -0.03,0 -0.05,0 -0.01,0 -0.03,-0 -0.04,-0z"/>
  <path class="fil6" d="M33.74 7.36l0 -0 -0.03 0c-0.03,-0 -0.05,-0.01 -0.08,-0.01l0 -0 -0 0c-0.01,-0 -0.03,-0.01 -0.04,-0.01l0 -0 -0.01 0c-0.02,-0.01 -0.05,-0.02 -0.07,-0.03l0 -0 -0 0c-0.01,-0 -0.02,-0.01 -0.03,-0.01l0 -0 -0 0c-0.01,-0 -0.02,-0.01 -0.02,-0.01l0 -0 -0 0c-0.03,-0.02 -0.05,-0.03 -0.08,-0.05l0 -0 -0 0c-0.05,-0.04 -0.09,-0.08 -0.13,-0.13l0 -0 -0 0c-0.02,-0.02 -0.03,-0.05 -0.05,-0.08l0 -0 -0 0c-0,-0.01 -0.01,-0.01 -0.01,-0.02l0 -0 -0 0c-0.01,-0.03 -0.03,-0.06 -0.04,-0.09l0 0c-0,-0.02 -0.01,-0.03 -0.01,-0.05l0 -0.01 -0 0c-0.01,-0.02 -0.01,-0.04 -0.01,-0.07l0 -0.03 -0 0c-0,-0.02 -0,-0.04 -0,-0.06 0,-0.02 0,-0.04 0,-0.06l0 0 0 -0.02c0,-0.02 0.01,-0.05 0.01,-0.07l0 0 0 -0c0,-0.01 0.01,-0.02 0.01,-0.04l0 0 0 -0.01c0.01,-0.02 0.02,-0.05 0.03,-0.07l0 0 0 -0c0,-0.01 0.01,-0.02 0.01,-0.03l0 0 0 -0c0,-0.01 0.01,-0.02 0.01,-0.02l0 0 0 -0c0.02,-0.03 0.03,-0.05 0.05,-0.08l0 0 0 -0c0.03,-0.04 0.07,-0.08 0.12,-0.12l0 0 0 -0 0.01 -0.01 0 0 0 -0c0.01,-0.01 0.02,-0.02 0.04,-0.03l0 0 0 -0c0.04,-0.03 0.08,-0.05 0.13,-0.06l0 0 0 -0c0.01,-0 0.03,-0.01 0.04,-0.01l0 0 0 -0c0.05,-0.01 0.1,-0.02 0.15,-0.03l0.08 0c0.1,0.01 0.19,0.03 0.27,0.08l0 0 0.01 0c0.01,0 0.01,0.01 0.02,0.01l0 0 0 0c0.03,0.02 0.05,0.03 0.08,0.05l0.01 0.01 0 0 0 0c0.03,0.02 0.05,0.05 0.08,0.08l0 0 0 0c0.02,0.03 0.05,0.06 0.06,0.09l0 0 0 0c0,0.01 0.01,0.01 0.01,0.02l0 0.01 0 0c0.02,0.04 0.04,0.08 0.05,0.12l0 0.01 0 0c0.02,0.06 0.02,0.12 0.02,0.18 0,0.12 -0.03,0.24 -0.09,0.34l-0 0 0 0c-0.02,0.03 -0.03,0.05 -0.05,0.07l-0 0 0 0c-0.03,0.04 -0.06,0.07 -0.1,0.1l-0 0 0 0c-0.05,0.04 -0.12,0.08 -0.18,0.1l-0 0 0 0c-0.01,0 -0.02,0.01 -0.03,0.01l-0.01 0 0 0c-0.04,0.01 -0.08,0.02 -0.12,0.02l-0.02 0 0 0c-0.02,0 -0.03,0 -0.05,0 -0.01,0 -0.03,-0 -0.04,-0z"/>
  <path class="fil7" d="M22.34 61.19c-0.37,0 -0.67,0.3 -0.67,0.67 0,0.37 0.3,0.67 0.67,0.67 0.37,0 0.67,-0.3 0.67,-0.67 0,-0.37 -0.3,-0.67 -0.67,-0.67z"/>
  <path class="fil8" d="M22.34 61.19c-0.37,0 -0.67,0.3 -0.67,0.67 0,0.37 0.3,0.67 0.67,0.67 0.37,0 0.67,-0.3 0.67,-0.67 0,-0.37 -0.3,-0.67 -0.67,-0.67z"/>
  <path class="fil9" d="M7.59 20.76c-0.37,0 -0.67,0.3 -0.67,0.67 0,0.37 0.3,0.67 0.67,0.67 0.37,0 0.67,-0.3 0.67,-0.67 0,-0.37 -0.3,-0.67 -0.67,-0.67z"/>
  <path class="fil10" d="M7.59 20.76c-0.37,0 -0.67,0.3 -0.67,0.67 0,0.37 0.3,0.67 0.67,0.67 0.37,0 0.67,-0.3 0.67,-0.67 0,-0.37 -0.3,-0.67 -0.67,-0.67z"/>
  <path class="fil11" d="M60.96 23.3c-0.37,0 -0.67,0.3 -0.67,0.67 0,0.37 0.3,0.67 0.67,0.67 0.37,0 0.67,-0.3 0.67,-0.67 0,-0.37 -0.3,-0.67 -0.67,-0.67z"/>
  <path class="fil12" d="M60.96 23.3c-0.37,0 -0.67,0.3 -0.67,0.67 0,0.37 0.3,0.67 0.67,0.67 0.37,0 0.67,-0.3 0.67,-0.67 0,-0.37 -0.3,-0.67 -0.67,-0.67z"/>
  <path class="fil13" d="M56.14 28.49c-0.09,-0.35 -0.45,-0.56 -0.81,-0.47 -0.35,0.09 -0.56,0.46 -0.47,0.81 2,7.51 -0.16,15.59 -5.65,21.08 -5.63,5.63 -13.89,7.75 -21.55,5.52 -0.35,-0.1 -0.72,0.1 -0.82,0.45 -0.1,0.35 0.1,0.72 0.45,0.82 2.13,0.62 4.31,0.92 6.47,0.92 6.06,0 11.97,-2.38 16.38,-6.78 5.82,-5.82 8.12,-14.39 6,-22.35z"/>
  <path class="fil14" d="M56.14 28.49c-0.09,-0.35 -0.45,-0.56 -0.81,-0.47 -0.35,0.09 -0.56,0.46 -0.47,0.81 2,7.51 -0.16,15.59 -5.65,21.08 -5.63,5.63 -13.89,7.75 -21.55,5.52 -0.35,-0.1 -0.72,0.1 -0.82,0.45 -0.1,0.35 0.1,0.72 0.45,0.82 2.13,0.62 4.31,0.92 6.47,0.92 6.06,0 11.97,-2.38 16.38,-6.78 5.82,-5.82 8.12,-14.39 6,-22.35z"/>
  <path class="fil15" d="M17.41 50.84c0.92,0.93 1.93,1.78 2.99,2.53 0.12,0.08 0.25,0.12 0.38,0.12 0.21,0 0.41,-0.1 0.54,-0.28 0.21,-0.3 0.14,-0.71 -0.16,-0.92 -1,-0.71 -1.95,-1.51 -2.82,-2.38 -8.51,-8.51 -8.51,-22.36 0,-30.87 8.51,-8.51 22.36,-8.51 30.87,0 0.87,0.87 1.68,1.82 2.38,2.82 0.21,0.3 0.62,0.37 0.92,0.16 0.3,-0.21 0.37,-0.62 0.16,-0.92 -0.75,-1.06 -1.6,-2.07 -2.53,-2.99 -9.02,-9.02 -23.71,-9.02 -32.73,0 -9.03,9.02 -9.03,23.71 0,32.73z"/>
  <path class="fil16" d="M17.41 50.84c0.92,0.93 1.93,1.78 2.99,2.53 0.12,0.08 0.25,0.12 0.38,0.12 0.21,0 0.41,-0.1 0.54,-0.28 0.21,-0.3 0.14,-0.71 -0.16,-0.92 -1,-0.71 -1.95,-1.51 -2.82,-2.38 -8.51,-8.51 -8.51,-22.36 0,-30.87 8.51,-8.51 22.36,-8.51 30.87,0 0.87,0.87 1.68,1.82 2.38,2.82 0.21,0.3 0.62,0.37 0.92,0.16 0.3,-0.21 0.37,-0.62 0.16,-0.92 -0.75,-1.06 -1.6,-2.07 -2.53,-2.99 -9.02,-9.02 -23.71,-9.02 -32.73,0 -9.03,9.02 -9.03,23.71 0,32.73z"/>
  <path class="fil17" d="M48.09 13.18c3.38,-1.27 5.9,-1.31 7.1,-0.11 1.3,1.3 1.15,4.11 -0.43,7.91 -1.45,3.49 -3.99,7.59 -7.35,11.86 -0.23,0.29 -0.18,0.7 0.11,0.93 0.12,0.1 0.27,0.14 0.41,0.14 0.2,0 0.39,-0.09 0.52,-0.25 3.44,-4.36 6.04,-8.57 7.54,-12.17 1.82,-4.39 1.87,-7.62 0.14,-9.35 -1.61,-1.61 -4.55,-1.67 -8.5,-0.19 -0.34,0.13 -0.51,0.51 -0.38,0.85 0.13,0.34 0.51,0.51 0.85,0.39z"/>
  <path class="fil18" d="M48.09 13.18c3.38,-1.27 5.9,-1.31 7.1,-0.11 1.3,1.3 1.15,4.11 -0.43,7.91 -1.45,3.49 -3.99,7.59 -7.35,11.86 -0.23,0.29 -0.18,0.7 0.11,0.93 0.12,0.1 0.27,0.14 0.41,0.14 0.2,0 0.39,-0.09 0.52,-0.25 3.44,-4.36 6.04,-8.57 7.54,-12.17 1.82,-4.39 1.87,-7.62 0.14,-9.35 -1.61,-1.61 -4.55,-1.67 -8.5,-0.19 -0.34,0.13 -0.51,0.51 -0.38,0.85 0.13,0.34 0.51,0.51 0.85,0.39z"/>
  <path class="fil19" d="M33.15 48.14c-0.23,-0.29 -0.64,-0.34 -0.93,-0.11 -4.3,3.4 -8.43,5.97 -11.95,7.42 -3.8,1.57 -6.61,1.73 -7.91,0.43 -1.2,-1.2 -1.16,-3.72 0.11,-7.1 0.13,-0.34 -0.05,-0.72 -0.39,-0.85 -0.34,-0.13 -0.72,0.05 -0.85,0.39 -1.48,3.95 -1.41,6.89 0.19,8.5 0.84,0.84 2.04,1.26 3.55,1.26 1.6,0 3.54,-0.47 5.8,-1.4 3.63,-1.5 7.86,-4.13 12.26,-7.61 0.29,-0.23 0.33,-0.64 0.11,-0.93z"/>
  <path class="fil20" d="M33.15 48.14c-0.23,-0.29 -0.64,-0.34 -0.93,-0.11 -4.3,3.4 -8.43,5.97 -11.95,7.42 -3.8,1.57 -6.61,1.73 -7.91,0.43 -1.2,-1.2 -1.16,-3.72 0.11,-7.1 0.13,-0.34 -0.05,-0.72 -0.39,-0.85 -0.34,-0.13 -0.72,0.05 -0.85,0.39 -1.48,3.95 -1.41,6.89 0.19,8.5 0.84,0.84 2.04,1.26 3.55,1.26 1.6,0 3.54,-0.47 5.8,-1.4 3.63,-1.5 7.86,-4.13 12.26,-7.61 0.29,-0.23 0.33,-0.64 0.11,-0.93z"/>
  <path class="fil21" d="M41.29 42.69c-0.42,0.46 -0.63,1.05 -0.6,1.67l0.16 3.55c0,0.03 -0.01,0.06 -0.03,0.08l-0.43 0.55c-0.03,0.05 -0.1,0.06 -0.15,0.04l-1.95 -1.9 1.39 -1.9c0.55,-0.75 0.49,-1.79 -0.16,-2.47 -0.64,-0.68 -1.68,-0.8 -2.46,-0.29l-1.98 1.29 -1.79 -2.05c-0.02,-0.05 -0,-0.11 0.04,-0.15l0.57 -0.4c0.02,-0.02 0.05,-0.02 0.08,-0.02l3.54 0.36c0.62,0.06 1.22,-0.12 1.7,-0.51l4.18 -3.4c0.25,-0.21 0.54,-0.36 0.85,-0.45l1.41 -0.41c0.09,-0.02 0.15,0.01 0.18,0.05 0.03,0.04 0.07,0.1 0.04,0.18l-0.49 1.39c-0.11,0.31 -0.27,0.58 -0.49,0.82l-3.62 3.99zm-4.74 4.12c-0.18,-0.08 -0.49,-0.41 -0.77,-0.7l-0.26 -0.28c-0.3,-0.31 -0.63,-0.67 -0.69,-0.79l2.95 -1.92c0.1,-0.07 0.22,-0.1 0.34,-0.1 0.16,0 0.32,0.07 0.44,0.19 0.2,0.21 0.22,0.54 0.05,0.78l-2.06 2.81zm9.33 -7.22c0.34,-0.37 0.59,-0.8 0.76,-1.27l0.49 -1.39c0.19,-0.53 0.06,-1.12 -0.33,-1.53 -0.39,-0.41 -0.97,-0.57 -1.51,-0.41l-1.41 0.42c-0.48,0.14 -0.92,0.37 -1.31,0.69l-4.18 3.4c-0.21,0.17 -0.47,0.25 -0.74,0.22l-3.53 -0.36c-0.35,-0.03 -0.69,0.06 -0.98,0.26l-0.57 0.4c-0.64,0.45 -0.81,1.32 -0.37,1.97l1.79 2.05c-0.35,0.3 -0.52,0.76 -0.43,1.22 0.11,0.54 0.53,0.97 1.01,1.48l0.26 0.27c0.47,0.5 0.89,0.94 1.42,1.08 0.11,0.03 0.21,0.04 0.32,0.04 0.34,0 0.68,-0.15 0.92,-0.4l1.88 1.83 0.07 0.06c0.26,0.19 0.56,0.28 0.86,0.28 0.43,0 0.85,-0.19 1.13,-0.55l0.43 -0.55c0.22,-0.27 0.33,-0.61 0.31,-0.96l-0.16 -3.55c-0.01,-0.26 0.08,-0.53 0.26,-0.72l3.62 -3.99z"/>
  <path class="fil22" d="M41.29 42.69c-0.42,0.46 -0.63,1.05 -0.6,1.67l0.16 3.55c0,0.03 -0.01,0.06 -0.03,0.08l-0.43 0.55c-0.03,0.05 -0.1,0.06 -0.15,0.04l-1.95 -1.9 1.39 -1.9c0.55,-0.75 0.49,-1.79 -0.16,-2.47 -0.64,-0.68 -1.68,-0.8 -2.46,-0.29l-1.98 1.29 -1.79 -2.05c-0.02,-0.05 -0,-0.11 0.04,-0.15l0.57 -0.4c0.02,-0.02 0.05,-0.02 0.08,-0.02l3.54 0.36c0.62,0.06 1.22,-0.12 1.7,-0.51l4.18 -3.4c0.25,-0.21 0.54,-0.36 0.85,-0.45l1.41 -0.41c0.09,-0.02 0.15,0.01 0.18,0.05 0.03,0.04 0.07,0.1 0.04,0.18l-0.49 1.39c-0.11,0.31 -0.27,0.58 -0.49,0.82l-3.62 3.99zm-4.74 4.12c-0.18,-0.08 -0.49,-0.41 -0.77,-0.7l-0.26 -0.28c-0.3,-0.31 -0.63,-0.67 -0.69,-0.79l2.95 -1.92c0.1,-0.07 0.22,-0.1 0.34,-0.1 0.16,0 0.32,0.07 0.44,0.19 0.2,0.21 0.22,0.54 0.05,0.78l-2.06 2.81zm9.33 -7.22c0.34,-0.37 0.59,-0.8 0.76,-1.27l0.49 -1.39c0.19,-0.53 0.06,-1.12 -0.33,-1.53 -0.39,-0.41 -0.97,-0.57 -1.51,-0.41l-1.41 0.42c-0.48,0.14 -0.92,0.37 -1.31,0.69l-4.18 3.4c-0.21,0.17 -0.47,0.25 -0.74,0.22l-3.53 -0.36c-0.35,-0.03 -0.69,0.06 -0.98,0.26l-0.57 0.4c-0.64,0.45 -0.81,1.32 -0.37,1.97l1.79 2.05c-0.35,0.3 -0.52,0.76 -0.43,1.22 0.11,0.54 0.53,0.97 1.01,1.48l0.26 0.27c0.47,0.5 0.89,0.94 1.42,1.08 0.11,0.03 0.21,0.04 0.32,0.04 0.34,0 0.68,-0.15 0.92,-0.4l1.88 1.83 0.07 0.06c0.26,0.19 0.56,0.28 0.86,0.28 0.43,0 0.85,-0.19 1.13,-0.55l0.43 -0.55c0.22,-0.27 0.33,-0.61 0.31,-0.96l-0.16 -3.55c-0.01,-0.26 0.08,-0.53 0.26,-0.72l3.62 -3.99z"/>
 </g>
</svg>
