<?xml version="1.0" encoding="UTF-8"?>
<!DOCTYPE svg PUBLIC "-//W3C//DTD SVG 1.1//EN" "http://www.w3.org/Graphics/SVG/1.1/DTD/svg11.dtd">
<!-- Creator: CorelDRAW 2020 (64 Bit) -->
<svg xmlns="http://www.w3.org/2000/svg" xml:space="preserve" width="21.6958mm" height="21.6958mm" version="1.1" style="shape-rendering:geometricPrecision; text-rendering:geometricPrecision; image-rendering:optimizeQuality; fill-rule:evenodd; clip-rule:evenodd"
viewBox="0 0 417.63 417.63"
 xmlns:xlink="http://www.w3.org/1999/xlink"
 xmlns:xodm="http://www.corel.com/coreldraw/odm/2003">
 <defs>
  <style type="text/css">
   <![CDATA[
    .fil0 {fill:#000036;fill-rule:nonzero}
    .fil10 {fill:url(#id0)}
    .fil2 {fill:url(#id1)}
    .fil4 {fill:url(#id2)}
    .fil12 {fill:url(#id3)}
    .fil1 {fill:url(#id4)}
    .fil6 {fill:url(#id5)}
    .fil5 {fill:url(#id6)}
    .fil7 {fill:url(#id7)}
    .fil13 {fill:url(#id8)}
    .fil9 {fill:url(#id9)}
    .fil11 {fill:url(#id10)}
    .fil8 {fill:url(#id11)}
    .fil3 {fill:url(#id12)}
   ]]>
  </style>
  <linearGradient id="id0" gradientUnits="userSpaceOnUse" x1="131.31" y1="159.09" x2="152.27" y2="159.09">
   <stop offset="0" style="stop-opacity:1; stop-color:#6256A2"/>
   <stop offset="1" style="stop-opacity:1; stop-color:#61C7CD"/>
  </linearGradient>
  <linearGradient id="id1" gradientUnits="userSpaceOnUse" xlink:href="#id0" x1="278.92" y1="253.58" x2="299.87" y2="253.58">
  </linearGradient>
  <linearGradient id="id2" gradientUnits="userSpaceOnUse" xlink:href="#id0" x1="172.28" y1="321.75" x2="192.45" y2="321.75">
  </linearGradient>
  <linearGradient id="id3" gradientUnits="userSpaceOnUse" xlink:href="#id0" x1="55.76" y1="280.81" x2="76.71" y2="280.81">
  </linearGradient>
  <linearGradient id="id4" gradientUnits="userSpaceOnUse" xlink:href="#id0" x1="121.77" y1="218.33" x2="272.31" y2="218.33">
  </linearGradient>
  <linearGradient id="id5" gradientUnits="userSpaceOnUse" xlink:href="#id0" x1="47.12" y1="158.71" x2="225.26" y2="158.71">
  </linearGradient>
  <linearGradient id="id6" gradientUnits="userSpaceOnUse" x1="36.44" y1="321.75" x2="375.05" y2="321.75">
   <stop offset="0" style="stop-opacity:1; stop-color:#6256A2"/>
   <stop offset="0.309804" style="stop-opacity:1; stop-color:#6256A2"/>
   <stop offset="0.701961" style="stop-opacity:1; stop-color:#64C9D9"/>
   <stop offset="1" style="stop-opacity:1; stop-color:#64C9D9"/>
  </linearGradient>
  <linearGradient id="id7" gradientUnits="userSpaceOnUse" xlink:href="#id6" x1="36.45" y1="158.71" x2="375.04" y2="158.71">
  </linearGradient>
  <linearGradient id="id8" gradientUnits="userSpaceOnUse" xlink:href="#id6" x1="60.92" y1="139.82" x2="399.53" y2="139.82">
  </linearGradient>
  <linearGradient id="id9" gradientUnits="userSpaceOnUse" xlink:href="#id6" x1="42.65" y1="258.93" x2="369.48" y2="258.93">
  </linearGradient>
  <linearGradient id="id10" gradientUnits="userSpaceOnUse" xlink:href="#id6" x1="40.05" y1="159.09" x2="367.06" y2="159.09">
  </linearGradient>
  <linearGradient id="id11" gradientUnits="userSpaceOnUse" xlink:href="#id0" x1="365.41" y1="241.5" x2="199.31" y2="265.02">
  </linearGradient>
  <linearGradient id="id12" gradientUnits="userSpaceOnUse" xlink:href="#id6" x1="45.12" y1="253.58" x2="372.1" y2="253.58">
  </linearGradient>
 </defs>
 <g id="Camada_x0020_1">
  <metadata id="CorelCorpID_0Corel-Layer"/>
  <g id="_1695996452112">
   <path class="fil0" d="M275.03 0l-132.42 0c-78.76,0 -142.61,63.85 -142.61,142.61l0 132.42c0,78.76 63.85,142.61 142.61,142.61l132.42 0c78.76,0 142.61,-63.85 142.61,-142.61l0 -132.42c0,-78.76 -63.85,-142.61 -142.61,-142.61z"/>
   <path class="fil1" d="M236.01 237.53l38.97 -37.99 -53.86 -7.83 -24.09 -48.8 -24.09 48.8 -53.86 7.83 38.97 37.99 -9.2 53.64 48.17 -25.33 48.17 25.33 -9.2 -53.64zm28.87 -34.7l-46.88 -6.81 -20.96 -42.48 -20.96 42.48 -46.88 6.81 33.92 33.06 -8.01 46.69 41.93 -22.04 41.93 22.04 -8.01 -46.69 33.92 -33.06z"/>
   <path class="fil2" d="M279.71 263.08c0.77,0.77 1.78,1.15 2.79,1.15 1.01,0 2.02,-0.38 2.79,-1.15l4.12 -4.12 4.12 4.12c0.77,0.77 1.78,1.15 2.79,1.15 1.01,0 2.02,-0.38 2.79,-1.15 1.54,-1.54 1.54,-4.04 0,-5.58l-4.12 -4.11 4.12 -4.12c1.54,-1.54 1.54,-4.04 0,-5.58 -1.54,-1.54 -4.04,-1.54 -5.58,0l-4.12 4.12 -4.12 -4.12c-1.54,-1.54 -4.04,-1.54 -5.58,0 -1.54,1.54 -1.54,4.03 0,5.58l4.12 4.12 -4.12 4.11c-1.54,1.54 -1.54,4.04 0,5.58z"/>
   <path class="fil3" d="M279.71 263.08c0.77,0.77 1.78,1.15 2.79,1.15 1.01,0 2.02,-0.38 2.79,-1.15l4.12 -4.12 4.12 4.12c0.77,0.77 1.78,1.15 2.79,1.15 1.01,0 2.02,-0.38 2.79,-1.15 1.54,-1.54 1.54,-4.04 0,-5.58l-4.12 -4.11 4.12 -4.12c1.54,-1.54 1.54,-4.04 0,-5.58 -1.54,-1.54 -4.04,-1.54 -5.58,0l-4.12 4.12 -4.12 -4.12c-1.54,-1.54 -4.04,-1.54 -5.58,0 -1.54,1.54 -1.54,4.03 0,5.58l4.12 4.12 -4.12 4.11c-1.54,1.54 -1.54,4.04 0,5.58z"/>
   <path class="fil4" d="M182.36 323.95c-1.21,0 -2.2,-0.99 -2.2,-2.2 0,-1.21 0.99,-2.2 2.2,-2.2 1.21,0 2.2,0.99 2.2,2.2 0,1.21 -0.99,2.2 -2.2,2.2zm0 -12.28c-5.56,0 -10.09,4.52 -10.09,10.08 0,5.56 4.53,10.09 10.09,10.09 5.56,0 10.08,-4.53 10.08,-10.09 0,-5.56 -4.52,-10.08 -10.08,-10.08z"/>
   <path class="fil5" d="M182.36 323.95c-1.21,0 -2.2,-0.99 -2.2,-2.2 0,-1.21 0.99,-2.2 2.2,-2.2 1.21,0 2.2,0.99 2.2,2.2 0,1.21 -0.99,2.2 -2.2,2.2zm0 -12.28c-5.56,0 -10.09,4.52 -10.09,10.08 0,5.56 4.53,10.09 10.09,10.09 5.56,0 10.08,-4.53 10.08,-10.09 0,-5.56 -4.52,-10.08 -10.08,-10.08z"/>
   <path class="fil6" d="M137.98 229.37c-51.18,-13.69 -82.97,-38.77 -82.97,-65.44 0,-41.77 74.61,-75.76 166.3,-75.76 2.18,0 3.94,-1.76 3.94,-3.94 0,-2.18 -1.77,-3.94 -3.94,-3.94 -97.68,0 -174.19,36.74 -174.19,83.64 0,30.87 33.21,58.18 88.82,73.06 0.34,0.09 0.68,0.13 1.02,0.13 1.74,0 3.34,-1.16 3.81,-2.92 0.56,-2.11 -0.69,-4.27 -2.79,-4.83z"/>
   <path class="fil7" d="M137.98 229.37c-51.18,-13.69 -82.97,-38.77 -82.97,-65.44 0,-41.77 74.61,-75.76 166.3,-75.76 2.18,0 3.94,-1.76 3.94,-3.94 0,-2.18 -1.77,-3.94 -3.94,-3.94 -97.68,0 -174.19,36.74 -174.19,83.64 0,30.87 33.21,58.18 88.82,73.06 0.34,0.09 0.68,0.13 1.02,0.13 1.74,0 3.34,-1.16 3.81,-2.92 0.56,-2.11 -0.69,-4.27 -2.79,-4.83z"/>
   <path class="fil8" d="M275.09 180.78c-0.34,-0.04 -0.68,-0.03 -1,0.01 -1.68,0.23 -3.08,1.52 -3.31,3.21 -0.28,2.03 1.21,3.86 3.31,4.11 51.17,5.92 85.07,24.96 88.45,49.68 5.3,38.72 -62.45,80.08 -151.03,92.21 -2.1,0.29 -3.59,2.16 -3.31,4.18 0.28,2.02 2.21,3.42 4.31,3.13 94.35,-12.91 163.6,-57.08 157.65,-100.56 -3.92,-28.61 -39.46,-49.53 -95.07,-55.97z"/>
   <path class="fil9" d="M275.09 180.78c-0.34,-0.04 -0.68,-0.03 -1,0.01 -1.68,0.23 -3.08,1.52 -3.31,3.21 -0.28,2.03 1.21,3.86 3.31,4.11 51.17,5.92 85.07,24.96 88.45,49.68 5.3,38.72 -62.45,80.08 -151.03,92.21 -2.1,0.29 -3.59,2.16 -3.31,4.18 0.28,2.02 2.21,3.42 4.31,3.13 94.35,-12.91 163.6,-57.08 157.65,-100.56 -3.92,-28.61 -39.46,-49.53 -95.07,-55.97z"/>
   <path class="fil10" d="M151.48 149.21c-1.54,-1.54 -4.04,-1.54 -5.58,0l-4.12 4.11 -4.12 -4.11c-1.54,-1.54 -4.04,-1.54 -5.58,0 -1.54,1.54 -1.54,4.04 0,5.58l4.12 4.12 -4.12 4.12c-1.54,1.54 -1.54,4.04 0,5.58 0.77,0.77 1.78,1.16 2.79,1.16 1.01,0 2.02,-0.39 2.79,-1.16l4.12 -4.12 4.12 4.12c0.77,0.77 1.78,1.16 2.79,1.16 1.01,0 2.02,-0.39 2.79,-1.16 1.54,-1.54 1.54,-4.04 0,-5.58l-4.12 -4.12 4.12 -4.12c1.54,-1.54 1.54,-4.04 0,-5.58z"/>
   <path class="fil11" d="M151.48 149.21c-1.54,-1.54 -4.04,-1.54 -5.58,0l-4.12 4.11 -4.12 -4.11c-1.54,-1.54 -4.04,-1.54 -5.58,0 -1.54,1.54 -1.54,4.04 0,5.58l4.12 4.12 -4.12 4.12c-1.54,1.54 -1.54,4.04 0,5.58 0.77,0.77 1.78,1.16 2.79,1.16 1.01,0 2.02,-0.39 2.79,-1.16l4.12 -4.12 4.12 4.12c0.77,0.77 1.78,1.16 2.79,1.16 1.01,0 2.02,-0.39 2.79,-1.16 1.54,-1.54 1.54,-4.04 0,-5.58l-4.12 -4.12 4.12 -4.12c1.54,-1.54 1.54,-4.04 0,-5.58z"/>
   <path class="fil12" d="M75.93 270.93c-1.54,-1.54 -4.04,-1.54 -5.58,0l-4.12 4.12 -4.12 -4.12c-1.54,-1.54 -4.04,-1.54 -5.58,0 -1.54,1.54 -1.54,4.04 0,5.58l4.11 4.12 -4.11 4.12c-1.54,1.54 -1.54,4.04 0,5.58 0.77,0.77 1.78,1.16 2.79,1.16 1.01,0 2.02,-0.38 2.79,-1.16l4.12 -4.12 4.12 4.12c0.77,0.77 1.78,1.16 2.79,1.16 1.01,0 2.02,-0.38 2.79,-1.16 1.54,-1.54 1.54,-4.04 0,-5.58l-4.12 -4.12 4.12 -4.12c1.54,-1.54 1.54,-4.04 0,-5.58z"/>
   <path class="fil13" d="M289.4 137.62c1.21,0 2.2,0.99 2.2,2.2 0,1.21 -0.99,2.2 -2.2,2.2 -1.21,0 -2.2,-0.99 -2.2,-2.2 0,-1.21 0.99,-2.2 2.2,-2.2zm0 12.28c5.56,0 10.08,-4.53 10.08,-10.09 0,-5.56 -4.52,-10.08 -10.08,-10.08 -5.56,0 -10.09,4.52 -10.09,10.08 0,5.56 4.53,10.09 10.09,10.09z"/>
  </g>
 </g>
</svg>
